<?xml version="1.0" encoding="UTF-8"?>
<!DOCTYPE svg PUBLIC "-//W3C//DTD SVG 1.1//EN" "http://www.w3.org/Graphics/SVG/1.1/DTD/svg11.dtd">
<!-- Creator: CorelDRAW X7 -->
<svg xmlns="http://www.w3.org/2000/svg" xml:space="preserve" width="4.909in" height="1.544in" version="1.1" style="shape-rendering:geometricPrecision; text-rendering:geometricPrecision; image-rendering:optimizeQuality; fill-rule:evenodd; clip-rule:evenodd"
viewBox="0 0 4909 1544"
 xmlns:xlink="http://www.w3.org/1999/xlink">
 <defs>
  <style type="text/css">
   <![CDATA[
    .fil0 {fill:#373435}
   ]]>
  </style>
 </defs>
 <g id="Layer_x0020_1">
  <metadata id="CorelCorpID_0Corel-Layer"/>
  <g id="_358150464">
   <path class="fil0" d="M321 1305c24,-57 -58,-431 301,-578 232,-94 496,5 606,213 83,157 53,248 46,381 -5,78 6,66 105,66l1943 -1c68,0 117,-1 164,-29l-1 -179c-9,-488 595,-655 871,-281 114,155 57,348 106,425 63,29 280,-6 353,-28 111,-34 92,-167 93,-315 -106,-78 -32,-148 -83,-399 -25,-126 -199,-138 -331,-164 -136,-25 -280,-44 -424,-59 -98,-10 -368,-42 -450,-35 -80,134 26,136 -252,150 -200,9 -276,15 -474,6 -15,-109 37,-152 -98,-132l-35 136c-57,34 -354,30 -419,33 -149,6 -304,17 -450,18 16,-83 42,-107 -41,-133 -55,-18 -120,-21 -181,-22l269 -171c67,-37 233,-111 284,-151l-30 -56c-82,9 -563,261 -654,313 -165,95 -144,91 -364,120 -140,18 -279,40 -415,67 -133,27 -265,54 -397,86 -162,38 -213,72 -270,212 -13,32 -21,61 -31,87 -27,71 -27,23 -51,66 -6,13 -50,329 96,368 27,8 76,10 107,10 17,0 38,1 55,-2l52 -22z"/>
   <path class="fil0" d="M3885 807c-486,110 -318,828 159,728 182,-39 322,-233 280,-442 -35,-178 -216,-336 -439,-286z"/>
   <path class="fil0" d="M442 1237c32,171 207,342 425,300 484,-95 365,-803 -122,-734 -183,26 -346,206 -303,434z"/>
  </g>
 </g>
</svg>
