<?xml version="1.0" encoding="UTF-8"?>
<!DOCTYPE svg PUBLIC "-//W3C//DTD SVG 1.1//EN" "http://www.w3.org/Graphics/SVG/1.1/DTD/svg11.dtd">
<!-- Creator: CorelDRAW X7 -->
<svg xmlns="http://www.w3.org/2000/svg" xml:space="preserve" width="4.909in" height="1.609in" version="1.1" style="shape-rendering:geometricPrecision; text-rendering:geometricPrecision; image-rendering:optimizeQuality; fill-rule:evenodd; clip-rule:evenodd"
viewBox="0 0 4909 1609"
 xmlns:xlink="http://www.w3.org/1999/xlink">
 <defs>
  <style type="text/css">
   <![CDATA[
    .fil0 {fill:#373435}
   ]]>
  </style>
 </defs>
 <g id="Layer_x0020_1">
  <metadata id="CorelCorpID_0Corel-Layer"/>
  <path class="fil0" d="M2991 555c-1,-87 26,-262 37,-363 6,-49 0,-71 48,-80 122,-25 260,90 361,164 50,36 319,241 62,258 -167,11 -341,22 -508,21zm-1250 -106c43,-71 381,-228 488,-267 230,-84 444,-46 686,-71l-75 434c-66,33 -810,49 -947,52 20,-139 11,-151 -152,-148zm-1414 929c14,-238 -21,-281 112,-455 176,-227 579,-238 771,50 116,176 59,281 53,476 176,15 2077,0 2229,-5 4,-218 -41,-319 78,-486 191,-266 565,-273 764,-25 152,190 67,250 119,458 83,9 290,-9 364,-33 108,-35 93,-191 89,-316 -17,-13 -31,-18 -48,-30 -39,-482 35,-453 -400,-545 -516,-109 -295,-23 -699,-255 -104,-60 -203,-105 -310,-160 -127,-65 -265,-49 -422,-51 -751,-11 -886,75 -1501,396 -214,112 -478,110 -785,170 -130,25 -260,54 -386,84 -262,63 -236,178 -296,305 -30,62 -34,14 -52,65 -1,2 -45,323 97,363 57,17 166,13 223,-6z"/>
  <path class="fil0" d="M726 874c-492,105 -305,842 172,722 440,-111 324,-829 -172,-722z"/>
  <path class="fil0" d="M3881 873c-492,109 -302,836 173,722 170,-41 317,-231 268,-450 -40,-175 -217,-321 -441,-272z"/>
 </g>
</svg>
