<?xml version="1.0" encoding="UTF-8"?>
<!DOCTYPE svg PUBLIC "-//W3C//DTD SVG 1.1//EN" "http://www.w3.org/Graphics/SVG/1.1/DTD/svg11.dtd">
<!-- Creator: CorelDRAW X7 -->
<svg xmlns="http://www.w3.org/2000/svg" xml:space="preserve" width="4.592in" height="1.712in" version="1.1" style="shape-rendering:geometricPrecision; text-rendering:geometricPrecision; image-rendering:optimizeQuality; fill-rule:evenodd; clip-rule:evenodd"
viewBox="0 0 4592 1712"
 xmlns:xlink="http://www.w3.org/1999/xlink">
 <defs>
  <style type="text/css">
   <![CDATA[
    .str0 {stroke:#373435;stroke-width:6.94488}
    .fil0 {fill:#373435}
   ]]>
  </style>
 </defs>
 <g id="Layer_x0020_1">
  <metadata id="CorelCorpID_0Corel-Layer"/>
  <path class="fil0" d="M2620 542c2,-123 27,-306 58,-412 225,-17 383,-2 587,52 30,130 33,217 41,351 -162,-29 -501,9 -686,9zm730 -307c63,40 82,79 133,118 55,42 73,71 70,170l-200 -5 -3 -283zm894 246c-110,2 -221,-50 -281,-102 -52,-47 -162,-151 -189,-204 98,4 99,-1 159,46 72,56 290,214 311,260zm-2698 -43c40,-60 321,-216 411,-253 130,-54 438,-74 589,-54l-71 410 -783 37 8 -104c-56,-38 -70,-36 -154,-36zm-1535 516c-1,186 -46,290 55,424 65,14 167,14 233,-2 36,-148 32,-239 127,-331 78,-76 160,-149 323,-151 157,-2 260,66 333,142 96,99 104,167 134,336 50,22 1991,30 2049,8 28,-20 19,-122 47,-194 116,-299 510,-395 746,-148 99,104 105,171 131,339 211,-19 339,46 377,-56l17 -201c12,-145 31,-158 -87,-200 -34,-499 -7,-317 -302,-584 -39,-36 -57,-45 -99,-78 -36,-28 -62,-49 -99,-77 -67,-52 -14,-47 -26,-114 -150,-92 -936,-63 -1172,-61 -442,3 -718,-13 -1065,178 -175,97 -413,302 -606,326 -94,11 -192,19 -285,30 -188,24 -358,50 -537,90 -94,21 -155,30 -200,105 -19,32 -35,73 -41,114 -18,112 11,52 -53,105z"/>
  <path class="fil0" d="M3687 983c-486,69 -379,800 110,723 464,-73 362,-790 -110,-723z"/>
  <path class="fil0" d="M683 977c-481,112 -308,820 164,711 175,-40 324,-222 271,-442 -41,-172 -218,-319 -435,-269z"/>
  <rect class="fil0 str0" x="3271" y="175" width="64.5827" height="356.248"/>
 </g>
</svg>
