<?xml version="1.0" encoding="UTF-8"?>
<!DOCTYPE svg PUBLIC "-//W3C//DTD SVG 1.1//EN" "http://www.w3.org/Graphics/SVG/1.1/DTD/svg11.dtd">
<!-- Creator: CorelDRAW X7 -->
<svg xmlns="http://www.w3.org/2000/svg" xml:space="preserve" width="0.251in" height="0.094in" version="1.1" style="shape-rendering:geometricPrecision; text-rendering:geometricPrecision; image-rendering:optimizeQuality; fill-rule:evenodd; clip-rule:evenodd"
viewBox="0 0 251 94"
 xmlns:xlink="http://www.w3.org/1999/xlink">
 <defs>
  <style type="text/css">
   <![CDATA[
    .fil0 {fill:#2E3031}
   ]]>
  </style>
 </defs>
 <g id="Layer_x0020_1">
  <metadata id="CorelCorpID_0Corel-Layer"/>
  <g id="_2369561398960">
   <path class="fil0" d="M7 45c0,0 3,-2 12,-2 0,0 -4,4 -7,5 -4,0 -5,-3 -5,-3z"/>
   <path class="fil0" d="M246 69l-10 3c0,0 1,-27 -26,-25 -27,1 -25,29 -25,29l-111 0c0,0 0,-30 -27,-30 -27,1 -23,29 -24,31 0,1 -20,-2 -19,-9l16 0c0,0 1,-23 28,-24 27,-1 27,30 27,30l106 -3c0,0 4,-23 24,-26 21,-3 29,9 31,18l10 -1c0,0 1,-8 4,-8 0,0 0,13 -4,15zm-244 -8c0,0 4,-1 5,1 2,2 3,5 3,5l-6 0 -2 -6zm29 -21c2,0 -21,12 -22,10 -2,-3 -4,-4 -4,-4 4,-6 23,-7 26,-6zm36 -12l-5 8c0,0 -31,-2 -42,1 5,-2 36,-10 47,-9zm10 6c0,0 -3,16 -2,29 0,0 -4,-16 2,-29zm-1 -10c3,-2 34,-17 33,-17 -1,1 2,3 2,3 -4,1 -26,14 -32,16 -7,1 -3,-2 -3,-2zm83 -22c33,0 46,5 46,5 -36,-6 -76,-2 -84,0 -9,3 -10,0 -10,0 0,0 15,-5 48,-5zm-61 28l-8 -1c0,0 7,-1 8,-3 0,0 2,3 0,4zm90 -7l0 -12 7 1 5 11 -12 0zm-36 3l1 -17c11,-1 33,2 33,2l0 13 -34 2zm-52 -5c17,-9 44,-12 44,-12l-4 17 -38 3c1,-3 -2,-8 -2,-8zm36 15c0,0 0,1 -1,1l-10 0c0,0 -1,-1 -1,-1 0,-1 1,-1 1,-1l10 0c1,0 1,0 1,1zm7 32c0,0 -7,-19 2,-36 0,0 -5,23 -2,36zm50 -33c0,0 0,1 -1,1l-10 0c0,0 -1,-1 -1,-1 0,-1 1,-1 1,-1l10 0c1,0 1,0 1,1zm13 -15c2,3 8,5 2,5 -5,1 -109,7 -109,7l1 -2 102 -6c0,0 2,1 1,-1 -1,-2 -3,-5 2,-7 7,-2 0,-3 0,-3 0,0 -73,-22 -124,19 1,-2 35,-44 132,-19 0,0 -9,4 -7,7zm12 -2l6 -6 -1 3c20,8 23,13 23,13 0,0 -25,-7 -27,-8 -2,-2 -1,-2 -1,-2zm27 20c-3,3 -11,0 -17,-2 -6,-3 -2,-3 -2,-3 13,0 21,-4 21,-4 0,0 0,5 -2,9zm3 10c-4,-5 2,-18 -1,-22 -4,-5 -23,-12 -23,-12l3 -6c-81,-15 -109,-5 -116,-3 -7,2 -36,18 -36,18 -71,5 -72,20 -72,20 -5,3 -3,14 -3,14 0,0 0,6 2,13 2,8 23,8 23,8 0,0 -5,-30 22,-31 26,0 25,31 25,31l115 0c0,0 -4,-29 23,-29 27,0 23,26 23,26l15 -4c5,-10 3,-19 0,-23z"/>
   <path class="fil0" d="M19 43c0,0 -4,4 -7,5 -4,0 -5,-3 -5,-3 0,0 3,-2 12,-2z"/>
   <path class="fil0" d="M19 43c0,0 -4,4 -7,5 -4,0 -5,-3 -5,-3 0,0 3,-2 12,-2z"/>
   <path class="fil0" d="M214 70l6 -7c5,2 4,8 4,8l-10 -1zm5 13l-5 -9 9 1c2,4 -4,8 -4,8zm-13 2l5 -9 5 8c-4,4 -10,1 -10,1zm-8 -10l10 -1 -5 8c-5,-1 -5,-7 -5,-7zm4 -13l5 9 -10 -1c0,-4 5,-8 5,-8zm11 10c0,1 -1,2 -2,2 -2,0 -3,-1 -3,-2 0,-1 1,-2 3,-2 1,0 2,1 2,2zm3 -12l-5 8 -4 -8c4,-3 9,0 9,0zm-5 -4c-9,0 -16,7 -16,16 0,8 7,15 16,15 8,0 16,-7 16,-15 0,-9 -8,-16 -16,-16z"/>
   <path class="fil0" d="M211 89c-9,0 -17,-8 -17,-17 0,-10 8,-17 17,-17 9,0 17,7 17,17 0,9 -8,17 -17,17zm0 -38c-12,0 -22,9 -22,21 0,12 10,22 22,22 12,0 21,-10 21,-22 0,-12 -9,-21 -21,-21z"/>
   <path class="fil0" d="M214 70l6 -7c5,2 4,8 4,8l-10 -1zm5 13l-5 -9 9 1c2,4 -4,8 -4,8zm-13 2l5 -9 5 8c-4,4 -10,1 -10,1zm-8 -10l10 -1 -5 8c-5,-1 -5,-7 -5,-7zm4 -13l5 9 -10 -1c0,-4 5,-8 5,-8zm11 10c0,1 -1,2 -2,2 -2,0 -3,-1 -3,-2 0,-1 1,-2 3,-2 1,0 2,1 2,2zm3 -12l-5 8 -4 -8c4,-3 9,0 9,0zm-5 -4c-9,0 -16,7 -16,16 0,8 7,15 16,15 8,0 16,-7 16,-15 0,-9 -8,-16 -16,-16z"/>
   <path class="fil0" d="M214 70l6 -7c5,2 4,8 4,8l-10 -1zm5 13l-5 -9 9 1c2,4 -4,8 -4,8zm-13 2l5 -9 5 8c-4,4 -10,1 -10,1zm-8 -10l10 -1 -5 8c-5,-1 -5,-7 -5,-7zm4 -13l5 9 -10 -1c0,-4 5,-8 5,-8zm11 10c0,1 -1,2 -2,2 -2,0 -3,-1 -3,-2 0,-1 1,-2 3,-2 1,0 2,1 2,2zm3 -12l-5 8 -4 -8c4,-3 9,0 9,0zm-5 -4c-9,0 -16,7 -16,16 0,8 7,15 16,15 8,0 16,-7 16,-15 0,-9 -8,-16 -16,-16z"/>
   <path class="fil0" d="M52 70l7 -7c4,2 3,8 3,8l-10 -1zm5 13l-5 -9 9 1c1,4 -4,8 -4,8zm-13 2l5 -9 4 8c-3,4 -9,1 -9,1zm-8 -10l10 -1 -5 8c-5,-1 -5,-7 -5,-7zm4 -13l5 9 -9 -1c-2,-4 4,-8 4,-8zm11 10c0,1 -1,2 -2,2 -1,0 -2,-1 -2,-2 0,-1 1,-2 2,-2 1,0 2,1 2,2zm3 -12l-5 8 -4 -8c3,-3 9,0 9,0zm-5 -4c-9,0 -16,7 -16,16 0,8 7,15 16,15 9,0 15,-7 15,-15 0,-9 -6,-16 -15,-16z"/>
   <path class="fil0" d="M49 89c-10,0 -17,-8 -17,-17 0,-10 7,-17 17,-17 9,0 17,7 17,17 0,9 -8,17 -17,17zm0 -38c-12,0 -22,9 -22,21 0,12 10,22 22,22 12,0 21,-10 21,-22 0,-12 -9,-21 -21,-21z"/>
   <path class="fil0" d="M52 70l7 -7c4,2 3,8 3,8l-10 -1zm5 13l-5 -9 9 1c1,4 -4,8 -4,8zm-13 2l5 -9 4 8c-3,4 -9,1 -9,1zm-8 -10l10 -1 -5 8c-5,-1 -5,-7 -5,-7zm4 -13l5 9 -9 -1c-2,-4 4,-8 4,-8zm11 10c0,1 -1,2 -2,2 -1,0 -2,-1 -2,-2 0,-1 1,-2 2,-2 1,0 2,1 2,2zm3 -12l-5 8 -4 -8c3,-3 9,0 9,0zm-5 -4c-9,0 -16,7 -16,16 0,8 7,15 16,15 9,0 15,-7 15,-15 0,-9 -6,-16 -15,-16z"/>
   <path class="fil0" d="M52 70l7 -7c4,2 3,8 3,8l-10 -1zm5 13l-5 -9 9 1c1,4 -4,8 -4,8zm-13 2l5 -9 4 8c-3,4 -9,1 -9,1zm-8 -10l10 -1 -5 8c-5,-1 -5,-7 -5,-7zm4 -13l5 9 -9 -1c-2,-4 4,-8 4,-8zm11 10c0,1 -1,2 -2,2 -1,0 -2,-1 -2,-2 0,-1 1,-2 2,-2 1,0 2,1 2,2zm3 -12l-5 8 -4 -8c3,-3 9,0 9,0zm-5 -4c-9,0 -16,7 -16,16 0,8 7,15 16,15 9,0 15,-7 15,-15 0,-9 -6,-16 -15,-16z"/>
  </g>
 </g>
</svg>
