<?xml version="1.0" encoding="UTF-8"?>
<!DOCTYPE svg PUBLIC "-//W3C//DTD SVG 1.1//EN" "http://www.w3.org/Graphics/SVG/1.1/DTD/svg11.dtd">
<!-- Creator: CorelDRAW X7 -->
<svg xmlns="http://www.w3.org/2000/svg" xml:space="preserve" width="4.59in" height="1.578in" version="1.1" style="shape-rendering:geometricPrecision; text-rendering:geometricPrecision; image-rendering:optimizeQuality; fill-rule:evenodd; clip-rule:evenodd"
viewBox="0 0 4590 1578"
 xmlns:xlink="http://www.w3.org/1999/xlink">
 <defs>
  <style type="text/css">
   <![CDATA[
    .fil0 {fill:#373435}
   ]]>
  </style>
 </defs>
 <g id="Layer_x0020_1">
  <metadata id="CorelCorpID_0Corel-Layer"/>
  <path class="fil0" d="M2895 547c45,-481 28,-451 217,-441 248,12 399,-6 542,129 45,44 167,188 178,255 -72,34 -811,64 -937,57zm-1166 -107c26,-72 358,-212 461,-252 171,-67 425,-100 628,-83 1,83 -44,380 -76,436 -54,20 -728,44 -836,45l9 -109c-57,-35 -96,-43 -186,-37zm-1405 920c53,-67 -58,-211 121,-444 181,-236 577,-237 760,26 100,143 95,284 75,482 220,9 2022,19 2103,-6 40,-204 -54,-282 91,-476 210,-282 588,-244 760,-27 146,182 79,241 111,467 93,14 205,-9 232,-90 15,-46 13,-103 12,-154 -1,-119 4,-68 -54,-122 -4,-120 -41,-270 -60,-388 -32,-198 -32,-201 -174,-287 -94,-57 -185,-109 -284,-162 -121,-66 -180,-103 -336,-124 -264,-36 -576,-55 -847,-55 -572,1 -903,136 -1378,431 -86,53 -856,165 -1119,235 -234,63 -218,211 -274,291 -19,28 -91,18 -51,283 33,217 296,133 312,120z"/>
  <path class="fil0" d="M3792 853c-198,50 -321,198 -285,448 24,163 247,312 453,269 171,-35 323,-226 270,-451 -40,-167 -225,-320 -438,-266z"/>
  <path class="fil0" d="M720 866c-421,115 -366,790 194,695 179,-30 321,-221 257,-444 -48,-170 -225,-312 -451,-251z"/>
 </g>
</svg>
