<?xml version="1.0" encoding="UTF-8"?>
<!DOCTYPE svg PUBLIC "-//W3C//DTD SVG 1.1//EN" "http://www.w3.org/Graphics/SVG/1.1/DTD/svg11.dtd">
<!-- Creator: CorelDRAW X7 -->
<svg xmlns="http://www.w3.org/2000/svg" xml:space="preserve" width="0.251in" height="0.094in" version="1.1" style="shape-rendering:geometricPrecision; text-rendering:geometricPrecision; image-rendering:optimizeQuality; fill-rule:evenodd; clip-rule:evenodd"
viewBox="0 0 251 94"
 xmlns:xlink="http://www.w3.org/1999/xlink">
 <defs>
  <style type="text/css">
   <![CDATA[
    .fil0 {fill:#2E3031}
   ]]>
  </style>
 </defs>
 <g id="Layer_x0020_1">
  <metadata id="CorelCorpID_0Corel-Layer"/>
  <g id="_2369562582816">
   <polygon class="fil0" points="195,28 195,28 195,28 195,28 195,28 "/>
   <path class="fil0" d="M144 29l0 0 0 0 0 0c0,0 0,0 0,0 0,0 0,0 0,0z"/>
   <path class="fil0" d="M179 36c0,0 0,-1 0,-1l14 0c0,0 0,1 0,1 0,0 0,1 0,1l-14 0c0,0 0,-1 0,-1zm-54 1c0,0 1,-1 1,-1l13 0c1,0 1,1 1,1 0,1 0,1 -1,1l-13 0c0,0 -1,0 -1,-1zm121 29l-18 1c0,0 -7,-23 -28,-23 -21,0 -26,25 -26,25l-104 1c0,0 -1,-23 -25,-26 -25,-2 -28,26 -28,26 0,0 -6,0 -8,-1 0,0 5,-1 6,-2 1,-1 2,-25 29,-25 26,0 29,25 29,25l99 0c0,0 5,-21 25,-25l0 -10 -1 -2c-18,1 -36,1 -52,1l-1 34c-3,-16 -1,-29 0,-34 -2,0 -4,0 -6,0 -10,0 -19,0 -27,0l1 -1c0,-1 0,-2 0,-3 0,-4 -3,-5 -3,-5 9,-7 24,-10 30,-11 6,0 3,5 3,5l-3 14 6 -1c0,0 0,1 0,0l0 0c2,0 4,0 6,0l0 0 1 -18c0,0 25,-1 30,7l-1 11c5,-1 11,0 15,0l0 0 14 -1c-4,1 -8,1 -13,1l3 3 0 10c0,0 23,-1 30,22 0,0 5,-4 6,-9 0,0 7,2 13,0 0,0 2,5 -2,11zm-238 -16c-2,-2 0,-5 0,-5 9,-7 30,-7 30,-7 -14,5 -17,9 -20,11 -3,2 -10,1 -10,1zm70 15l-4 0c-2,-12 -9,-17 -9,-17 9,-1 13,17 13,17zm10 -33c-11,9 -5,31 -4,33 -11,-27 4,-33 4,-33zm14 -1c0,0 -4,-3 -2,-5 3,-3 6,-3 6,-3 0,0 -7,3 -4,8zm-11 -2c0,0 22,-18 37,-21 16,-3 50,-2 60,4 10,5 38,15 21,16 9,-5 -34,-18 -34,-18 0,0 -38,-5 -53,1 -14,5 -30,19 -30,19 -1,0 -2,0 -2,0l1 -1zm104 -25l-3 2c-48,-5 -68,0 -75,3 26,-12 78,-5 78,-5zm24 6l0 1c0,0 -14,-2 -22,-3l22 2zm9 19c-1,-1 -13,-10 -16,-12 -2,-2 -2,-4 -2,-4l18 16zm12 4c7,8 -1,9 -10,6 -9,-3 -8,-6 -8,-6l18 0zm11 32c-1,-2 -1,-5 -1,-5l0 -6c0,0 -4,-2 -4,-3 0,-1 -1,-12 -2,-14 -1,-2 1,-9 1,-9l-9 0c0,0 -9,-8 -15,-11 0,0 -1,-5 2,-7l0 -2c0,0 -8,-1 -19,-2 0,0 -3,-4 -9,-5 -5,0 -68,-5 -84,8 -15,12 -27,20 -27,20 0,0 -64,0 -79,17 0,0 -1,6 0,9 0,0 -2,3 -4,3 -2,1 0,5 0,5 0,0 5,3 5,6 1,4 9,8 14,12 0,0 -3,-31 22,-33 25,-3 27,31 27,31l91 0c0,0 13,4 15,2 0,0 1,-33 24,-33 23,0 27,20 25,29 0,0 6,0 9,-2 3,-3 9,-1 9,-1 0,0 6,1 4,-3 0,0 5,-3 5,-6z"/>
   <path class="fil0" d="M117 9c-1,0 -2,1 -4,2 1,-1 1,-1 4,-2z"/>
   <path class="fil0" d="M204 70l6 -7c4,2 3,8 3,8l-9 -1zm4 13l-5 -9 9 0c2,5 -4,9 -4,9zm-12 2l5 -9 4 9c-4,3 -9,0 -9,0zm-8 -10l10 -1 -5 9c-5,-2 -5,-8 -5,-8zm3 -13l6 9 -10 -1c-1,-4 4,-8 4,-8zm11 10c0,1 -1,2 -2,2 -1,0 -2,-1 -2,-2 0,-1 1,-2 2,-2 1,0 2,1 2,2zm3 -12l-5 8 -4 -8c4,-4 9,0 9,0zm-5 -4c-8,0 -15,7 -15,16 0,8 7,16 15,16 9,0 15,-8 15,-16 0,-9 -6,-16 -15,-16z"/>
   <path class="fil0" d="M200 89c-9,0 -16,-8 -16,-17 0,-10 7,-17 16,-17 9,0 17,7 17,17 0,9 -8,17 -17,17zm0 -38c-12,0 -21,9 -21,21 0,12 9,22 21,22 11,0 21,-10 21,-22 0,-12 -10,-21 -21,-21z"/>
   <path class="fil0" d="M204 70l6 -7c4,2 3,8 3,8l-9 -1zm4 13l-5 -9 9 0c2,5 -4,9 -4,9zm-12 2l5 -9 4 9c-4,3 -9,0 -9,0zm-8 -10l10 -1 -5 9c-5,-2 -5,-8 -5,-8zm3 -13l6 9 -10 -1c-1,-4 4,-8 4,-8zm11 10c0,1 -1,2 -2,2 -1,0 -2,-1 -2,-2 0,-1 1,-2 2,-2 1,0 2,1 2,2zm3 -12l-5 8 -4 -8c4,-4 9,0 9,0zm-5 -4c-8,0 -15,7 -15,16 0,8 7,16 15,16 9,0 15,-8 15,-16 0,-9 -6,-16 -15,-16z"/>
   <path class="fil0" d="M204 70l6 -7c4,2 3,8 3,8l-9 -1zm4 13l-5 -9 9 0c2,5 -4,9 -4,9zm-12 2l5 -9 4 9c-4,3 -9,0 -9,0zm-8 -10l10 -1 -5 9c-5,-2 -5,-8 -5,-8zm3 -13l6 9 -10 -1c-1,-4 4,-8 4,-8zm11 10c0,1 -1,2 -2,2 -1,0 -2,-1 -2,-2 0,-1 1,-2 2,-2 1,0 2,1 2,2zm3 -12l-5 8 -4 -8c4,-4 9,0 9,0zm-5 -4c-8,0 -15,7 -15,16 0,8 7,16 15,16 9,0 15,-8 15,-16 0,-9 -6,-16 -15,-16z"/>
   <path class="fil0" d="M48 70l6 -7c4,2 3,8 3,8l-9 -1zm5 13l-6 -9 10 0c1,5 -4,9 -4,9zm-13 2l5 -9 4 9c-3,3 -9,0 -9,0zm-8 -10l10 -1 -5 9c-5,-2 -5,-8 -5,-8zm4 -13l5 9 -9 -1c-1,-4 4,-8 4,-8zm10 10c0,1 -1,2 -2,2 -1,0 -2,-1 -2,-2 0,-1 1,-2 2,-2 1,0 2,1 2,2zm3 -12l-4 8 -4 -8c3,-4 8,0 8,0zm-4 -4c-9,0 -16,7 -16,16 0,8 7,16 16,16 8,0 15,-8 15,-16 0,-9 -7,-16 -15,-16z"/>
   <path class="fil0" d="M45 89c-10,0 -17,-8 -17,-17 0,-10 7,-17 17,-17 9,0 16,7 16,17 0,9 -7,17 -16,17zm-1 -38c-11,0 -21,9 -21,21 0,12 10,22 21,22 12,0 21,-10 21,-22 0,-12 -9,-21 -21,-21z"/>
   <path class="fil0" d="M48 70l6 -7c4,2 3,8 3,8l-9 -1zm5 13l-6 -9 10 0c1,5 -4,9 -4,9zm-13 2l5 -9 4 9c-3,3 -9,0 -9,0zm-8 -10l10 -1 -5 9c-5,-2 -5,-8 -5,-8zm4 -13l5 9 -9 -1c-1,-4 4,-8 4,-8zm10 10c0,1 -1,2 -2,2 -1,0 -2,-1 -2,-2 0,-1 1,-2 2,-2 1,0 2,1 2,2zm3 -12l-4 8 -4 -8c3,-4 8,0 8,0zm-4 -4c-9,0 -16,7 -16,16 0,8 7,16 16,16 8,0 15,-8 15,-16 0,-9 -7,-16 -15,-16z"/>
   <path class="fil0" d="M48 70l6 -7c4,2 3,8 3,8l-9 -1zm5 13l-6 -9 10 0c1,5 -4,9 -4,9zm-13 2l5 -9 4 9c-3,3 -9,0 -9,0zm-8 -10l10 -1 -5 9c-5,-2 -5,-8 -5,-8zm4 -13l5 9 -9 -1c-1,-4 4,-8 4,-8zm10 10c0,1 -1,2 -2,2 -1,0 -2,-1 -2,-2 0,-1 1,-2 2,-2 1,0 2,1 2,2zm3 -12l-4 8 -4 -8c3,-4 8,0 8,0zm-4 -4c-9,0 -16,7 -16,16 0,8 7,16 16,16 8,0 15,-8 15,-16 0,-9 -7,-16 -15,-16z"/>
  </g>
 </g>
</svg>
