<?xml version="1.0" encoding="UTF-8"?>
<!DOCTYPE svg PUBLIC "-//W3C//DTD SVG 1.1//EN" "http://www.w3.org/Graphics/SVG/1.1/DTD/svg11.dtd">
<!-- Creator: CorelDRAW X7 -->
<svg xmlns="http://www.w3.org/2000/svg" xml:space="preserve" width="3.319in" height="1.854in" version="1.1" style="shape-rendering:geometricPrecision; text-rendering:geometricPrecision; image-rendering:optimizeQuality; fill-rule:evenodd; clip-rule:evenodd"
viewBox="0 0 3319 1854"
 xmlns:xlink="http://www.w3.org/1999/xlink">
 <defs>
  <style type="text/css">
   <![CDATA[
    .str0 {stroke:white;stroke-width:6.92913}
    .fil1 {fill:none}
    .fil0 {fill:#373435}
   ]]>
  </style>
 </defs>
 <g id="Layer_x0020_1">
  <metadata id="CorelCorpID_0Corel-Layer"/>
  <path class="fil0" d="M900 560c13,-34 270,-307 295,-326 182,-143 526,-115 799,-116 160,0 222,-24 258,45 48,89 141,385 96,494 -70,53 -508,36 -625,38 -208,4 -423,20 -633,14l2 -116c-58,-23 -110,-36 -192,-33zm1885 -287c47,13 211,265 193,367 -56,18 -444,79 -448,-106 -40,-40 -128,-382 -128,-412 78,-14 171,-10 235,20 58,28 122,78 148,131zm-2785 1373c74,2 127,5 194,-11 44,-202 -36,-271 116,-448 83,-97 203,-189 401,-177 176,10 298,112 368,209 118,165 63,291 69,484 131,11 962,21 1023,-22 20,-53 -1,-178 7,-253 10,-84 37,-149 76,-205 213,-308 607,-249 764,-48 123,157 103,236 111,468 222,77 189,-260 187,-414 -152,-28 -85,36 -123,-265 -14,-107 -29,-228 -60,-327 -62,-196 -196,-354 -288,-502 -20,-33 -19,-29 -21,-68 -2,-54 62,-59 -218,-63 -128,-2 -260,-2 -388,1 -594,14 -840,-93 -1307,264 -138,105 -756,556 -834,732 -22,48 -25,104 -19,161 14,162 -75,17 -34,336 18,135 -3,57 -24,148z"/>
  <path class="fil0" d="M2576 1126c-483,125 -332,825 180,717 167,-36 313,-227 261,-444 -39,-166 -225,-329 -441,-273z"/>
  <path class="fil0" d="M613 1121c-450,87 -385,799 145,726 182,-25 330,-210 290,-433 -32,-175 -213,-336 -435,-293z"/>
  <path class="fil1 str0" d="M2517 507c29,65 25,65 25,65"/>
  <path class="fil1 str0" d="M2763 246c50,51 46,52 46,52"/>
 </g>
</svg>
