<?xml version="1.0" encoding="UTF-8"?>
<!DOCTYPE svg PUBLIC "-//W3C//DTD SVG 1.1//EN" "http://www.w3.org/Graphics/SVG/1.1/DTD/svg11.dtd">
<!-- Creator: CorelDRAW X7 -->
<svg xmlns="http://www.w3.org/2000/svg" xml:space="preserve" width="0.251in" height="0.094in" version="1.1" style="shape-rendering:geometricPrecision; text-rendering:geometricPrecision; image-rendering:optimizeQuality; fill-rule:evenodd; clip-rule:evenodd"
viewBox="0 0 251 94"
 xmlns:xlink="http://www.w3.org/1999/xlink">
 <defs>
  <style type="text/css">
   <![CDATA[
    .fil0 {fill:#2E3031}
    .fil1 {fill:#FEFEFE}
   ]]>
  </style>
 </defs>
 <g id="Layer_x0020_1">
  <metadata id="CorelCorpID_0Corel-Layer"/>
  <g id="_2369504446576">
   <path class="fil0" d="M222 58c0,0 -9,-10 -22,-10 -12,-1 -22,5 -26,22l-1 2 -99 0c0,0 -12,-13 1,-38 0,0 -8,18 0,36l95 0c0,0 4,-23 28,-24 0,0 14,1 18,5 0,0 16,-1 22,-5 -3,2 -6,5 -10,7 -5,3 13,2 20,1 -5,1 -18,5 -26,4zm-159 -29c0,0 33,-18 39,-20l2 0 -32 19c0,0 -6,1 -9,1zm67 12c0,0 -1,1 -1,1l-11 0c-1,0 -1,-1 -1,-1 0,-1 0,-1 1,-1l11 0c0,0 1,0 1,1zm4 28c0,-1 -7,-18 1,-36 0,0 -4,24 -1,36zm54 -31c0,1 -1,1 -1,1l-10 0c-1,0 -1,0 -1,-1 0,0 0,-1 1,-1l10 0c0,0 1,1 1,1zm2 -9c0,1 3,3 3,6 -1,4 -3,10 -4,11l2 -6c0,0 0,0 1,-4 1,-4 -2,-6 -2,-7zm-53 -23c8,0 55,1 69,2l0 0c1,0 2,0 2,0l1 0c0,0 0,0 0,0 0,0 0,0 0,0 0,0 0,0 0,0 1,0 1,0 1,0 0,0 1,0 1,0 0,0 0,0 0,0 0,0 0,0 0,0 0,0 0,0 0,0 0,0 1,0 1,0 0,0 0,1 0,1l0 0c0,0 0,0 0,0 1,0 1,1 2,1 1,0 1,1 1,1 4,3 9,7 9,9 0,2 -6,6 -6,6l-79 5 -63 1 7 -6c-2,4 1,4 3,4 1,0 3,-1 4,-4 0,-3 -2,-4 -2,-4 22,-16 39,-15 49,-16zm4 -5c4,0 59,0 59,0 0,0 4,1 5,2 -24,-1 -51,-1 -72,0 2,-1 5,-2 8,-2zm89 7c0,0 -2,2 -2,3 1,1 11,12 11,13l-16 -15 7 -1zm12 23l-15 0c0,0 -1,1 0,2 1,0 12,8 12,8l7 1 -7 0 -14 -9c0,0 -1,-2 1,-3 2,0 16,1 16,1zm4 4l-12 1 -2 -2 14 0 0 1zm0 3l0 2 -6 0 -2 -2 8 0zm-217 4l-13 8c-3,-1 -11,1 -11,1 2,-1 11,-2 11,-2 0,0 11,-6 11,-7 1,-2 0,-2 0,-2l-17 1c0,0 10,-2 16,-2 5,1 3,3 3,3zm-18 29c-1,0 -4,-1 -4,-1 0,0 -2,0 -2,-1 -1,-1 -3,-6 -3,-6 0,0 0,-1 0,-1l5 0c0,0 1,0 2,2 1,2 2,5 2,5 0,0 1,1 0,2zm13 -28l-7 5 -1 0 3 -5 5 0zm-12 -2l14 0 -1 1 -7 0 -4 4c0,0 -5,1 -8,3 0,0 3,-6 6,-8zm238 10c-1,-1 -3,-4 -3,-4 3,-16 -4,-19 -6,-23 -2,-4 -13,-12 -11,-14 3,-3 3,-3 3,-3 -7,-1 -15,-2 -24,-3 -1,-1 -4,-4 -7,-4 -4,0 -63,0 -63,0 0,0 -7,1 -9,3 -13,1 -22,3 -26,4 -12,4 -41,21 -41,21 -49,2 -54,13 -54,13 -4,5 -6,11 -6,11 0,0 -5,3 -2,10 2,8 7,14 7,14 2,1 2,5 2,5 3,2 12,1 12,1 0,0 -5,-32 22,-32 28,-1 25,27 25,27l107 0c0,0 -3,-28 24,-27 27,1 23,27 23,27 0,0 22,-5 26,-7 4,-4 2,-17 1,-19z"/>
   <path class="fil0" d="M206 8c0,0 0,0 0,0 0,0 0,0 0,0 0,0 0,0 0,0z"/>
   <path class="fil0" d="M218 26l0 0c0,0 0,0 0,0l0 0z"/>
   <path class="fil0" d="M202 23l-8 0 -7 -12 12 0 7 9 -4 3zm-27 4l-36 2 2 -21 33 0c0,0 5,6 5,10 0,3 -4,9 -4,9zm-43 -15c-1,3 -3,18 -3,18l-36 0c0,0 1,-1 -2,-3 0,0 0,-4 -1,-4 0,0 19,-15 42,-14 0,0 0,0 0,3zm91 7c0,-1 -1,-2 -2,-3 -1,-1 -3,-3 -5,-4 0,-1 -1,-2 -2,-2 -1,-1 -1,-1 -2,-1 0,0 0,0 0,0l0 0c0,0 0,-1 0,-1 0,0 -1,0 -1,0 0,0 0,0 0,0 0,0 0,0 0,0 0,0 0,0 0,0 0,0 -1,0 -1,0 0,0 0,0 -1,0 1,0 1,0 1,0 -2,0 -5,0 -7,0l-8 -1c-5,0 -10,0 -16,0 -10,0 -21,-1 -31,-1 -3,0 -6,0 -8,1 -3,0 -6,0 -8,0 -3,0 -6,0 -8,1 -1,0 -3,0 -4,0 -1,0 -2,1 -4,1l-2 1c0,0 -1,0 -2,0 0,0 -1,1 -1,1l-2 0c-2,1 -3,1 -4,2 -1,1 -2,1 -3,2 -2,0 -3,1 -4,1l-2 2 -1 1c-2,1 -4,2 -6,3 0,1 0,1 0,1 0,0 0,0 1,0 0,0 0,1 0,1 0,0 0,0 0,0l0 1c0,0 0,1 0,1l0 0c0,1 0,1 0,1 0,0 0,0 0,0 0,1 0,1 0,1 -1,1 -1,1 -1,1 -1,1 -1,1 -1,1 -1,0 -1,0 -1,0 -1,0 -1,0 -2,1 0,0 -1,0 -2,-1 0,0 -1,0 -1,-1 0,0 0,-1 0,-1l0 0 -4 3c6,0 11,0 16,0l18 0 17 -1 9 0c3,0 6,0 9,0l35 -2 18 -1 18 -1c1,0 2,-1 2,-2 1,-1 2,-1 3,-2 0,-1 0,-1 1,-1 0,-1 0,-1 0,-1 0,-1 0,-1 -1,-1z"/>
   <path class="fil1" d="M206 8c0,0 0,0 0,0 0,0 0,0 0,0 0,0 0,0 0,0zm6 1c0,0 0,-1 0,-1 0,0 0,1 0,1 0,0 0,0 0,0 0,0 0,0 0,0z"/>
   <path class="fil0" d="M216 12c0,0 0,0 0,0 0,0 1,0 1,0 0,0 0,0 -1,0z"/>
   <path class="fil0" d="M206 8c0,0 0,0 0,0 0,0 0,0 0,0 0,0 0,0 0,0z"/>
   <path class="fil0" d="M216 11c-1,0 -1,-1 -2,-1 1,0 1,1 2,1z"/>
   <path class="fil0" d="M238 46c1,-1 1,-1 1,-1 0,0 -1,1 -1,1z"/>
   <path class="fil0" d="M7 69c0,0 -1,-1 -2,-3 0,-1 0,-3 1,-3 1,0 2,1 2,3 1,1 0,3 -1,3z"/>
   <path class="fil0" d="M46 75l0 0 0 0c0,0 0,0 0,0zm0 0l0 0 0 0c0,0 0,0 0,0zm0 0l0 0 0 0c0,0 0,0 0,0zm0 0l0 0 0 0c0,0 0,0 0,0zm0 0l0 0 0 0c0,0 0,0 0,0zm0 0l0 0 0 0c0,0 0,0 0,0zm0 0l0 0 0 0c0,0 0,0 0,0zm0 0l0 0 0 0c0,0 0,0 0,0zm0 0l0 0 0 0c0,0 0,0 0,0zm0 0l0 0 0 0c0,0 0,0 0,0zm-3 -3c-10,-4 -10,-7 -10,-8 -3,2 -4,6 -4,9 0,1 0,3 1,4 0,-1 3,-4 12,-4 0,0 0,0 0,0 0,0 1,-1 1,-1zm1 3c0,0 -1,0 -1,0 -7,6 -10,6 -12,6 3,4 7,7 11,7 0,-1 -2,-4 2,-13zm2 0l0 0 0 0c0,0 0,0 0,0zm-1 -17c-3,0 -5,0 -7,1 1,1 4,3 6,12 0,0 0,0 1,0 0,0 0,0 0,0 2,-10 5,-12 6,-12 -1,-1 -4,-1 -6,-1zm2 17c-1,0 -1,0 -1,0 4,8 4,12 3,13 4,-1 8,-4 10,-9 -1,1 -4,1 -12,-4zm9 -12c0,1 -1,4 -9,9 0,0 0,0 0,1 10,-1 12,1 13,2 0,0 0,-1 0,-2 0,-4 -1,-8 -4,-10zm-9 12c-1,0 -1,0 -1,0 4,8 4,12 3,13 4,-1 8,-4 10,-9 -1,1 -4,1 -12,-4zm-2 -17c-3,0 -5,0 -7,1 1,1 4,3 6,12 0,0 0,0 1,0 0,0 0,0 0,0 2,-10 5,-12 6,-12 -1,-1 -4,-1 -6,-1zm1 17l0 0 0 0c0,0 0,0 0,0zm-2 0c0,0 -1,0 -1,0 -7,6 -10,6 -12,6 3,4 7,7 11,7 0,-1 -2,-4 2,-13zm-1 -3c-10,-4 -10,-7 -10,-8 -3,2 -4,6 -4,9 0,1 0,3 1,4 0,-1 3,-4 12,-4 0,0 0,0 0,0 0,0 1,-1 1,-1zm13 -9c0,1 -1,4 -9,9 0,0 0,0 0,1 10,-1 12,1 13,2 0,0 0,-1 0,-2 0,-4 -1,-8 -4,-10zm-13 9c-10,-4 -10,-7 -10,-8 -3,2 -4,6 -4,9 0,1 0,3 1,4 0,-1 3,-4 12,-4 0,0 0,0 0,0 0,0 1,-1 1,-1zm1 3c0,0 -1,0 -1,0 -7,6 -10,6 -12,6 3,4 7,7 11,7 0,-1 -2,-4 2,-13zm2 0l0 0 0 0c0,0 0,0 0,0zm-1 -17c-3,0 -5,0 -7,1 1,1 4,3 6,12 0,0 0,0 1,0 0,0 0,0 0,0 2,-10 5,-12 6,-12 -1,-1 -4,-1 -6,-1zm2 17c-1,0 -1,0 -1,0 4,8 4,12 3,13 4,-1 8,-4 10,-9 -1,1 -4,1 -12,-4zm9 -12c0,1 -1,4 -9,9 0,0 0,0 0,1 10,-1 12,1 13,2 0,0 0,-1 0,-2 0,-4 -1,-8 -4,-10zm-9 12c-1,0 -1,0 -1,0 4,8 4,12 3,13 4,-1 8,-4 10,-9 -1,1 -4,1 -12,-4zm-2 -17c-3,0 -5,0 -7,1 1,1 4,3 6,12 0,0 0,0 1,0 0,0 0,0 0,0 2,-10 5,-12 6,-12 -1,-1 -4,-1 -6,-1zm1 17l0 0 0 0c0,0 0,0 0,0zm-2 0c0,0 -1,0 -1,0 -7,6 -10,6 -12,6 3,4 7,7 11,7 0,-1 -2,-4 2,-13zm-1 -3c-10,-4 -10,-7 -10,-8 -3,2 -4,6 -4,9 0,1 0,3 1,4 0,-1 3,-4 12,-4 0,0 0,0 0,0 0,0 1,-1 1,-1zm13 -9c0,1 -1,4 -9,9 0,0 0,0 0,1 10,-1 12,1 13,2 0,0 0,-1 0,-2 0,-4 -1,-8 -4,-10zm-13 9c-10,-4 -10,-7 -10,-8 -3,2 -4,6 -4,9 0,1 0,3 1,4 0,-1 3,-4 12,-4 0,0 0,0 0,0 0,0 1,-1 1,-1zm1 3c0,0 -1,0 -1,0 -7,6 -10,6 -12,6 3,4 7,7 11,7 0,-1 -2,-4 2,-13zm2 0l0 0 0 0c0,0 0,0 0,0zm-1 -17c-3,0 -5,0 -7,1 1,1 4,3 6,12 0,0 0,0 1,0 0,0 0,0 0,0 2,-10 5,-12 6,-12 -1,-1 -4,-1 -6,-1zm2 17c-1,0 -1,0 -1,0 4,8 4,12 3,13 4,-1 8,-4 10,-9 -1,1 -4,1 -12,-4zm9 -12c0,1 -1,4 -9,9 0,0 0,0 0,1 10,-1 12,1 13,2 0,0 0,-1 0,-2 0,-4 -1,-8 -4,-10zm-9 12c-1,0 -1,0 -1,0 4,8 4,12 3,13 4,-1 8,-4 10,-9 -1,1 -4,1 -12,-4zm-2 -17c-3,0 -5,0 -7,1 1,1 4,3 6,12 0,0 0,0 1,0 0,0 0,0 0,0 2,-10 5,-12 6,-12 -1,-1 -4,-1 -6,-1zm1 17l0 0 0 0c0,0 0,0 0,0zm-2 0c0,0 -1,0 -1,0 -7,6 -10,6 -12,6 3,4 7,7 11,7 0,-1 -2,-4 2,-13zm-1 -3c-10,-4 -10,-7 -10,-8 -3,2 -4,6 -4,9 0,1 0,3 1,4 0,-1 3,-4 12,-4 0,0 0,0 0,0 0,0 1,-1 1,-1zm13 -9c0,1 -1,4 -9,9 0,0 0,0 0,1 10,-1 12,1 13,2 0,0 0,-1 0,-2 0,-4 -1,-8 -4,-10zm-13 9c-10,-4 -10,-7 -10,-8 -3,2 -4,6 -4,9 0,1 0,3 1,4 0,-1 3,-4 12,-4 0,0 0,0 0,0 0,0 1,-1 1,-1zm1 3c0,0 -1,0 -1,0 -7,6 -10,6 -12,6 3,4 7,7 11,7 0,-1 -2,-4 2,-13zm2 0l0 0 0 0c0,0 0,0 0,0zm-1 -17c-3,0 -5,0 -7,1 1,1 4,3 6,12 0,0 0,0 1,0 0,0 0,0 0,0 2,-10 5,-12 6,-12 -1,-1 -4,-1 -6,-1zm2 17c-1,0 -1,0 -1,0 4,8 4,12 3,13 4,-1 8,-4 10,-9 -1,1 -4,1 -12,-4zm9 -12c0,1 -1,4 -9,9 0,0 0,0 0,1 10,-1 12,1 13,2 0,0 0,-1 0,-2 0,-4 -1,-8 -4,-10zm-9 12c-1,0 -1,0 -1,0 4,8 4,12 3,13 4,-1 8,-4 10,-9 -1,1 -4,1 -12,-4zm-2 -17c-3,0 -5,0 -7,1 1,1 4,3 6,12 0,0 0,0 1,0 0,0 0,0 0,0 2,-10 5,-12 6,-12 -1,-1 -4,-1 -6,-1zm1 17l0 0 0 0c0,0 0,0 0,0zm-2 0c0,0 -1,0 -1,0 -7,6 -10,6 -12,6 3,4 7,7 11,7 0,-1 -2,-4 2,-13zm-1 -3c-10,-4 -10,-7 -10,-8 -3,2 -4,6 -4,9 0,1 0,3 1,4 0,-1 3,-4 12,-4 0,0 0,0 0,0 0,0 1,-1 1,-1zm13 -9c0,1 -1,4 -9,9 0,0 0,0 0,1 10,-1 12,1 13,2 0,0 0,-1 0,-2 0,-4 -1,-8 -4,-10zm-13 9c-10,-4 -10,-7 -10,-8 -3,2 -4,6 -4,9 0,1 0,3 1,4 0,-1 3,-4 12,-4 0,0 0,0 0,0 0,0 1,-1 1,-1zm1 3c0,0 -1,0 -1,0 -7,6 -10,6 -12,6 3,4 7,7 11,7 0,-1 -2,-4 2,-13zm2 0l0 0 0 0c0,0 0,0 0,0zm-1 -17c-3,0 -5,0 -7,1 1,1 4,3 6,12 0,0 0,0 1,0 0,0 0,0 0,0 2,-10 5,-12 6,-12 -1,-1 -4,-1 -6,-1zm2 17c-1,0 -1,0 -1,0 4,8 4,12 3,13 4,-1 8,-4 10,-9 -1,1 -4,1 -12,-4zm9 -12c0,1 -1,4 -9,9 0,0 0,0 0,1 10,-1 12,1 13,2 0,0 0,-1 0,-2 0,-4 -1,-8 -4,-10zm-9 12c-1,0 -1,0 -1,0 4,8 4,12 3,13 4,-1 8,-4 10,-9 -1,1 -4,1 -12,-4zm-2 -17c-3,0 -5,0 -7,1 1,1 4,3 6,12 0,0 0,0 1,0 0,0 0,0 0,0 2,-10 5,-12 6,-12 -1,-1 -4,-1 -6,-1zm1 17l0 0 0 0c0,0 0,0 0,0zm-2 0c0,0 -1,0 -1,0 -7,6 -10,6 -12,6 3,4 7,7 11,7 0,-1 -2,-4 2,-13zm-1 -3c-10,-4 -10,-7 -10,-8 -3,2 -4,6 -4,9 0,1 0,3 1,4 0,-1 3,-4 12,-4 0,0 0,0 0,0 0,0 1,-1 1,-1zm13 -9c0,1 -1,4 -9,9 0,0 0,0 0,1 10,-1 12,1 13,2 0,0 0,-1 0,-2 0,-4 -1,-8 -4,-10zm-13 9c-10,-4 -10,-7 -10,-8 -3,2 -4,6 -4,9 0,1 0,3 1,4 0,-1 3,-4 12,-4 0,0 0,0 0,0 0,0 1,-1 1,-1zm1 3c0,0 -1,0 -1,0 -7,6 -10,6 -12,6 3,4 7,7 11,7 0,-1 -2,-4 2,-13zm2 0l0 0 0 0c0,0 0,0 0,0zm-1 -17c-3,0 -5,0 -7,1 1,1 4,3 6,12 0,0 0,0 1,0 0,0 0,0 0,0 2,-10 5,-12 6,-12 -1,-1 -4,-1 -6,-1zm2 17c-1,0 -1,0 -1,0 4,8 4,12 3,13 4,-1 8,-4 10,-9 -1,1 -4,1 -12,-4zm9 -12c0,1 -1,4 -9,9 0,0 0,0 0,1 10,-1 12,1 13,2 0,0 0,-1 0,-2 0,-4 -1,-8 -4,-10zm-9 12c-1,0 -1,0 -1,0 4,8 4,12 3,13 4,-1 8,-4 10,-9 -1,1 -4,1 -12,-4zm-2 -17c-3,0 -5,0 -7,1 1,1 4,3 6,12 0,0 0,0 1,0 0,0 0,0 0,0 2,-10 5,-12 6,-12 -1,-1 -4,-1 -6,-1zm1 17l0 0 0 0c0,0 0,0 0,0zm-2 0c0,0 -1,0 -1,0 -7,6 -10,6 -12,6 3,4 7,7 11,7 0,-1 -2,-4 2,-13zm-1 -3c-10,-4 -10,-7 -10,-8 -3,2 -4,6 -4,9 0,1 0,3 1,4 0,-1 3,-4 12,-4 0,0 0,0 0,0 0,0 1,-1 1,-1zm13 -9c0,1 -1,4 -9,9 0,0 0,0 0,1 10,-1 12,1 13,2 0,0 0,-1 0,-2 0,-4 -1,-8 -4,-10zm-14 10c0,0 1,-1 1,-1 -10,-4 -10,-7 -10,-8 -3,2 -4,6 -4,9 0,1 0,3 1,4 0,-1 3,-4 12,-4 0,0 0,0 0,0zm1 2c-7,6 -10,6 -12,6 3,4 7,7 11,7 0,-1 -2,-4 2,-13 0,0 -1,0 -1,0zm3 0l0 0c0,0 0,0 0,0l0 0zm5 -16c-1,-1 -4,-1 -6,-1 -3,0 -5,0 -7,1 1,1 4,3 6,12 0,0 0,0 1,0 0,0 0,0 0,0 2,-10 5,-12 6,-12zm-4 16c-1,0 -1,0 -1,0 4,8 4,12 3,13 4,-1 8,-4 10,-9 -1,1 -4,1 -12,-4zm-2 14c-9,0 -17,-7 -17,-16 0,-9 8,-16 17,-16 9,0 16,7 16,16 0,9 -7,16 -16,16zm0 -36c-11,0 -21,9 -21,20 0,11 10,20 21,20 11,0 20,-9 20,-20 0,-11 -9,-20 -20,-20zm11 10c0,1 -1,4 -9,9 0,0 0,0 0,1 10,-1 12,1 13,2 0,0 0,-1 0,-2 0,-4 -1,-8 -4,-10zm-14 10c0,0 1,-1 1,-1 -10,-4 -10,-7 -10,-8 -3,2 -4,6 -4,9 0,1 0,3 1,4 0,-1 3,-4 12,-4 0,0 0,0 0,0zm1 2c-7,6 -10,6 -12,6 3,4 7,7 11,7 0,-1 -2,-4 2,-13 0,0 -1,0 -1,0zm3 0l0 0c0,0 0,0 0,0l0 0zm5 -16c-1,-1 -4,-1 -6,-1 -3,0 -5,0 -7,1 1,1 4,3 6,12 0,0 0,0 1,0 0,0 0,0 0,0 2,-10 5,-12 6,-12zm-4 16c-1,0 -1,0 -1,0 4,8 4,12 3,13 4,-1 8,-4 10,-9 -1,1 -4,1 -12,-4zm9 -12c0,1 -1,4 -9,9 0,0 0,0 0,1 10,-1 12,1 13,2 0,0 0,-1 0,-2 0,-4 -1,-8 -4,-10zm-9 12c-1,0 -1,0 -1,0 4,8 4,12 3,13 4,-1 8,-4 10,-9 -1,1 -4,1 -12,-4zm-2 -17c-3,0 -5,0 -7,1 1,1 4,3 6,12 0,0 0,0 1,0 0,0 0,0 0,0 2,-10 5,-12 6,-12 -1,-1 -4,-1 -6,-1zm1 17l0 0 0 0c0,0 0,0 0,0zm-2 0c0,0 -1,0 -1,0 -7,6 -10,6 -12,6 3,4 7,7 11,7 0,-1 -2,-4 2,-13zm-1 -3c-10,-4 -10,-7 -10,-8 -3,2 -4,6 -4,9 0,1 0,3 1,4 0,-1 3,-4 12,-4 0,0 0,0 0,0 0,0 1,-1 1,-1zm13 -9c0,1 -1,4 -9,9 0,0 0,0 0,1 10,-1 12,1 13,2 0,0 0,-1 0,-2 0,-4 -1,-8 -4,-10zm-13 9c-10,-4 -10,-7 -10,-8 -3,2 -4,6 -4,9 0,1 0,3 1,4 0,-1 3,-4 12,-4 0,0 0,0 0,0 0,0 1,-1 1,-1zm1 3c0,0 -1,0 -1,0 -7,6 -10,6 -12,6 3,4 7,7 11,7 0,-1 -2,-4 2,-13zm2 0l0 0 0 0c0,0 0,0 0,0zm-1 -17c-3,0 -5,0 -7,1 1,1 4,3 6,12 0,0 0,0 1,0 0,0 0,0 0,0 2,-10 5,-12 6,-12 -1,-1 -4,-1 -6,-1zm2 17c-1,0 -1,0 -1,0 4,8 4,12 3,13 4,-1 8,-4 10,-9 -1,1 -4,1 -12,-4zm9 -12c0,1 -1,4 -9,9 0,0 0,0 0,1 10,-1 12,1 13,2 0,0 0,-1 0,-2 0,-4 -1,-8 -4,-10zm-9 12c-1,0 -1,0 -1,0 4,8 4,12 3,13 4,-1 8,-4 10,-9 -1,1 -4,1 -12,-4zm-2 -17c-3,0 -5,0 -7,1 1,1 4,3 6,12 0,0 0,0 1,0 0,0 0,0 0,0 2,-10 5,-12 6,-12 -1,-1 -4,-1 -6,-1zm1 17l0 0 0 0c0,0 0,0 0,0zm-2 0c0,0 -1,0 -1,0 -7,6 -10,6 -12,6 3,4 7,7 11,7 0,-1 -2,-4 2,-13zm-1 -3c-10,-4 -10,-7 -10,-8 -3,2 -4,6 -4,9 0,1 0,3 1,4 0,-1 3,-4 12,-4 0,0 0,0 0,0 0,0 1,-1 1,-1zm13 -9c0,1 -1,4 -9,9 0,0 0,0 0,1 10,-1 12,1 13,2 0,0 0,-1 0,-2 0,-4 -1,-8 -4,-10zm-13 9c-10,-4 -10,-7 -10,-8 -3,2 -4,6 -4,9 0,1 0,3 1,4 0,-1 3,-4 12,-4 0,0 0,0 0,0 0,0 1,-1 1,-1zm1 3c0,0 -1,0 -1,0 -7,6 -10,6 -12,6 3,4 7,7 11,7 0,-1 -2,-4 2,-13zm2 0l0 0 0 0c0,0 0,0 0,0zm-1 -17c-3,0 -5,0 -7,1 1,1 4,3 6,12 0,0 0,0 1,0 0,0 0,0 0,0 2,-10 5,-12 6,-12 -1,-1 -4,-1 -6,-1zm2 17c-1,0 -1,0 -1,0 4,8 4,12 3,13 4,-1 8,-4 10,-9 -1,1 -4,1 -12,-4zm9 -12c0,1 -1,4 -9,9 0,0 0,0 0,1 10,-1 12,1 13,2 0,0 0,-1 0,-2 0,-4 -1,-8 -4,-10zm-9 12c-1,0 -1,0 -1,0 4,8 4,12 3,13 4,-1 8,-4 10,-9 -1,1 -4,1 -12,-4zm-2 -17c-3,0 -5,0 -7,1 1,1 4,3 6,12 0,0 0,0 1,0 0,0 0,0 0,0 2,-10 5,-12 6,-12 -1,-1 -4,-1 -6,-1zm1 17l0 0 0 0c0,0 0,0 0,0zm-2 0c0,0 -1,0 -1,0 -7,6 -10,6 -12,6 3,4 7,7 11,7 0,-1 -2,-4 2,-13zm-1 -3c-10,-4 -10,-7 -10,-8 -3,2 -4,6 -4,9 0,1 0,3 1,4 0,-1 3,-4 12,-4 0,0 0,0 0,0 0,0 1,-1 1,-1zm13 -9c0,1 -1,4 -9,9 0,0 0,0 0,1 10,-1 12,1 13,2 0,0 0,-1 0,-2 0,-4 -1,-8 -4,-10zm-13 9c-10,-4 -10,-7 -10,-8 -3,2 -4,6 -4,9 0,1 0,3 1,4 0,-1 3,-4 12,-4 0,0 0,0 0,0 0,0 1,-1 1,-1zm1 3c0,0 -1,0 -1,0 -7,6 -10,6 -12,6 3,4 7,7 11,7 0,-1 -2,-4 2,-13zm2 0l0 0 0 0c0,0 0,0 0,0zm-1 -17c-3,0 -5,0 -7,1 1,1 4,3 6,12 0,0 0,0 1,0 0,0 0,0 0,0 2,-10 5,-12 6,-12 -1,-1 -4,-1 -6,-1zm2 17c-1,0 -1,0 -1,0 4,8 4,12 3,13 4,-1 8,-4 10,-9 -1,1 -4,1 -12,-4zm9 -12c0,1 -1,4 -9,9 0,0 0,0 0,1 10,-1 12,1 13,2 0,0 0,-1 0,-2 0,-4 -1,-8 -4,-10zm-9 12c-1,0 -1,0 -1,0 4,8 4,12 3,13 4,-1 8,-4 10,-9 -1,1 -4,1 -12,-4zm-2 -17c-3,0 -5,0 -7,1 1,1 4,3 6,12 0,0 0,0 1,0 0,0 0,0 0,0 2,-10 5,-12 6,-12 -1,-1 -4,-1 -6,-1zm1 17l0 0 0 0c0,0 0,0 0,0zm-2 0c0,0 -1,0 -1,0 -7,6 -10,6 -12,6 3,4 7,7 11,7 0,-1 -2,-4 2,-13zm-1 -3c-10,-4 -10,-7 -10,-8 -3,2 -4,6 -4,9 0,1 0,3 1,4 0,-1 3,-4 12,-4 0,0 0,0 0,0 0,0 1,-1 1,-1zm13 -9c0,1 -1,4 -9,9 0,0 0,0 0,1 10,-1 12,1 13,2 0,0 0,-1 0,-2 0,-4 -1,-8 -4,-10zm-13 9c-10,-4 -10,-7 -10,-8 -3,2 -4,6 -4,9 0,1 0,3 1,4 0,-1 3,-4 12,-4 0,0 0,0 0,0 0,0 1,-1 1,-1zm1 3c0,0 -1,0 -1,0 -7,6 -10,6 -12,6 3,4 7,7 11,7 0,-1 -2,-4 2,-13zm2 0l0 0 0 0c0,0 0,0 0,0zm-1 -17c-3,0 -5,0 -7,1 1,1 4,3 6,12 0,0 0,0 1,0 0,0 0,0 0,0 2,-10 5,-12 6,-12 -1,-1 -4,-1 -6,-1zm2 17c-1,0 -1,0 -1,0 4,8 4,12 3,13 4,-1 8,-4 10,-9 -1,1 -4,1 -12,-4zm9 -12c0,1 -1,4 -9,9 0,0 0,0 0,1 10,-1 12,1 13,2 0,0 0,-1 0,-2 0,-4 -1,-8 -4,-10zm-9 12c-1,0 -1,0 -1,0 4,8 4,12 3,13 4,-1 8,-4 10,-9 -1,1 -4,1 -12,-4zm-2 -17c-3,0 -5,0 -7,1 1,1 4,3 6,12 0,0 0,0 1,0 0,0 0,0 0,0 2,-10 5,-12 6,-12 -1,-1 -4,-1 -6,-1zm1 17l0 0 0 0c0,0 0,0 0,0zm-2 0c0,0 -1,0 -1,0 -7,6 -10,6 -12,6 3,4 7,7 11,7 0,-1 -2,-4 2,-13zm-1 -3c-10,-4 -10,-7 -10,-8 -3,2 -4,6 -4,9 0,1 0,3 1,4 0,-1 3,-4 12,-4 0,0 0,0 0,0 0,0 1,-1 1,-1zm13 -9c0,1 -1,4 -9,9 0,0 0,0 0,1 10,-1 12,1 13,2 0,0 0,-1 0,-2 0,-4 -1,-8 -4,-10zm-13 9c-10,-4 -10,-7 -10,-8 -3,2 -4,6 -4,9 0,1 0,3 1,4 0,-1 3,-4 12,-4 0,0 0,0 0,0 0,0 1,-1 1,-1zm1 3c0,0 -1,0 -1,0 -7,6 -10,6 -12,6 3,4 7,7 11,7 0,-1 -2,-4 2,-13zm2 0l0 0 0 0c0,0 0,0 0,0zm-1 -17c-3,0 -5,0 -7,1 1,1 4,3 6,12 0,0 0,0 1,0 0,0 0,0 0,0 2,-10 5,-12 6,-12 -1,-1 -4,-1 -6,-1zm2 17c-1,0 -1,0 -1,0 4,8 4,12 3,13 4,-1 8,-4 10,-9 -1,1 -4,1 -12,-4zm9 -12c0,1 -1,4 -9,9 0,0 0,0 0,1 10,-1 12,1 13,2 0,0 0,-1 0,-2 0,-4 -1,-8 -4,-10zm-9 12c-1,0 -1,0 -1,0 4,8 4,12 3,13 4,-1 8,-4 10,-9 -1,1 -4,1 -12,-4zm-2 -17c-3,0 -5,0 -7,1 1,1 4,3 6,12 0,0 0,0 1,0 0,0 0,0 0,0 2,-10 5,-12 6,-12 -1,-1 -4,-1 -6,-1zm1 17l0 0 0 0c0,0 0,0 0,0zm-2 0c0,0 -1,0 -1,0 -7,6 -10,6 -12,6 3,4 7,7 11,7 0,-1 -2,-4 2,-13zm-1 -3c-10,-4 -10,-7 -10,-8 -3,2 -4,6 -4,9 0,1 0,3 1,4 0,-1 3,-4 12,-4 0,0 0,0 0,0 0,0 1,-1 1,-1zm13 -9c0,1 -1,4 -9,9 0,0 0,0 0,1 10,-1 12,1 13,2 0,0 0,-1 0,-2 0,-4 -1,-8 -4,-10zm-10 12l0 0 0 0c0,0 0,0 0,0zm0 0l0 0 0 0c0,0 0,0 0,0zm0 0l0 0 0 0c0,0 0,0 0,0zm0 0l0 0 0 0c0,0 0,0 0,0zm0 0l0 0 0 0c0,0 0,0 0,0zm0 0l0 0 0 0c0,0 0,0 0,0zm0 0l0 0 0 0c0,0 0,0 0,0zm0 0l0 0 0 0c0,0 0,0 0,0zm0 0l0 0 0 0c0,0 0,0 0,0zm0 0l0 0 0 0c0,0 0,0 0,0z"/>
   <path class="fil0" d="M42 73c0,0 0,0 0,0 -9,0 -12,3 -12,4 -1,-1 -1,-3 -1,-4 0,-3 1,-7 4,-9 0,1 0,4 10,8 0,0 -1,1 -1,1z"/>
   <path class="fil0" d="M42 88c-4,0 -8,-3 -11,-7 2,0 5,0 12,-6 0,0 1,0 1,0 -4,9 -2,12 -2,13z"/>
   <path class="fil0" d="M46 75l0 0 0 0c0,0 0,0 0,0z"/>
   <path class="fil0" d="M51 59c-1,0 -4,2 -6,12 0,0 0,0 0,0 -1,0 -1,0 -1,0 -2,-9 -5,-11 -6,-12 2,-1 4,-1 7,-1 2,0 5,0 6,1z"/>
   <path class="fil0" d="M59 79c-2,5 -6,8 -10,9 1,-1 1,-5 -3,-13 0,0 0,0 1,0 8,5 11,5 12,4z"/>
   <path class="fil0" d="M60 73c0,1 0,2 0,2 -1,-1 -3,-3 -13,-2 0,-1 0,-1 0,-1 8,-5 9,-8 9,-9 3,2 4,6 4,10z"/>
   <path class="fil0" d="M46 75l0 0 0 0c0,0 0,0 0,0zm0 0l0 0 0 0c0,0 0,0 0,0zm0 0l0 0 0 0c0,0 0,0 0,0zm0 0l0 0 0 0c0,0 0,0 0,0zm0 0l0 0 0 0c0,0 0,0 0,0zm0 0l0 0 0 0c0,0 0,0 0,0zm0 0l0 0 0 0c0,0 0,0 0,0zm0 0l0 0 0 0c0,0 0,0 0,0zm0 0l0 0 0 0c0,0 0,0 0,0zm0 0l0 0 0 0c0,0 0,0 0,0zm-3 -3c-10,-4 -10,-7 -10,-8 -3,2 -4,6 -4,9 0,1 0,3 1,4 0,-1 3,-4 12,-4 0,0 0,0 0,0 0,0 1,-1 1,-1zm1 3c0,0 -1,0 -1,0 -7,6 -10,6 -12,6 3,4 7,7 11,7 0,-1 -2,-4 2,-13zm2 0l0 0 0 0c0,0 0,0 0,0zm-1 -17c-3,0 -5,0 -7,1 1,1 4,3 6,12 0,0 0,0 1,0 0,0 0,0 0,0 2,-10 5,-12 6,-12 -1,-1 -4,-1 -6,-1zm2 17c-1,0 -1,0 -1,0 4,8 4,12 3,13 4,-1 8,-4 10,-9 -1,1 -4,1 -12,-4zm9 -12c0,1 -1,4 -9,9 0,0 0,0 0,1 10,-1 12,1 13,2 0,0 0,-1 0,-2 0,-4 -1,-8 -4,-10zm-10 12l0 0 0 0c0,0 0,0 0,0zm0 0l0 0 0 0c0,0 0,0 0,0zm0 0l0 0 0 0c0,0 0,0 0,0zm0 0l0 0 0 0c0,0 0,0 0,0zm0 0l0 0 0 0c0,0 0,0 0,0zm0 0l0 0 0 0c0,0 0,0 0,0zm0 0l0 0 0 0c0,0 0,0 0,0zm0 0l0 0 0 0c0,0 0,0 0,0zm0 0l0 0 0 0c0,0 0,0 0,0zm0 0l0 0 0 0c0,0 0,0 0,0z"/>
   <path class="fil0" d="M47 73c0,1 0,1 0,2 0,0 0,0 0,0 -1,0 -1,0 -1,0 0,0 0,0 0,0l0 0c-1,0 -1,0 -1,0 -1,0 -1,0 -1,0 0,0 0,0 0,0 0,0 -1,0 -1,0 0,0 0,0 0,0 0,-1 0,-1 0,-2 -1,0 -1,0 -1,0 0,0 0,0 0,0 0,0 1,-1 1,-1 0,0 0,0 0,0 0,-1 0,-1 1,-1 0,0 0,0 0,0 0,0 0,0 1,0 0,0 0,0 0,0 0,0 0,0 0,0 1,0 1,0 2,1 0,0 0,0 0,0 0,0 0,0 0,1 0,0 0,0 0,0l0 0c0,0 0,0 0,0z"/>
   <path class="fil0" d="M46 75l0 0 0 0c0,0 0,0 0,0z"/>
   <path class="fil0" d="M46 75l0 0 0 0c0,0 0,0 0,0z"/>
   <path class="fil0" d="M200 76l0 0 0 0c0,0 0,0 0,0zm0 0l0 0 0 0c0,0 0,0 0,0zm0 0l0 0 0 0c0,0 0,0 0,0zm0 0l0 0 0 0c0,0 0,0 0,0zm0 0l0 0 0 0c0,0 0,0 0,0zm0 0l0 0 0 0c0,0 0,0 0,0zm0 0l0 0 0 0c0,0 0,0 0,0zm0 0l0 0 0 0c0,0 0,0 0,0zm0 0l0 0 0 0c0,0 0,0 0,0zm0 0l0 0 0 0c0,0 0,0 0,0zm-3 -3c-10,-4 -10,-8 -10,-9 -2,3 -3,6 -3,10 0,1 0,2 0,3 1,-1 3,-3 13,-3 0,0 0,0 0,0 0,-1 0,-1 0,-1zm1 3c0,0 0,0 -1,-1 -7,7 -10,7 -11,6 2,4 6,7 11,8 -1,-1 -2,-4 1,-13zm2 0l0 0 0 0c0,0 0,0 0,0zm-1 -18c-3,0 -5,1 -7,2 1,0 4,2 6,11 1,0 1,0 1,0 0,0 0,0 0,0 2,-10 6,-11 7,-11 -2,-1 -5,-2 -7,-2zm2 17c-1,1 -1,1 -1,1 4,8 4,11 3,13 5,-2 8,-5 10,-9 -1,0 -4,1 -12,-5zm9 -12c0,1 -1,5 -9,9 0,1 0,1 0,1 10,0 12,2 13,3 0,-1 0,-2 0,-2 0,-4 -1,-8 -4,-11zm-9 12c-1,1 -1,1 -1,1 4,8 4,11 3,13 5,-2 8,-5 10,-9 -1,0 -4,1 -12,-5zm-2 -17c-3,0 -5,1 -7,2 1,0 4,2 6,11 1,0 1,0 1,0 0,0 0,0 0,0 2,-10 6,-11 7,-11 -2,-1 -5,-2 -7,-2zm1 18l0 0 0 0c0,0 0,0 0,0zm-2 0c0,0 0,0 -1,-1 -7,7 -10,7 -11,6 2,4 6,7 11,8 -1,-1 -2,-4 1,-13zm-1 -3c-10,-4 -10,-8 -10,-9 -2,3 -3,6 -3,10 0,1 0,2 0,3 1,-1 3,-3 13,-3 0,0 0,0 0,0 0,-1 0,-1 0,-1zm13 -10c0,1 -1,5 -9,9 0,1 0,1 0,1 10,0 12,2 13,3 0,-1 0,-2 0,-2 0,-4 -1,-8 -4,-11zm-13 10c-10,-4 -10,-8 -10,-9 -2,3 -3,6 -3,10 0,1 0,2 0,3 1,-1 3,-3 13,-3 0,0 0,0 0,0 0,-1 0,-1 0,-1zm1 3c0,0 0,0 -1,-1 -7,7 -10,7 -11,6 2,4 6,7 11,8 -1,-1 -2,-4 1,-13zm2 0l0 0 0 0c0,0 0,0 0,0zm-1 -18c-3,0 -5,1 -7,2 1,0 4,2 6,11 1,0 1,0 1,0 0,0 0,0 0,0 2,-10 6,-11 7,-11 -2,-1 -5,-2 -7,-2zm2 17c-1,1 -1,1 -1,1 4,8 4,11 3,13 5,-2 8,-5 10,-9 -1,0 -4,1 -12,-5zm9 -12c0,1 -1,5 -9,9 0,1 0,1 0,1 10,0 12,2 13,3 0,-1 0,-2 0,-2 0,-4 -1,-8 -4,-11zm-9 12c-1,1 -1,1 -1,1 4,8 4,11 3,13 5,-2 8,-5 10,-9 -1,0 -4,1 -12,-5zm-2 -17c-3,0 -5,1 -7,2 1,0 4,2 6,11 1,0 1,0 1,0 0,0 0,0 0,0 2,-10 6,-11 7,-11 -2,-1 -5,-2 -7,-2zm1 18l0 0 0 0c0,0 0,0 0,0zm-2 0c0,0 0,0 -1,-1 -7,7 -10,7 -11,6 2,4 6,7 11,8 -1,-1 -2,-4 1,-13zm-1 -3c-10,-4 -10,-8 -10,-9 -2,3 -3,6 -3,10 0,1 0,2 0,3 1,-1 3,-3 13,-3 0,0 0,0 0,0 0,-1 0,-1 0,-1zm13 -10c0,1 -1,5 -9,9 0,1 0,1 0,1 10,0 12,2 13,3 0,-1 0,-2 0,-2 0,-4 -1,-8 -4,-11zm-13 10c-10,-4 -10,-8 -10,-9 -2,3 -3,6 -3,10 0,1 0,2 0,3 1,-1 3,-3 13,-3 0,0 0,0 0,0 0,-1 0,-1 0,-1zm1 3c0,0 0,0 -1,-1 -7,7 -10,7 -11,6 2,4 6,7 11,8 -1,-1 -2,-4 1,-13zm2 0l0 0 0 0c0,0 0,0 0,0zm-1 -18c-3,0 -5,1 -7,2 1,0 4,2 6,11 1,0 1,0 1,0 0,0 0,0 0,0 2,-10 6,-11 7,-11 -2,-1 -5,-2 -7,-2zm2 17c-1,1 -1,1 -1,1 4,8 4,11 3,13 5,-2 8,-5 10,-9 -1,0 -4,1 -12,-5zm9 -12c0,1 -1,5 -9,9 0,1 0,1 0,1 10,0 12,2 13,3 0,-1 0,-2 0,-2 0,-4 -1,-8 -4,-11zm-9 12c-1,1 -1,1 -1,1 4,8 4,11 3,13 5,-2 8,-5 10,-9 -1,0 -4,1 -12,-5zm-2 -17c-3,0 -5,1 -7,2 1,0 4,2 6,11 1,0 1,0 1,0 0,0 0,0 0,0 2,-10 6,-11 7,-11 -2,-1 -5,-2 -7,-2zm1 18l0 0 0 0c0,0 0,0 0,0zm-2 0c0,0 0,0 -1,-1 -7,7 -10,7 -11,6 2,4 6,7 11,8 -1,-1 -2,-4 1,-13zm-1 -3c-10,-4 -10,-8 -10,-9 -2,3 -3,6 -3,10 0,1 0,2 0,3 1,-1 3,-3 13,-3 0,0 0,0 0,0 0,-1 0,-1 0,-1zm13 -10c0,1 -1,5 -9,9 0,1 0,1 0,1 10,0 12,2 13,3 0,-1 0,-2 0,-2 0,-4 -1,-8 -4,-11zm-13 10c-10,-4 -10,-8 -10,-9 -2,3 -3,6 -3,10 0,1 0,2 0,3 1,-1 3,-3 13,-3 0,0 0,0 0,0 0,-1 0,-1 0,-1zm1 3c0,0 0,0 -1,-1 -7,7 -10,7 -11,6 2,4 6,7 11,8 -1,-1 -2,-4 1,-13zm2 0l0 0 0 0c0,0 0,0 0,0zm-1 -18c-3,0 -5,1 -7,2 1,0 4,2 6,11 1,0 1,0 1,0 0,0 0,0 0,0 2,-10 6,-11 7,-11 -2,-1 -5,-2 -7,-2zm2 17c-1,1 -1,1 -1,1 4,8 4,11 3,13 5,-2 8,-5 10,-9 -1,0 -4,1 -12,-5zm9 -12c0,1 -1,5 -9,9 0,1 0,1 0,1 10,0 12,2 13,3 0,-1 0,-2 0,-2 0,-4 -1,-8 -4,-11zm-9 12c-1,1 -1,1 -1,1 4,8 4,11 3,13 5,-2 8,-5 10,-9 -1,0 -4,1 -12,-5zm-2 -17c-3,0 -5,1 -7,2 1,0 4,2 6,11 1,0 1,0 1,0 0,0 0,0 0,0 2,-10 6,-11 7,-11 -2,-1 -5,-2 -7,-2zm1 18l0 0 0 0c0,0 0,0 0,0zm-2 0c0,0 0,0 -1,-1 -7,7 -10,7 -11,6 2,4 6,7 11,8 -1,-1 -2,-4 1,-13zm-1 -3c-10,-4 -10,-8 -10,-9 -2,3 -3,6 -3,10 0,1 0,2 0,3 1,-1 3,-3 13,-3 0,0 0,0 0,0 0,-1 0,-1 0,-1zm13 -10c0,1 -1,5 -9,9 0,1 0,1 0,1 10,0 12,2 13,3 0,-1 0,-2 0,-2 0,-4 -1,-8 -4,-11zm-13 10c-10,-4 -10,-8 -10,-9 -2,3 -3,6 -3,10 0,1 0,2 0,3 1,-1 3,-3 13,-3 0,0 0,0 0,0 0,-1 0,-1 0,-1zm1 3c0,0 0,0 -1,-1 -7,7 -10,7 -11,6 2,4 6,7 11,8 -1,-1 -2,-4 1,-13zm2 0l0 0 0 0c0,0 0,0 0,0zm-1 -18c-3,0 -5,1 -7,2 1,0 4,2 6,11 1,0 1,0 1,0 0,0 0,0 0,0 2,-10 6,-11 7,-11 -2,-1 -5,-2 -7,-2zm2 17c-1,1 -1,1 -1,1 4,8 4,11 3,13 5,-2 8,-5 10,-9 -1,0 -4,1 -12,-5zm9 -12c0,1 -1,5 -9,9 0,1 0,1 0,1 10,0 12,2 13,3 0,-1 0,-2 0,-2 0,-4 -1,-8 -4,-11zm-9 12c-1,1 -1,1 -1,1 4,8 4,11 3,13 5,-2 8,-5 10,-9 -1,0 -4,1 -12,-5zm-2 -17c-3,0 -5,1 -7,2 1,0 4,2 6,11 1,0 1,0 1,0 0,0 0,0 0,0 2,-10 6,-11 7,-11 -2,-1 -5,-2 -7,-2zm1 18l0 0 0 0c0,0 0,0 0,0zm-2 0c0,0 0,0 -1,-1 -7,7 -10,7 -11,6 2,4 6,7 11,8 -1,-1 -2,-4 1,-13zm-1 -3c-10,-4 -10,-8 -10,-9 -2,3 -3,6 -3,10 0,1 0,2 0,3 1,-1 3,-3 13,-3 0,0 0,0 0,0 0,-1 0,-1 0,-1zm13 -10c0,1 -1,5 -9,9 0,1 0,1 0,1 10,0 12,2 13,3 0,-1 0,-2 0,-2 0,-4 -1,-8 -4,-11zm-13 10c-10,-4 -10,-8 -10,-9 -2,3 -3,6 -3,10 0,1 0,2 0,3 1,-1 3,-3 13,-3 0,0 0,0 0,0 0,-1 0,-1 0,-1zm1 3c0,0 0,0 -1,-1 -7,7 -10,7 -11,6 2,4 6,7 11,8 -1,-1 -2,-4 1,-13zm2 0l0 0 0 0c0,0 0,0 0,0zm-1 -18c-3,0 -5,1 -7,2 1,0 4,2 6,11 1,0 1,0 1,0 0,0 0,0 0,0 2,-10 6,-11 7,-11 -2,-1 -5,-2 -7,-2zm2 17c-1,1 -1,1 -1,1 4,8 4,11 3,13 5,-2 8,-5 10,-9 -1,0 -4,1 -12,-5zm9 -12c0,1 -1,5 -9,9 0,1 0,1 0,1 10,0 12,2 13,3 0,-1 0,-2 0,-2 0,-4 -1,-8 -4,-11zm-9 12c-1,1 -1,1 -1,1 4,8 4,11 3,13 5,-2 8,-5 10,-9 -1,0 -4,1 -12,-5zm-2 -17c-3,0 -5,1 -7,2 1,0 4,2 6,11 1,0 1,0 1,0 0,0 0,0 0,0 2,-10 6,-11 7,-11 -2,-1 -5,-2 -7,-2zm1 18l0 0 0 0c0,0 0,0 0,0zm-2 0c0,0 0,0 -1,-1 -7,7 -10,7 -11,6 2,4 6,7 11,8 -1,-1 -2,-4 1,-13zm-1 -3c-10,-4 -10,-8 -10,-9 -2,3 -3,6 -3,10 0,1 0,2 0,3 1,-1 3,-3 13,-3 0,0 0,0 0,0 0,-1 0,-1 0,-1zm13 -10c0,1 -1,5 -9,9 0,1 0,1 0,1 10,0 12,2 13,3 0,-1 0,-2 0,-2 0,-4 -1,-8 -4,-11zm-13 11c0,-1 0,-1 0,-1 -10,-4 -10,-8 -10,-9 -2,3 -3,6 -3,10 0,1 0,2 0,3 1,-1 3,-3 13,-3 0,0 0,0 0,0zm0 1c-7,7 -10,7 -11,6 2,4 6,7 11,8 -1,-1 -2,-4 1,-13 0,0 0,0 -1,-1zm3 1l0 0c0,0 0,0 0,0l0 0zm6 -16c-2,-1 -5,-2 -7,-2 -3,0 -5,1 -7,2 1,0 4,2 6,11 1,0 1,0 1,0 0,0 0,0 0,0 2,-10 6,-11 7,-11zm-5 15c-1,1 -1,1 -1,1 4,8 4,11 3,13 5,-2 8,-5 10,-9 -1,0 -4,1 -12,-5zm-2 15c-9,0 -16,-7 -16,-16 0,-9 7,-17 16,-17 9,0 16,8 16,17 0,9 -7,16 -16,16zm0 -37c-11,0 -20,10 -20,21 0,11 9,20 20,20 11,0 20,-9 20,-20 0,-11 -9,-21 -20,-21zm11 10c0,1 -1,5 -9,9 0,1 0,1 0,1 10,0 12,2 13,3 0,-1 0,-2 0,-2 0,-4 -1,-8 -4,-11zm-13 11c0,-1 0,-1 0,-1 -10,-4 -10,-8 -10,-9 -2,3 -3,6 -3,10 0,1 0,2 0,3 1,-1 3,-3 13,-3 0,0 0,0 0,0zm0 1c-7,7 -10,7 -11,6 2,4 6,7 11,8 -1,-1 -2,-4 1,-13 0,0 0,0 -1,-1zm3 1l0 0c0,0 0,0 0,0l0 0zm6 -16c-2,-1 -5,-2 -7,-2 -3,0 -5,1 -7,2 1,0 4,2 6,11 1,0 1,0 1,0 0,0 0,0 0,0 2,-10 6,-11 7,-11zm-5 15c-1,1 -1,1 -1,1 4,8 4,11 3,13 5,-2 8,-5 10,-9 -1,0 -4,1 -12,-5zm9 -12c0,1 -1,5 -9,9 0,1 0,1 0,1 10,0 12,2 13,3 0,-1 0,-2 0,-2 0,-4 -1,-8 -4,-11zm-9 12c-1,1 -1,1 -1,1 4,8 4,11 3,13 5,-2 8,-5 10,-9 -1,0 -4,1 -12,-5zm-2 -17c-3,0 -5,1 -7,2 1,0 4,2 6,11 1,0 1,0 1,0 0,0 0,0 0,0 2,-10 6,-11 7,-11 -2,-1 -5,-2 -7,-2zm1 18l0 0 0 0c0,0 0,0 0,0zm-2 0c0,0 0,0 -1,-1 -7,7 -10,7 -11,6 2,4 6,7 11,8 -1,-1 -2,-4 1,-13zm-1 -3c-10,-4 -10,-8 -10,-9 -2,3 -3,6 -3,10 0,1 0,2 0,3 1,-1 3,-3 13,-3 0,0 0,0 0,0 0,-1 0,-1 0,-1zm13 -10c0,1 -1,5 -9,9 0,1 0,1 0,1 10,0 12,2 13,3 0,-1 0,-2 0,-2 0,-4 -1,-8 -4,-11zm-13 10c-10,-4 -10,-8 -10,-9 -2,3 -3,6 -3,10 0,1 0,2 0,3 1,-1 3,-3 13,-3 0,0 0,0 0,0 0,-1 0,-1 0,-1zm1 3c0,0 0,0 -1,-1 -7,7 -10,7 -11,6 2,4 6,7 11,8 -1,-1 -2,-4 1,-13zm2 0l0 0 0 0c0,0 0,0 0,0zm-1 -18c-3,0 -5,1 -7,2 1,0 4,2 6,11 1,0 1,0 1,0 0,0 0,0 0,0 2,-10 6,-11 7,-11 -2,-1 -5,-2 -7,-2zm2 17c-1,1 -1,1 -1,1 4,8 4,11 3,13 5,-2 8,-5 10,-9 -1,0 -4,1 -12,-5zm9 -12c0,1 -1,5 -9,9 0,1 0,1 0,1 10,0 12,2 13,3 0,-1 0,-2 0,-2 0,-4 -1,-8 -4,-11zm-9 12c-1,1 -1,1 -1,1 4,8 4,11 3,13 5,-2 8,-5 10,-9 -1,0 -4,1 -12,-5zm-2 -17c-3,0 -5,1 -7,2 1,0 4,2 6,11 1,0 1,0 1,0 0,0 0,0 0,0 2,-10 6,-11 7,-11 -2,-1 -5,-2 -7,-2zm1 18l0 0 0 0c0,0 0,0 0,0zm-2 0c0,0 0,0 -1,-1 -7,7 -10,7 -11,6 2,4 6,7 11,8 -1,-1 -2,-4 1,-13zm-1 -3c-10,-4 -10,-8 -10,-9 -2,3 -3,6 -3,10 0,1 0,2 0,3 1,-1 3,-3 13,-3 0,0 0,0 0,0 0,-1 0,-1 0,-1zm13 -10c0,1 -1,5 -9,9 0,1 0,1 0,1 10,0 12,2 13,3 0,-1 0,-2 0,-2 0,-4 -1,-8 -4,-11zm-13 10c-10,-4 -10,-8 -10,-9 -2,3 -3,6 -3,10 0,1 0,2 0,3 1,-1 3,-3 13,-3 0,0 0,0 0,0 0,-1 0,-1 0,-1zm1 3c0,0 0,0 -1,-1 -7,7 -10,7 -11,6 2,4 6,7 11,8 -1,-1 -2,-4 1,-13zm2 0l0 0 0 0c0,0 0,0 0,0zm-1 -18c-3,0 -5,1 -7,2 1,0 4,2 6,11 1,0 1,0 1,0 0,0 0,0 0,0 2,-10 6,-11 7,-11 -2,-1 -5,-2 -7,-2zm2 17c-1,1 -1,1 -1,1 4,8 4,11 3,13 5,-2 8,-5 10,-9 -1,0 -4,1 -12,-5zm9 -12c0,1 -1,5 -9,9 0,1 0,1 0,1 10,0 12,2 13,3 0,-1 0,-2 0,-2 0,-4 -1,-8 -4,-11zm-9 12c-1,1 -1,1 -1,1 4,8 4,11 3,13 5,-2 8,-5 10,-9 -1,0 -4,1 -12,-5zm-2 -17c-3,0 -5,1 -7,2 1,0 4,2 6,11 1,0 1,0 1,0 0,0 0,0 0,0 2,-10 6,-11 7,-11 -2,-1 -5,-2 -7,-2zm1 18l0 0 0 0c0,0 0,0 0,0zm-2 0c0,0 0,0 -1,-1 -7,7 -10,7 -11,6 2,4 6,7 11,8 -1,-1 -2,-4 1,-13zm-1 -3c-10,-4 -10,-8 -10,-9 -2,3 -3,6 -3,10 0,1 0,2 0,3 1,-1 3,-3 13,-3 0,0 0,0 0,0 0,-1 0,-1 0,-1zm13 -10c0,1 -1,5 -9,9 0,1 0,1 0,1 10,0 12,2 13,3 0,-1 0,-2 0,-2 0,-4 -1,-8 -4,-11zm-13 10c-10,-4 -10,-8 -10,-9 -2,3 -3,6 -3,10 0,1 0,2 0,3 1,-1 3,-3 13,-3 0,0 0,0 0,0 0,-1 0,-1 0,-1zm1 3c0,0 0,0 -1,-1 -7,7 -10,7 -11,6 2,4 6,7 11,8 -1,-1 -2,-4 1,-13zm2 0l0 0 0 0c0,0 0,0 0,0zm-1 -18c-3,0 -5,1 -7,2 1,0 4,2 6,11 1,0 1,0 1,0 0,0 0,0 0,0 2,-10 6,-11 7,-11 -2,-1 -5,-2 -7,-2zm2 17c-1,1 -1,1 -1,1 4,8 4,11 3,13 5,-2 8,-5 10,-9 -1,0 -4,1 -12,-5zm9 -12c0,1 -1,5 -9,9 0,1 0,1 0,1 10,0 12,2 13,3 0,-1 0,-2 0,-2 0,-4 -1,-8 -4,-11zm-9 12c-1,1 -1,1 -1,1 4,8 4,11 3,13 5,-2 8,-5 10,-9 -1,0 -4,1 -12,-5zm-2 -17c-3,0 -5,1 -7,2 1,0 4,2 6,11 1,0 1,0 1,0 0,0 0,0 0,0 2,-10 6,-11 7,-11 -2,-1 -5,-2 -7,-2zm1 18l0 0 0 0c0,0 0,0 0,0zm-2 0c0,0 0,0 -1,-1 -7,7 -10,7 -11,6 2,4 6,7 11,8 -1,-1 -2,-4 1,-13zm-1 -3c-10,-4 -10,-8 -10,-9 -2,3 -3,6 -3,10 0,1 0,2 0,3 1,-1 3,-3 13,-3 0,0 0,0 0,0 0,-1 0,-1 0,-1zm13 -10c0,1 -1,5 -9,9 0,1 0,1 0,1 10,0 12,2 13,3 0,-1 0,-2 0,-2 0,-4 -1,-8 -4,-11zm-13 10c-10,-4 -10,-8 -10,-9 -2,3 -3,6 -3,10 0,1 0,2 0,3 1,-1 3,-3 13,-3 0,0 0,0 0,0 0,-1 0,-1 0,-1zm1 3c0,0 0,0 -1,-1 -7,7 -10,7 -11,6 2,4 6,7 11,8 -1,-1 -2,-4 1,-13zm2 0l0 0 0 0c0,0 0,0 0,0zm-1 -18c-3,0 -5,1 -7,2 1,0 4,2 6,11 1,0 1,0 1,0 0,0 0,0 0,0 2,-10 6,-11 7,-11 -2,-1 -5,-2 -7,-2zm2 17c-1,1 -1,1 -1,1 4,8 4,11 3,13 5,-2 8,-5 10,-9 -1,0 -4,1 -12,-5zm9 -12c0,1 -1,5 -9,9 0,1 0,1 0,1 10,0 12,2 13,3 0,-1 0,-2 0,-2 0,-4 -1,-8 -4,-11zm-9 12c-1,1 -1,1 -1,1 4,8 4,11 3,13 5,-2 8,-5 10,-9 -1,0 -4,1 -12,-5zm-2 -17c-3,0 -5,1 -7,2 1,0 4,2 6,11 1,0 1,0 1,0 0,0 0,0 0,0 2,-10 6,-11 7,-11 -2,-1 -5,-2 -7,-2zm1 18l0 0 0 0c0,0 0,0 0,0zm-2 0c0,0 0,0 -1,-1 -7,7 -10,7 -11,6 2,4 6,7 11,8 -1,-1 -2,-4 1,-13zm-1 -3c-10,-4 -10,-8 -10,-9 -2,3 -3,6 -3,10 0,1 0,2 0,3 1,-1 3,-3 13,-3 0,0 0,0 0,0 0,-1 0,-1 0,-1zm13 -10c0,1 -1,5 -9,9 0,1 0,1 0,1 10,0 12,2 13,3 0,-1 0,-2 0,-2 0,-4 -1,-8 -4,-11zm-13 10c-10,-4 -10,-8 -10,-9 -2,3 -3,6 -3,10 0,1 0,2 0,3 1,-1 3,-3 13,-3 0,0 0,0 0,0 0,-1 0,-1 0,-1zm1 3c0,0 0,0 -1,-1 -7,7 -10,7 -11,6 2,4 6,7 11,8 -1,-1 -2,-4 1,-13zm2 0l0 0 0 0c0,0 0,0 0,0zm-1 -18c-3,0 -5,1 -7,2 1,0 4,2 6,11 1,0 1,0 1,0 0,0 0,0 0,0 2,-10 6,-11 7,-11 -2,-1 -5,-2 -7,-2zm2 17c-1,1 -1,1 -1,1 4,8 4,11 3,13 5,-2 8,-5 10,-9 -1,0 -4,1 -12,-5zm9 -12c0,1 -1,5 -9,9 0,1 0,1 0,1 10,0 12,2 13,3 0,-1 0,-2 0,-2 0,-4 -1,-8 -4,-11zm-9 12c-1,1 -1,1 -1,1 4,8 4,11 3,13 5,-2 8,-5 10,-9 -1,0 -4,1 -12,-5zm-2 -17c-3,0 -5,1 -7,2 1,0 4,2 6,11 1,0 1,0 1,0 0,0 0,0 0,0 2,-10 6,-11 7,-11 -2,-1 -5,-2 -7,-2zm1 18l0 0 0 0c0,0 0,0 0,0zm-2 0c0,0 0,0 -1,-1 -7,7 -10,7 -11,6 2,4 6,7 11,8 -1,-1 -2,-4 1,-13zm-1 -3c-10,-4 -10,-8 -10,-9 -2,3 -3,6 -3,10 0,1 0,2 0,3 1,-1 3,-3 13,-3 0,0 0,0 0,0 0,-1 0,-1 0,-1zm13 -10c0,1 -1,5 -9,9 0,1 0,1 0,1 10,0 12,2 13,3 0,-1 0,-2 0,-2 0,-4 -1,-8 -4,-11zm-10 13l0 0 0 0c0,0 0,0 0,0zm0 0l0 0 0 0c0,0 0,0 0,0zm0 0l0 0 0 0c0,0 0,0 0,0zm0 0l0 0 0 0c0,0 0,0 0,0zm0 0l0 0 0 0c0,0 0,0 0,0zm0 0l0 0 0 0c0,0 0,0 0,0zm0 0l0 0 0 0c0,0 0,0 0,0zm0 0l0 0 0 0c0,0 0,0 0,0zm0 0l0 0 0 0c0,0 0,0 0,0zm0 0l0 0 0 0c0,0 0,0 0,0z"/>
   <path class="fil0" d="M197 74c0,0 0,0 0,0 -10,0 -12,2 -13,3 0,-1 0,-2 0,-3 0,-4 1,-7 3,-10 0,1 0,5 10,9 0,0 0,0 0,1z"/>
   <path class="fil0" d="M197 89c-5,-1 -9,-4 -11,-8 1,1 4,1 11,-6 1,1 1,1 1,1 -3,9 -2,12 -1,13z"/>
   <path class="fil0" d="M200 76l0 0 0 0c0,0 0,0 0,0z"/>
   <path class="fil0" d="M206 60c-1,0 -5,1 -7,11 0,0 0,0 0,0 0,0 0,0 -1,0 -2,-9 -5,-11 -6,-11 2,-1 4,-2 7,-2 2,0 5,1 7,2z"/>
   <path class="fil0" d="M213 80c-2,4 -5,7 -10,9 1,-2 1,-5 -3,-13 0,0 0,0 1,-1 8,6 11,5 12,5z"/>
   <path class="fil0" d="M214 74c0,0 0,1 0,2 -1,-1 -3,-3 -13,-3 0,0 0,0 0,-1 8,-4 9,-8 9,-9 3,3 4,7 4,11z"/>
   <path class="fil0" d="M200 76l0 0 0 0c0,0 0,0 0,0zm0 0l0 0 0 0c0,0 0,0 0,0zm0 0l0 0 0 0c0,0 0,0 0,0zm0 0l0 0 0 0c0,0 0,0 0,0zm0 0l0 0 0 0c0,0 0,0 0,0zm0 0l0 0 0 0c0,0 0,0 0,0zm0 0l0 0 0 0c0,0 0,0 0,0zm0 0l0 0 0 0c0,0 0,0 0,0zm0 0l0 0 0 0c0,0 0,0 0,0zm0 0l0 0 0 0c0,0 0,0 0,0zm-3 -3c-10,-4 -10,-8 -10,-9 -2,3 -3,6 -3,10 0,1 0,2 0,3 1,-1 3,-3 13,-3 0,0 0,0 0,0 0,-1 0,-1 0,-1zm1 3c0,0 0,0 -1,-1 -7,7 -10,7 -11,6 2,4 6,7 11,8 -1,-1 -2,-4 1,-13zm2 0l0 0 0 0c0,0 0,0 0,0zm-1 -18c-3,0 -5,1 -7,2 1,0 4,2 6,11 1,0 1,0 1,0 0,0 0,0 0,0 2,-10 6,-11 7,-11 -2,-1 -5,-2 -7,-2zm2 17c-1,1 -1,1 -1,1 4,8 4,11 3,13 5,-2 8,-5 10,-9 -1,0 -4,1 -12,-5zm9 -12c0,1 -1,5 -9,9 0,1 0,1 0,1 10,0 12,2 13,3 0,-1 0,-2 0,-2 0,-4 -1,-8 -4,-11zm-10 13l0 0 0 0c0,0 0,0 0,0zm0 0l0 0 0 0c0,0 0,0 0,0zm0 0l0 0 0 0c0,0 0,0 0,0zm0 0l0 0 0 0c0,0 0,0 0,0zm0 0l0 0 0 0c0,0 0,0 0,0zm0 0l0 0 0 0c0,0 0,0 0,0zm0 0l0 0 0 0c0,0 0,0 0,0zm0 0l0 0 0 0c0,0 0,0 0,0zm0 0l0 0 0 0c0,0 0,0 0,0zm0 0l0 0 0 0c0,0 0,0 0,0z"/>
   <path class="fil0" d="M201 74c0,0 0,1 0,1 0,0 0,0 0,0 -1,1 -1,1 -1,1 0,0 0,0 0,0l0 0c0,0 -1,0 -1,0 0,0 0,0 -1,0 0,0 0,0 0,0 0,0 0,0 -1,-1 0,0 0,0 0,0 0,0 0,0 0,-1 0,0 0,0 0,0 0,0 0,0 0,0 0,-1 0,-1 0,-1 0,0 0,0 0,0 0,-1 1,-1 1,-2 0,0 0,0 0,0 1,0 1,0 1,0 0,0 0,0 0,0 0,0 0,0 1,0 0,0 1,1 1,1 0,0 0,0 0,0 0,1 0,1 0,1 0,0 0,1 0,1l0 0c0,0 0,0 0,0z"/>
   <path class="fil0" d="M200 76l0 0 0 0c0,0 0,0 0,0z"/>
   <path class="fil0" d="M200 76l0 0 0 0c0,0 0,0 0,0z"/>
  </g>
 </g>
</svg>
