<?xml version="1.0" encoding="UTF-8"?>
<!DOCTYPE svg PUBLIC "-//W3C//DTD SVG 1.1//EN" "http://www.w3.org/Graphics/SVG/1.1/DTD/svg11.dtd">
<!-- Creator: CorelDRAW X7 -->
<svg xmlns="http://www.w3.org/2000/svg" xml:space="preserve" width="4.951in" height="1.955in" version="1.1" style="shape-rendering:geometricPrecision; text-rendering:geometricPrecision; image-rendering:optimizeQuality; fill-rule:evenodd; clip-rule:evenodd"
viewBox="0 0 4951 1955"
 xmlns:xlink="http://www.w3.org/1999/xlink">
 <defs>
  <style type="text/css">
   <![CDATA[
    .fil0 {fill:#373435}
   ]]>
  </style>
 </defs>
 <g id="Layer_x0020_1">
  <metadata id="CorelCorpID_0Corel-Layer"/>
  <path class="fil0" d="M2557 694c1,-88 17,-221 29,-311 31,-220 1,-218 123,-220 177,-3 504,-22 662,2 13,73 13,171 16,250l5 199c-5,55 5,22 -15,43 -44,39 -707,36 -820,37zm949 -509c122,-54 387,-4 506,33 105,34 119,55 181,113 40,37 187,174 206,233 18,57 -10,59 -63,64 -88,8 -182,8 -272,14 -109,7 -464,45 -547,16 -11,-93 -28,-391 -11,-473zm-2173 379c46,-69 362,-247 479,-296 229,-95 389,-119 664,-101 1,89 -47,453 -75,528l-907 39c29,-162 -5,-169 -161,-170zm-1001 1145c17,-84 -15,-168 13,-270 143,-513 885,-434 940,70 13,119 -31,180 -24,269 367,14 761,2 1132,1 225,0 979,16 1139,-3 17,-101 -83,-258 58,-471 64,-98 185,-204 358,-217 249,-19 447,137 505,350 24,88 0,231 19,275 33,38 374,-22 413,-43 28,-15 33,-29 47,-71 10,-33 14,-65 16,-101 2,-37 3,-84 3,-120 -1,-87 8,-47 -48,-81 -19,-131 -18,-253 -45,-381 -26,-121 -262,-612 -343,-718 -81,-106 -25,-67 -62,-160 -102,-36 -1380,-5 -1601,-4 -817,5 -946,-9 -1617,411 -366,229 -409,210 -853,372 -283,103 -228,142 -312,394 -27,81 -11,24 -46,59 -25,25 -71,412 112,445 57,10 142,13 196,-6z"/>
  <path class="fil0" d="M3622 1603c23,191 185,352 407,330 212,-22 352,-207 330,-412 -53,-483 -795,-397 -737,82z"/>
  <path class="fil0" d="M439 1597c23,191 186,352 408,330 211,-21 352,-206 330,-412 -53,-482 -795,-397 -738,82z"/>
 </g>
</svg>
