<?xml version="1.0" encoding="UTF-8"?>
<!DOCTYPE svg PUBLIC "-//W3C//DTD SVG 1.1//EN" "http://www.w3.org/Graphics/SVG/1.1/DTD/svg11.dtd">
<!-- Creator: CorelDRAW X7 -->
<svg xmlns="http://www.w3.org/2000/svg" xml:space="preserve" width="4.948in" height="1.586in" version="1.1" style="shape-rendering:geometricPrecision; text-rendering:geometricPrecision; image-rendering:optimizeQuality; fill-rule:evenodd; clip-rule:evenodd"
viewBox="0 0 4948 1586"
 xmlns:xlink="http://www.w3.org/1999/xlink">
 <defs>
  <style type="text/css">
   <![CDATA[
    .str0 {stroke:#FEFEFE;stroke-width:6.94488}
    .fil3 {fill:none}
    .fil0 {fill:#373435}
    .fil1 {fill:#FFFFCC}
    .fil2 {fill:white}
   ]]>
  </style>
 </defs>
 <g id="Layer_x0020_1">
  <metadata id="CorelCorpID_0Corel-Layer"/>
  <g id="_357955200">
   <g>
    <path class="fil0" d="M3640 209c80,8 237,111 278,155 -4,55 -34,134 -86,147 -28,7 -184,8 -213,4l21 -306zm-754 340c4,-93 19,-182 29,-271 20,-191 35,-172 132,-172 219,-1 353,-1 546,68l-34 351 -673 24zm-1003 -203c17,-24 8,-18 40,-36 19,-11 31,-15 53,-22 194,-126 546,-211 832,-180l-50 332c-12,102 -20,81 -26,110l-837 38c15,-146 10,-147 -155,-150 26,-38 100,-88 143,-92zm-1880 644c0,127 -35,372 136,390 385,41 36,-151 296,-461 44,-53 76,-92 154,-129 69,-33 157,-54 243,-46 166,14 297,101 364,200 130,195 62,264 83,492 342,24 771,10 1121,6 188,-2 377,-1 565,-1 101,0 483,27 537,-22 26,-27 12,-55 7,-115 -4,-38 -6,-101 -1,-138 26,-209 206,-409 447,-425 269,-17 519,202 511,506 -1,40 -14,109 17,133 60,26 361,-9 412,-52 59,-49 62,-265 41,-297 -30,-49 -36,30 -45,-89 -31,-422 56,-427 -444,-530 -211,-43 -401,-187 -675,-302 -314,-132 -508,-96 -866,-108 -805,-26 -898,179 -1497,442 -72,31 -1038,140 -1206,253 -42,29 -79,83 -106,142 -76,170 -10,103 -94,151z"/>
    <path class="fil0" d="M699 869c-459,143 -291,823 212,703 453,-108 270,-853 -212,-703z"/>
    <path class="fil0" d="M3891 863c-423,115 -352,795 182,714 174,-27 326,-222 275,-442 -40,-174 -229,-334 -457,-272z"/>
    <path class="fil0" d="M1976 288c-17,54 -33,57 -70,88 -21,-19 -4,19 -23,-30 -43,4 -117,54 -143,92 165,3 170,4 155,150l837 -38c6,-29 14,-8 26,-110l50 -332c-286,-31 -638,54 -832,180z"/>
    <path class="fil0" d="M2886 549l673 -24 34 -351c-193,-69 -327,-69 -546,-68 -97,0 -112,-19 -132,172 -10,89 -25,178 -29,271z"/>
    <path class="fil0" d="M3619 515c29,4 185,3 213,-4 52,-13 82,-92 86,-147 -41,-44 -198,-147 -278,-155l-21 306z"/>
    <path class="fil0" d="M1883 346c19,49 2,11 23,30 37,-31 53,-34 70,-88 -22,7 -34,11 -53,22 -32,18 -23,12 -40,36z"/>
   </g>
   <path class="fil1" d="M1976 288c-17,54 -33,57 -70,88 -21,-19 -4,19 -23,-30 -43,4 -117,54 -143,92 165,3 170,4 155,150l837 -38c6,-29 14,-8 26,-110l50 -332c-286,-31 -638,54 -832,180z"/>
   <path class="fil2" d="M1976 288c-17,54 -33,57 -70,88 -21,-19 -4,19 -23,-30 -43,4 -117,54 -143,92 165,3 170,4 155,150l837 -38c6,-29 14,-8 26,-110l50 -332c-286,-31 -638,54 -832,180z"/>
   <path class="fil2" d="M2915 278c-10,89 -25,178 -29,271l673 -24 34 -351c-193,-69 -327,-69 -546,-68 -97,0 -112,-19 -132,172z"/>
   <path class="fil2" d="M3640 209l-21 306c29,4 185,3 213,-4 52,-13 82,-92 86,-147 -41,-44 -198,-147 -278,-155z"/>
   <path class="fil2" d="M1906 376c37,-31 53,-34 70,-88 -22,7 -34,11 -53,22 -32,18 -23,12 -40,36 19,49 2,11 23,30z"/>
   <path class="fil3 str0" d="M1819 382c129,-81 129,-81 129,-81"/>
  </g>
 </g>
</svg>
