<?xml version="1.0" encoding="UTF-8"?>
<!DOCTYPE svg PUBLIC "-//W3C//DTD SVG 1.1//EN" "http://www.w3.org/Graphics/SVG/1.1/DTD/svg11.dtd">
<!-- Creator: CorelDRAW X7 -->
<svg xmlns="http://www.w3.org/2000/svg" xml:space="preserve" width="0.251in" height="0.094in" version="1.1" style="shape-rendering:geometricPrecision; text-rendering:geometricPrecision; image-rendering:optimizeQuality; fill-rule:evenodd; clip-rule:evenodd"
viewBox="0 0 251 94"
 xmlns:xlink="http://www.w3.org/1999/xlink">
 <defs>
  <style type="text/css">
   <![CDATA[
    .fil0 {fill:#2E3031}
   ]]>
  </style>
 </defs>
 <g id="Layer_x0020_1">
  <metadata id="CorelCorpID_0Corel-Layer"/>
  <g id="_2369573836176">
   <path class="fil0" d="M247 69c0,0 -7,-1 -7,-3 1,-2 6,-1 8,0 1,1 1,3 -1,3zm-34 -19c-16,1 -23,7 -23,8 0,-1 8,-11 25,-10 17,1 25,12 25,12 0,0 5,0 8,-2 0,0 0,5 -8,5 0,0 -10,-14 -27,-13zm-27 -8c-1,0 -1,-1 -1,-1 0,-1 0,-2 1,-2l12 0c0,0 1,1 1,2 0,0 -1,1 -1,1l-12 0zm-13 36c-15,0 -91,2 -91,2 0,0 -12,1 -10,-7 0,0 0,5 10,5 10,0 94,-1 94,-1 0,0 9,-1 10,-4 0,0 2,5 -13,5zm-100 -35c0,0 -2,8 -2,12 0,0 -3,-6 2,-12zm-13 -2c-1,0 -1,-1 -1,-1l24 -13c0,0 -2,6 -3,9 -1,3 -4,4 -4,4l-16 1zm-43 27c0,0 -7,2 -10,2 0,0 -3,-2 -5,-3l4 -2c0,0 -6,-4 -3,-6 3,-3 6,4 16,1 0,0 8,-11 24,-11 17,1 25,9 25,9 0,0 -35,-20 -51,10zm-8 -17c0,0 10,-10 25,-8 0,0 3,1 -13,9 0,0 -13,3 -15,4 1,0 7,-5 3,-5zm83 -20c0,0 3,0 3,6 0,0 -10,1 -12,0 -2,-1 -1,-6 9,-6zm1 -6c2,-2 31,-13 47,-11l-4 18 -34 3c0,0 0,-10 -11,-6 0,0 -1,-2 2,-4zm59 6l0 -17c0,0 19,0 25,0 5,1 2,16 2,16l-27 1zm-12 13c0,0 -1,1 -1,1l-13 0c-1,0 -2,-1 -2,-1 0,-1 1,-1 2,-1l13 0c0,0 1,0 1,1zm4 25c0,-2 -4,-22 -2,-34l-40 2c0,0 62,-6 87,-4l-43 2c0,0 -4,18 -2,34zm63 -41c-2,2 -4,0 -4,0l-4 -9c-2,-3 15,0 19,0 3,1 -9,8 -11,9zm7 -13c6,1 12,-1 12,-2 -1,3 -8,4 -8,4 -4,0 -48,-6 -78,-5 -28,0 -45,10 -47,11 37,-23 115,-9 121,-8zm15 11c1,0 10,6 10,11 1,5 2,10 2,10l1 2 -6 0c0,0 -9,-7 -13,-10 -5,-3 4,-4 8,-5 3,-2 -1,-8 -2,-8zm22 40c0,-1 -1,-8 -2,-9 -1,-2 -5,-7 -5,-7 0,0 -1,-2 -1,-7 1,-4 -2,-12 -7,-15 -4,-3 -10,-12 -10,-12 0,0 3,-3 4,-4 0,-1 -4,-2 -12,-2 -2,0 -6,0 -11,0l-1 -1c7,-7 7,-9 7,-9l-8 9c-3,0 -8,0 -8,0l2 0c-27,-2 -73,-4 -92,3 -27,10 -47,23 -59,22 0,0 -31,6 -41,16 0,0 -4,4 -2,6l-2 1c0,0 -4,5 -3,11 0,0 8,3 10,10 0,0 -8,0 -10,-2 0,0 0,3 1,4 1,0 7,2 7,2 0,0 1,3 5,3 4,1 7,0 8,-2l1 0c0,0 -5,-27 23,-27 27,0 23,28 23,28l121 -2c0,0 -3,-26 24,-26 27,0 22,24 22,24 0,0 12,0 15,-2l0 -9c0,0 1,-1 1,-3z"/>
   <path class="fil0" d="M31 45c-1,1 -11,6 -11,6 2,-1 5,-6 5,-6 0,0 7,-2 6,0z"/>
   <path class="fil0" d="M12 72c0,0 2,2 7,2 0,0 -4,-6 -7,-7l0 5z"/>
   <polygon class="fil0" points="93,34 85,34 93,33 "/>
   <path class="fil0" d="M48 75l6 -6c4,2 3,7 3,7l-9 -1zm5 10l-5 -7 9 0c1,4 -4,7 -4,7zm-12 2l5 -7 3 6c-3,3 -8,1 -8,1zm-7 -9l9 0 -5 7c-4,-1 -4,-7 -4,-7zm3 -10l5 7 -9 0c-1,-4 4,-7 4,-7zm10 8c0,1 -1,2 -2,2 -1,0 -2,-1 -2,-2 0,-1 1,-1 2,-1 1,0 2,0 2,1zm3 -10l-5 7 -4 -7c4,-2 9,0 9,0zm-5 -2c-8,0 -14,5 -14,12 0,7 6,13 14,13 8,0 14,-6 14,-13 0,-7 -6,-12 -14,-12z"/>
   <path class="fil0" d="M45 90c-8,0 -15,-6 -15,-14 0,-7 7,-14 15,-14 9,0 16,7 16,14 0,8 -7,14 -16,14zm0 -31c-11,0 -20,8 -20,18 0,9 9,17 20,17 11,0 20,-8 20,-17 0,-10 -9,-18 -20,-18z"/>
   <path class="fil0" d="M48 75l6 -6c4,2 3,7 3,7l-9 -1zm5 10l-5 -7 9 0c1,4 -4,7 -4,7zm-12 2l5 -7 3 6c-3,3 -8,1 -8,1zm-7 -9l9 0 -5 7c-4,-1 -4,-7 -4,-7zm3 -10l5 7 -9 0c-1,-4 4,-7 4,-7zm10 8c0,1 -1,2 -2,2 -1,0 -2,-1 -2,-2 0,-1 1,-1 2,-1 1,0 2,0 2,1zm3 -10l-5 7 -4 -7c4,-2 9,0 9,0zm-5 -2c-8,0 -14,5 -14,12 0,7 6,13 14,13 8,0 14,-6 14,-13 0,-7 -6,-12 -14,-12z"/>
   <path class="fil0" d="M48 75l6 -6c4,2 3,7 3,7l-9 -1zm5 10l-5 -7 9 0c1,4 -4,7 -4,7zm-12 2l5 -7 3 6c-3,3 -8,1 -8,1zm-7 -9l9 0 -5 7c-4,-1 -4,-7 -4,-7zm3 -10l5 7 -9 0c-1,-4 4,-7 4,-7zm10 8c0,1 -1,2 -2,2 -1,0 -2,-1 -2,-2 0,-1 1,-1 2,-1 1,0 2,0 2,1zm3 -10l-5 7 -4 -7c4,-2 9,0 9,0zm-5 -2c-8,0 -14,5 -14,12 0,7 6,13 14,13 8,0 14,-6 14,-13 0,-7 -6,-12 -14,-12z"/>
   <path class="fil0" d="M217 75l5 -6c4,2 3,7 3,7l-8 -1zm4 10l-5 -7 9 0c1,4 -4,7 -4,7zm-12 2l5 -7 4 6c-4,3 -9,1 -9,1zm-7 -9l9 0 -5 7c-4,-1 -4,-7 -4,-7zm3 -10l5 7 -9 0c-1,-4 4,-7 4,-7zm10 8c0,1 -1,2 -2,2 -1,0 -2,-1 -2,-2 0,-1 1,-1 2,-1 1,0 2,0 2,1zm3 -10l-4 7 -4 -7c3,-2 8,0 8,0zm-4 -2c-8,0 -15,5 -15,12 0,7 7,13 15,13 7,0 14,-6 14,-13 0,-7 -7,-12 -14,-12z"/>
   <path class="fil0" d="M214 90c-9,0 -16,-6 -16,-14 0,-7 7,-14 16,-14 8,0 15,7 15,14 0,8 -7,14 -15,14zm-1 -31c-11,0 -19,8 -19,18 0,9 8,17 19,17 11,0 20,-8 20,-17 0,-10 -9,-18 -20,-18z"/>
   <path class="fil0" d="M217 75l5 -6c4,2 3,7 3,7l-8 -1zm4 10l-5 -7 9 0c1,4 -4,7 -4,7zm-12 2l5 -7 4 6c-4,3 -9,1 -9,1zm-7 -9l9 0 -5 7c-4,-1 -4,-7 -4,-7zm3 -10l5 7 -9 0c-1,-4 4,-7 4,-7zm10 8c0,1 -1,2 -2,2 -1,0 -2,-1 -2,-2 0,-1 1,-1 2,-1 1,0 2,0 2,1zm3 -10l-4 7 -4 -7c3,-2 8,0 8,0zm-4 -2c-8,0 -15,5 -15,12 0,7 7,13 15,13 7,0 14,-6 14,-13 0,-7 -7,-12 -14,-12z"/>
   <path class="fil0" d="M217 75l5 -6c4,2 3,7 3,7l-8 -1zm4 10l-5 -7 9 0c1,4 -4,7 -4,7zm-12 2l5 -7 4 6c-4,3 -9,1 -9,1zm-7 -9l9 0 -5 7c-4,-1 -4,-7 -4,-7zm3 -10l5 7 -9 0c-1,-4 4,-7 4,-7zm10 8c0,1 -1,2 -2,2 -1,0 -2,-1 -2,-2 0,-1 1,-1 2,-1 1,0 2,0 2,1zm3 -10l-4 7 -4 -7c3,-2 8,0 8,0zm-4 -2c-8,0 -15,5 -15,12 0,7 7,13 15,13 7,0 14,-6 14,-13 0,-7 -7,-12 -14,-12z"/>
  </g>
 </g>
</svg>
