<?xml version="1.0" encoding="UTF-8"?>
<!DOCTYPE svg PUBLIC "-//W3C//DTD SVG 1.1//EN" "http://www.w3.org/Graphics/SVG/1.1/DTD/svg11.dtd">
<!-- Creator: CorelDRAW X7 -->
<svg xmlns="http://www.w3.org/2000/svg" xml:space="preserve" width="0.251in" height="0.094in" version="1.1" style="shape-rendering:geometricPrecision; text-rendering:geometricPrecision; image-rendering:optimizeQuality; fill-rule:evenodd; clip-rule:evenodd"
viewBox="0 0 251 94"
 xmlns:xlink="http://www.w3.org/1999/xlink">
 <defs>
  <style type="text/css">
   <![CDATA[
    .fil0 {fill:#2E3031}
   ]]>
  </style>
 </defs>
 <g id="Layer_x0020_1">
  <metadata id="CorelCorpID_0Corel-Layer"/>
  <g id="_2369570285232">
   <path class="fil0" d="M157 23c0,0 -29,3 -33,2 0,0 0,-4 -3,-4 0,0 2,3 0,5 0,0 13,1 36,-3zm-72 19l-17 0c-1,0 -1,0 -1,0 0,1 0,1 1,1l17 0c0,0 0,0 0,-1 0,0 0,0 0,0zm0 0l-17 0c-1,0 -1,0 -1,0 0,1 0,1 1,1l17 0c0,0 0,0 0,-1 0,0 0,0 0,0zm0 0l-17 0c-1,0 -1,0 -1,0 0,1 0,1 1,1l17 0c0,0 0,0 0,-1 0,0 0,0 0,0zm0 0l-17 0c-1,0 -1,0 -1,0 0,1 0,1 1,1l17 0c0,0 0,0 0,-1 0,0 0,0 0,0zm0 0l-17 0c-1,0 -1,0 -1,0 0,1 0,1 1,1l17 0c0,0 0,0 0,-1 0,0 0,0 0,0zm0 0l-17 0c-1,0 -1,0 -1,0 0,1 0,1 1,1l17 0c0,0 0,0 0,-1 0,0 0,0 0,0zm0 0l-17 0c-1,0 -1,0 -1,0 0,1 0,1 1,1l17 0c0,0 0,0 0,-1 0,0 0,0 0,0zm91 -24c-2,2 -8,3 -8,3 0,0 -1,-3 2,-7 0,-1 6,2 6,2 0,0 1,0 0,2zm-35 -11c-17,0 -47,21 -47,21 1,0 10,0 13,-1 1,-1 2,-1 2,-2 -1,-4 0,-5 0,-5 0,0 6,-4 9,-2 0,0 16,-13 43,-7 0,0 2,0 0,3 -1,3 -3,8 -3,9 8,0 16,-1 17,-2 5,-1 9,1 12,-5 3,-7 -29,-10 -46,-9zm-56 35l-17 0c-1,0 -1,0 -1,0 0,1 0,1 1,1l17 0c0,0 0,0 0,-1 0,0 0,0 0,0zm91 -24c-2,2 -8,3 -8,3 0,0 -1,-3 2,-7 0,-1 6,2 6,2 0,0 1,0 0,2zm-35 -11c-17,0 -47,21 -47,21 1,0 10,0 13,-1 1,-1 2,-1 2,-2 -1,-4 0,-5 0,-5 0,0 6,-4 9,-2 0,0 16,-13 43,-7 0,0 2,0 0,3 -1,3 -3,8 -3,9 8,0 16,-1 17,-2 5,-1 9,1 12,-5 3,-7 -29,-10 -46,-9zm-56 35l-17 0c-1,0 -1,0 -1,0 0,1 0,1 1,1l17 0c0,0 0,0 0,-1 0,0 0,0 0,0zm91 -24c-2,2 -8,3 -8,3 0,0 -1,-3 2,-7 0,-1 6,2 6,2 0,0 1,0 0,2zm-35 -11c-17,0 -47,21 -47,21 1,0 10,0 13,-1 1,-1 2,-1 2,-2 -1,-4 0,-5 0,-5 0,0 6,-4 9,-2 0,0 16,-13 43,-7 0,0 2,0 0,3 -1,3 -3,8 -3,9 8,0 16,-1 17,-2 5,-1 9,1 12,-5 3,-7 -29,-10 -46,-9zm-56 35l-17 0c-1,0 -1,0 -1,0 0,1 0,1 1,1l17 0c0,0 0,0 0,-1 0,0 0,0 0,0zm91 -24c-2,2 -8,3 -8,3 0,0 -1,-3 2,-7 0,-1 6,2 6,2 0,0 1,0 0,2zm-35 -11c-17,0 -47,21 -47,21 1,0 10,0 13,-1 1,-1 2,-1 2,-2 -1,-4 0,-5 0,-5 0,0 6,-4 9,-2 0,0 16,-13 43,-7 0,0 2,0 0,3 -1,3 -3,8 -3,9 8,0 16,-1 17,-2 5,-1 9,1 12,-5 3,-7 -29,-10 -46,-9zm-56 35l-17 0c-1,0 -1,0 -1,0 0,1 0,1 1,1l17 0c0,0 0,0 0,-1 0,0 0,0 0,0zm91 -24c-2,2 -8,3 -8,3 0,0 -1,-3 2,-7 0,-1 6,2 6,2 0,0 1,0 0,2zm-35 -11c-17,0 -47,21 -47,21 1,0 10,0 13,-1 1,-1 2,-1 2,-2 -1,-4 0,-5 0,-5 0,0 6,-4 9,-2 0,0 16,-13 43,-7 0,0 2,0 0,3 -1,3 -3,8 -3,9 8,0 16,-1 17,-2 5,-1 9,1 12,-5 3,-7 -29,-10 -46,-9zm-56 35l-17 0c-1,0 -1,0 -1,0 0,1 0,1 1,1l17 0c0,0 0,0 0,-1 0,0 0,0 0,0zm91 -24c-2,2 -8,3 -8,3 0,0 -1,-3 2,-7 0,-1 6,2 6,2 0,0 1,0 0,2zm-35 -11c-17,0 -47,21 -47,21 1,0 10,0 13,-1 1,-1 2,-1 2,-2 -1,-4 0,-5 0,-5 0,0 6,-4 9,-2 0,0 16,-13 43,-7 0,0 2,0 0,3 -1,3 -3,8 -3,9 8,0 16,-1 17,-2 5,-1 9,1 12,-5 3,-7 -29,-10 -46,-9zm-56 35c0,0 0,0 0,0l-17 0c-1,0 -1,0 -1,0 0,1 0,1 1,1l17 0c0,0 0,0 0,-1zm85 -28c0,-1 6,2 6,2 0,0 1,0 0,2 -2,2 -8,3 -8,3 0,0 -1,-3 2,-7zm-61 11c-1,-4 0,-5 0,-5 0,0 6,-4 9,-2 0,0 16,-13 43,-7 0,0 2,0 0,3 -1,3 -3,8 -3,9 8,0 16,-1 17,-2 5,-1 9,1 12,-5 3,-7 -29,-10 -46,-9 -17,0 -47,21 -47,21 1,0 10,0 13,-1 1,-1 2,-1 2,-2zm125 30c-1,2 -4,4 -4,3 -1,-8 -5,-13 -5,-13 8,2 24,-6 24,-6 1,3 0,8 0,8 -9,0 -13,6 -15,8zm-54 2c-17,-13 -9,-17 -9,-17 -4,-1 -77,2 -82,2 4,-1 73,-5 85,-5 12,1 13,6 13,6 11,-7 16,-5 16,-5 -17,0 -23,19 -23,19zm-3 20l-106 3c-4,-2 12,-3 12,-3 0,0 73,-3 80,-3 6,0 9,0 13,1 4,1 1,2 1,2zm-113 -35c-2,-3 21,-3 21,-3 0,0 3,3 2,6 -1,2 -13,2 -16,2 -4,-1 -7,-5 -7,-5zm2 14c0,0 0,0 0,0 -1,-1 -1,-1 -1,-1 0,0 0,-1 0,-1 -1,0 -1,0 -1,-1 0,0 0,0 0,0 -1,-1 -1,-2 -2,-2 0,0 0,-1 0,-1 -1,-1 -2,-3 -4,-4 0,0 0,0 0,-1 0,0 0,0 -1,0 0,0 0,-1 -1,-1 0,0 0,0 -1,-1 0,0 -1,0 -1,-1 0,0 -1,0 -1,0 0,0 0,0 0,0 -1,0 -1,0 -1,0 0,-1 0,-1 -1,-1 0,0 0,0 -1,0 0,-1 0,-1 -1,-1 0,0 0,0 0,0 -1,0 -1,0 -1,0 -1,0 -1,-1 -2,-1 0,0 0,0 0,0 0,0 0,0 0,0 0,0 -1,0 -1,0 0,0 -1,0 -1,0 0,0 0,0 -1,0 0,0 -1,0 -1,0 -17,1 -23,19 -23,19l-4 0c0,0 -5,-3 -10,-3 -5,1 -2,-3 4,-4 6,-1 12,-9 13,-11 1,-2 23,-8 37,-7 0,0 -21,1 -36,9 0,0 0,2 6,0 1,-1 1,-1 2,-1 0,0 1,0 1,0 1,-1 1,-1 2,-2 1,0 1,0 2,0 0,0 1,0 1,0 0,-1 0,-1 1,-1 0,0 0,0 0,0 1,0 1,0 1,0 0,0 1,0 1,0 0,0 1,0 1,0 0,0 1,0 1,0 0,0 0,0 0,0 0,0 0,0 0,0 1,0 1,0 2,0 0,0 0,0 1,0 0,0 0,0 1,0 0,0 0,0 0,0 1,0 1,0 1,0 0,0 0,0 1,0 0,0 0,0 0,0 0,0 0,0 1,0 0,0 0,0 0,0 1,0 1,1 1,1 0,0 0,0 1,0 0,0 1,0 1,1 0,0 1,0 1,0 0,0 1,1 2,1 0,0 0,1 0,1 0,0 0,0 0,0 1,0 1,0 1,0 0,0 0,0 0,0 0,0 0,0 0,0 0,0 0,1 1,1 0,0 0,0 0,0 0,0 0,0 0,0 0,0 1,1 1,1 0,0 0,0 0,0 0,1 1,1 1,1 0,0 0,0 0,1 0,0 0,0 0,0 1,0 1,0 1,1 0,0 1,1 1,1 0,1 1,1 1,1 0,1 1,2 2,3 0,0 0,1 0,1 1,1 1,2 2,3 0,0 0,0 0,1 0,0 0,-1 0,-1zm-64 -5c6,-8 17,-9 17,-9 -8,9 -17,9 -17,9zm87 -6c0,0 0,21 2,26l48 -2c0,0 14,1 20,-12 0,0 4,-11 5,-15 0,1 -2,23 -12,26 -10,3 -63,5 -63,5 0,0 -2,-22 0,-28zm68 -11c0,1 0,1 -1,1l-9 0c0,0 -1,0 -1,-1 0,-1 1,-1 1,-1l9 0c1,0 1,0 1,1zm-52 -4c0,0 -11,0 -13,0 -1,0 -1,-1 -1,-1 0,0 3,-5 23,-15 19,-10 31,-9 31,-9 55,2 45,10 45,10l-4 6 -13 3 -56 4 -12 2zm145 8l-2 -2c0,0 -6,2 -10,1 -4,0 -8,-7 -4,-7 1,0 2,0 3,0 0,0 0,0 0,0 4,-1 7,-4 7,-4l2 -5c0,0 3,-5 -2,-5 -5,1 -10,3 -10,3 0,0 -44,-13 -53,-15 -8,-2 -45,-11 -78,9 0,0 -20,11 -22,11 0,0 -61,4 -81,26 0,0 0,7 0,13 0,0 -1,3 1,6 0,0 -1,3 1,2l0 6c0,0 2,-2 3,3 0,0 12,3 14,2 0,0 -3,-41 22,-41 24,0 26,26 27,41l1 1c0,0 107,-4 110,-2 0,0 1,0 1,-2 0,0 -3,-40 26,-40 29,0 22,37 22,37 0,0 22,-5 18,-9 0,0 8,-13 4,-29zm-74 -20c-2,2 -8,3 -8,3 0,0 -1,-3 2,-7 0,-1 6,2 6,2 0,0 1,0 0,2zm-35 -11c-17,0 -47,21 -47,21 1,0 10,0 13,-1 1,-1 2,-1 2,-2 -1,-4 0,-5 0,-5 0,0 6,-4 9,-2 0,0 16,-13 43,-7 0,0 2,0 0,3 -1,3 -3,8 -3,9 8,0 16,-1 17,-2 5,-1 9,1 12,-5 3,-7 -29,-10 -46,-9zm-56 35l-17 0c-1,0 -1,0 -1,0 0,1 0,1 1,1l17 0c0,0 0,0 0,-1 0,0 0,0 0,0zm91 -24c-2,2 -8,3 -8,3 0,0 -1,-3 2,-7 0,-1 6,2 6,2 0,0 1,0 0,2zm-35 -11c-17,0 -47,21 -47,21 1,0 10,0 13,-1 1,-1 2,-1 2,-2 -1,-4 0,-5 0,-5 0,0 6,-4 9,-2 0,0 16,-13 43,-7 0,0 2,0 0,3 -1,3 -3,8 -3,9 8,0 16,-1 17,-2 5,-1 9,1 12,-5 3,-7 -29,-10 -46,-9zm-56 35l-17 0c-1,0 -1,0 -1,0 0,1 0,1 1,1l17 0c0,0 0,0 0,-1 0,0 0,0 0,0zm91 -24c-2,2 -8,3 -8,3 0,0 -1,-3 2,-7 0,-1 6,2 6,2 0,0 1,0 0,2zm-35 -11c-17,0 -47,21 -47,21 1,0 10,0 13,-1 1,-1 2,-1 2,-2 -1,-4 0,-5 0,-5 0,0 6,-4 9,-2 0,0 16,-13 43,-7 0,0 2,0 0,3 -1,3 -3,8 -3,9 8,0 16,-1 17,-2 5,-1 9,1 12,-5 3,-7 -29,-10 -46,-9zm-56 35l-17 0c-1,0 -1,0 -1,0 0,1 0,1 1,1l17 0c0,0 0,0 0,-1 0,0 0,0 0,0zm91 -24c-2,2 -8,3 -8,3 0,0 -1,-3 2,-7 0,-1 6,2 6,2 0,0 1,0 0,2zm-35 -11c-17,0 -47,21 -47,21 1,0 10,0 13,-1 1,-1 2,-1 2,-2 -1,-4 0,-5 0,-5 0,0 6,-4 9,-2 0,0 16,-13 43,-7 0,0 2,0 0,3 -1,3 -3,8 -3,9 8,0 16,-1 17,-2 5,-1 9,1 12,-5 3,-7 -29,-10 -46,-9zm-56 35l-17 0c-1,0 -1,0 -1,0 0,1 0,1 1,1l17 0c0,0 0,0 0,-1 0,0 0,0 0,0zm91 -24c-2,2 -8,3 -8,3 0,0 -1,-3 2,-7 0,-1 6,2 6,2 0,0 1,0 0,2zm-35 -11c-17,0 -47,21 -47,21 1,0 10,0 13,-1 1,-1 2,-1 2,-2 -1,-4 0,-5 0,-5 0,0 6,-4 9,-2 0,0 16,-13 43,-7 0,0 2,0 0,3 -1,3 -3,8 -3,9 8,0 16,-1 17,-2 5,-1 9,1 12,-5 3,-7 -29,-10 -46,-9zm-56 35l-17 0c-1,0 -1,0 -1,0 0,1 0,1 1,1l17 0c0,0 0,0 0,-1 0,0 0,0 0,0zm91 -24c-2,2 -8,3 -8,3 0,0 -1,-3 2,-7 0,-1 6,2 6,2 0,0 1,0 0,2zm-35 -11c-17,0 -47,21 -47,21 1,0 10,0 13,-1 1,-1 2,-1 2,-2 -1,-4 0,-5 0,-5 0,0 6,-4 9,-2 0,0 16,-13 43,-7 0,0 2,0 0,3 -1,3 -3,8 -3,9 8,0 16,-1 17,-2 5,-1 9,1 12,-5 3,-7 -29,-10 -46,-9zm-56 35l-17 0c-1,0 -1,0 -1,0 0,1 0,1 1,1l17 0c0,0 0,0 0,-1 0,0 0,0 0,0zm0 0l-17 0c-1,0 -1,0 -1,0 0,1 0,1 1,1l17 0c0,0 0,0 0,-1 0,0 0,0 0,0zm0 0l-17 0c-1,0 -1,0 -1,0 0,1 0,1 1,1l17 0c0,0 0,0 0,-1 0,0 0,0 0,0zm0 0l-17 0c-1,0 -1,0 -1,0 0,1 0,1 1,1l17 0c0,0 0,0 0,-1 0,0 0,0 0,0zm0 0l-17 0c-1,0 -1,0 -1,0 0,1 0,1 1,1l17 0c0,0 0,0 0,-1 0,0 0,0 0,0zm0 0l-17 0c-1,0 -1,0 -1,0 0,1 0,1 1,1l17 0c0,0 0,0 0,-1 0,0 0,0 0,0zm0 0l-17 0c-1,0 -1,0 -1,0 0,1 0,1 1,1l17 0c0,0 0,0 0,-1 0,0 0,0 0,0zm0 0l-17 0c-1,0 -1,0 -1,0 0,1 0,1 1,1l17 0c0,0 0,0 0,-1 0,0 0,0 0,0zm0 0l-17 0c-1,0 -1,0 -1,0 0,1 0,1 1,1l17 0c0,0 0,0 0,-1 0,0 0,0 0,0z"/>
   <path class="fil0" d="M2 74c0,0 2,0 2,3l13 3c0,0 -24,-1 -15,-6z"/>
   <path class="fil0" d="M67 58c-1,0 -1,0 -1,0 0,0 1,0 1,0z"/>
   <path class="fil0" d="M85 42c0,1 0,1 0,1l-17 0c-1,0 -1,0 -1,-1 0,0 0,0 1,0l17 0c0,0 0,0 0,0z"/>
   <path class="fil0" d="M85 42c0,1 0,1 0,1l-17 0c-1,0 -1,0 -1,-1 0,0 0,0 1,0l17 0c0,0 0,0 0,0z"/>
   <path class="fil0" d="M176 18c-2,2 -8,3 -8,3 0,0 -1,-3 2,-7 0,-1 6,2 6,2 0,0 1,0 0,2zm-35 -11c-17,0 -47,21 -47,21 1,0 10,0 13,-1 1,-1 2,-1 2,-2 -1,-4 0,-5 0,-5 0,0 6,-4 9,-2 0,0 16,-13 43,-7 0,0 2,0 0,3 -1,3 -3,8 -3,9 8,0 16,-1 17,-2 5,-1 9,1 12,-5 3,-7 -29,-10 -46,-9z"/>
   <path class="fil0" d="M176 18c-2,2 -8,3 -8,3 0,0 -1,-3 2,-7 0,-1 6,2 6,2 0,0 1,0 0,2zm-18 5c8,0 16,-1 17,-2 5,-1 9,1 12,-5 3,-7 -29,-10 -46,-9 -17,0 -47,21 -47,21 1,0 10,0 13,-1 1,-1 2,-1 2,-2 -1,-4 0,-5 0,-5 0,0 6,-4 9,-2 0,0 16,-13 43,-7 0,0 2,0 0,3 -1,3 -3,8 -3,9z"/>
   <path class="fil0" d="M118 18c0,0 2,4 1,7 -1,4 -10,2 -10,1 0,-1 -1,-5 2,-6 4,-2 7,-2 7,-2z"/>
   <path class="fil0" d="M44 72l0 0 0 0c0,0 0,0 0,0zm0 0l0 0 0 0c0,0 0,0 0,0zm0 0l0 0 0 0c0,0 0,0 0,0zm0 0l0 0 0 0c0,0 0,0 0,0zm0 0l0 0 0 0c0,0 0,0 0,0zm0 0l0 0 0 0c0,0 0,0 0,0zm0 0l0 0 0 0c0,0 0,0 0,0zm0 0l0 0 0 0c0,0 0,0 0,0zm0 0l0 0 0 0c0,0 0,0 0,0zm0 0l0 0 0 0c0,0 0,0 0,0zm-3 -4c-9,-5 -10,-9 -10,-10 -2,3 -3,7 -3,11 0,2 0,4 0,5 1,-1 3,-4 13,-4 0,0 0,-1 0,-1 0,0 0,0 0,-1zm1 4c0,0 0,0 0,-1 -8,8 -11,8 -12,8 2,5 6,8 11,9 -1,-1 -2,-5 1,-16zm2 0l0 0 0 0c0,0 0,0 0,0zm-1 -21c-2,0 -5,0 -7,2 2,0 4,3 6,14 1,0 1,0 1,0 0,0 0,0 0,0 3,-13 6,-14 7,-15 -2,-1 -4,-1 -7,-1zm2 20c0,1 -1,1 -1,1 5,9 4,14 3,15 5,-1 9,-5 10,-10 -1,0 -4,1 -12,-6zm10 -14c0,1 -1,5 -10,11 0,0 0,1 0,1 10,-1 13,2 14,3 0,-1 0,-2 0,-3 0,-5 -2,-9 -4,-12zm-10 14c0,1 -1,1 -1,1 5,9 4,14 3,15 5,-1 9,-5 10,-10 -1,0 -4,1 -12,-6zm-2 -20c-2,0 -5,0 -7,2 2,0 4,3 6,14 1,0 1,0 1,0 0,0 0,0 0,0 3,-13 6,-14 7,-15 -2,-1 -4,-1 -7,-1zm1 21l0 0 0 0c0,0 0,0 0,0zm-2 0c0,0 0,0 0,-1 -8,8 -11,8 -12,8 2,5 6,8 11,9 -1,-1 -2,-5 1,-16zm-1 -4c-9,-5 -10,-9 -10,-10 -2,3 -3,7 -3,11 0,2 0,4 0,5 1,-1 3,-4 13,-4 0,0 0,-1 0,-1 0,0 0,0 0,-1zm14 -11c0,1 -1,5 -10,11 0,0 0,1 0,1 10,-1 13,2 14,3 0,-1 0,-2 0,-3 0,-5 -2,-9 -4,-12zm-14 11c-9,-5 -10,-9 -10,-10 -2,3 -3,7 -3,11 0,2 0,4 0,5 1,-1 3,-4 13,-4 0,0 0,-1 0,-1 0,0 0,0 0,-1zm1 4c0,0 0,0 0,-1 -8,8 -11,8 -12,8 2,5 6,8 11,9 -1,-1 -2,-5 1,-16zm2 0l0 0 0 0c0,0 0,0 0,0zm-1 -21c-2,0 -5,0 -7,2 2,0 4,3 6,14 1,0 1,0 1,0 0,0 0,0 0,0 3,-13 6,-14 7,-15 -2,-1 -4,-1 -7,-1zm2 20c0,1 -1,1 -1,1 5,9 4,14 3,15 5,-1 9,-5 10,-10 -1,0 -4,1 -12,-6zm10 -14c0,1 -1,5 -10,11 0,0 0,1 0,1 10,-1 13,2 14,3 0,-1 0,-2 0,-3 0,-5 -2,-9 -4,-12zm-10 14c0,1 -1,1 -1,1 5,9 4,14 3,15 5,-1 9,-5 10,-10 -1,0 -4,1 -12,-6zm-2 -20c-2,0 -5,0 -7,2 2,0 4,3 6,14 1,0 1,0 1,0 0,0 0,0 0,0 3,-13 6,-14 7,-15 -2,-1 -4,-1 -7,-1zm1 21l0 0 0 0c0,0 0,0 0,0zm-2 0c0,0 0,0 0,-1 -8,8 -11,8 -12,8 2,5 6,8 11,9 -1,-1 -2,-5 1,-16zm-1 -4c-9,-5 -10,-9 -10,-10 -2,3 -3,7 -3,11 0,2 0,4 0,5 1,-1 3,-4 13,-4 0,0 0,-1 0,-1 0,0 0,0 0,-1zm14 -11c0,1 -1,5 -10,11 0,0 0,1 0,1 10,-1 13,2 14,3 0,-1 0,-2 0,-3 0,-5 -2,-9 -4,-12zm-14 11c-9,-5 -10,-9 -10,-10 -2,3 -3,7 -3,11 0,2 0,4 0,5 1,-1 3,-4 13,-4 0,0 0,-1 0,-1 0,0 0,0 0,-1zm1 4c0,0 0,0 0,-1 -8,8 -11,8 -12,8 2,5 6,8 11,9 -1,-1 -2,-5 1,-16zm2 0l0 0 0 0c0,0 0,0 0,0zm-1 -21c-2,0 -5,0 -7,2 2,0 4,3 6,14 1,0 1,0 1,0 0,0 0,0 0,0 3,-13 6,-14 7,-15 -2,-1 -4,-1 -7,-1zm2 20c0,1 -1,1 -1,1 5,9 4,14 3,15 5,-1 9,-5 10,-10 -1,0 -4,1 -12,-6zm10 -14c0,1 -1,5 -10,11 0,0 0,1 0,1 10,-1 13,2 14,3 0,-1 0,-2 0,-3 0,-5 -2,-9 -4,-12zm-10 14c0,1 -1,1 -1,1 5,9 4,14 3,15 5,-1 9,-5 10,-10 -1,0 -4,1 -12,-6zm-2 -20c-2,0 -5,0 -7,2 2,0 4,3 6,14 1,0 1,0 1,0 0,0 0,0 0,0 3,-13 6,-14 7,-15 -2,-1 -4,-1 -7,-1zm1 21l0 0 0 0c0,0 0,0 0,0zm-2 0c0,0 0,0 0,-1 -8,8 -11,8 -12,8 2,5 6,8 11,9 -1,-1 -2,-5 1,-16zm-1 -4c-9,-5 -10,-9 -10,-10 -2,3 -3,7 -3,11 0,2 0,4 0,5 1,-1 3,-4 13,-4 0,0 0,-1 0,-1 0,0 0,0 0,-1zm14 -11c0,1 -1,5 -10,11 0,0 0,1 0,1 10,-1 13,2 14,3 0,-1 0,-2 0,-3 0,-5 -2,-9 -4,-12zm-14 11c-9,-5 -10,-9 -10,-10 -2,3 -3,7 -3,11 0,2 0,4 0,5 1,-1 3,-4 13,-4 0,0 0,-1 0,-1 0,0 0,0 0,-1zm1 4c0,0 0,0 0,-1 -8,8 -11,8 -12,8 2,5 6,8 11,9 -1,-1 -2,-5 1,-16zm2 0l0 0 0 0c0,0 0,0 0,0zm-1 -21c-2,0 -5,0 -7,2 2,0 4,3 6,14 1,0 1,0 1,0 0,0 0,0 0,0 3,-13 6,-14 7,-15 -2,-1 -4,-1 -7,-1zm2 20c0,1 -1,1 -1,1 5,9 4,14 3,15 5,-1 9,-5 10,-10 -1,0 -4,1 -12,-6zm10 -14c0,1 -1,5 -10,11 0,0 0,1 0,1 10,-1 13,2 14,3 0,-1 0,-2 0,-3 0,-5 -2,-9 -4,-12zm-10 14c0,1 -1,1 -1,1 5,9 4,14 3,15 5,-1 9,-5 10,-10 -1,0 -4,1 -12,-6zm-2 -20c-2,0 -5,0 -7,2 2,0 4,3 6,14 1,0 1,0 1,0 0,0 0,0 0,0 3,-13 6,-14 7,-15 -2,-1 -4,-1 -7,-1zm1 21l0 0 0 0c0,0 0,0 0,0zm-2 0c0,0 0,0 0,-1 -8,8 -11,8 -12,8 2,5 6,8 11,9 -1,-1 -2,-5 1,-16zm-1 -4c-9,-5 -10,-9 -10,-10 -2,3 -3,7 -3,11 0,2 0,4 0,5 1,-1 3,-4 13,-4 0,0 0,-1 0,-1 0,0 0,0 0,-1zm14 -11c0,1 -1,5 -10,11 0,0 0,1 0,1 10,-1 13,2 14,3 0,-1 0,-2 0,-3 0,-5 -2,-9 -4,-12zm-14 11c-9,-5 -10,-9 -10,-10 -2,3 -3,7 -3,11 0,2 0,4 0,5 1,-1 3,-4 13,-4 0,0 0,-1 0,-1 0,0 0,0 0,-1zm1 4c0,0 0,0 0,-1 -8,8 -11,8 -12,8 2,5 6,8 11,9 -1,-1 -2,-5 1,-16zm2 0l0 0 0 0c0,0 0,0 0,0zm-1 -21c-2,0 -5,0 -7,2 2,0 4,3 6,14 1,0 1,0 1,0 0,0 0,0 0,0 3,-13 6,-14 7,-15 -2,-1 -4,-1 -7,-1zm2 20c0,1 -1,1 -1,1 5,9 4,14 3,15 5,-1 9,-5 10,-10 -1,0 -4,1 -12,-6zm10 -14c0,1 -1,5 -10,11 0,0 0,1 0,1 10,-1 13,2 14,3 0,-1 0,-2 0,-3 0,-5 -2,-9 -4,-12zm-10 14c0,1 -1,1 -1,1 5,9 4,14 3,15 5,-1 9,-5 10,-10 -1,0 -4,1 -12,-6zm-2 -20c-2,0 -5,0 -7,2 2,0 4,3 6,14 1,0 1,0 1,0 0,0 0,0 0,0 3,-13 6,-14 7,-15 -2,-1 -4,-1 -7,-1zm1 21l0 0 0 0c0,0 0,0 0,0zm-2 0c0,0 0,0 0,-1 -8,8 -11,8 -12,8 2,5 6,8 11,9 -1,-1 -2,-5 1,-16zm-1 -4c-9,-5 -10,-9 -10,-10 -2,3 -3,7 -3,11 0,2 0,4 0,5 1,-1 3,-4 13,-4 0,0 0,-1 0,-1 0,0 0,0 0,-1zm14 -11c0,1 -1,5 -10,11 0,0 0,1 0,1 10,-1 13,2 14,3 0,-1 0,-2 0,-3 0,-5 -2,-9 -4,-12zm-14 11c-9,-5 -10,-9 -10,-10 -2,3 -3,7 -3,11 0,2 0,4 0,5 1,-1 3,-4 13,-4 0,0 0,-1 0,-1 0,0 0,0 0,-1zm1 4c0,0 0,0 0,-1 -8,8 -11,8 -12,8 2,5 6,8 11,9 -1,-1 -2,-5 1,-16zm2 0l0 0 0 0c0,0 0,0 0,0zm-1 -21c-2,0 -5,0 -7,2 2,0 4,3 6,14 1,0 1,0 1,0 0,0 0,0 0,0 3,-13 6,-14 7,-15 -2,-1 -4,-1 -7,-1zm2 20c0,1 -1,1 -1,1 5,9 4,14 3,15 5,-1 9,-5 10,-10 -1,0 -4,1 -12,-6zm10 -14c0,1 -1,5 -10,11 0,0 0,1 0,1 10,-1 13,2 14,3 0,-1 0,-2 0,-3 0,-5 -2,-9 -4,-12zm-10 14c0,1 -1,1 -1,1 5,9 4,14 3,15 5,-1 9,-5 10,-10 -1,0 -4,1 -12,-6zm-2 -20c-2,0 -5,0 -7,2 2,0 4,3 6,14 1,0 1,0 1,0 0,0 0,0 0,0 3,-13 6,-14 7,-15 -2,-1 -4,-1 -7,-1zm1 21l0 0 0 0c0,0 0,0 0,0zm-2 0c0,0 0,0 0,-1 -8,8 -11,8 -12,8 2,5 6,8 11,9 -1,-1 -2,-5 1,-16zm-1 -4c-9,-5 -10,-9 -10,-10 -2,3 -3,7 -3,11 0,2 0,4 0,5 1,-1 3,-4 13,-4 0,0 0,-1 0,-1 0,0 0,0 0,-1zm14 -11c0,1 -1,5 -10,11 0,0 0,1 0,1 10,-1 13,2 14,3 0,-1 0,-2 0,-3 0,-5 -2,-9 -4,-12zm-14 12c0,0 0,0 0,-1 -9,-5 -10,-9 -10,-10 -2,3 -3,7 -3,11 0,2 0,4 0,5 1,-1 3,-4 13,-4 0,0 0,-1 0,-1zm1 2c-8,8 -11,8 -12,8 2,5 6,8 11,9 -1,-1 -2,-5 1,-16 0,0 0,0 0,-1zm2 1l0 0c0,0 0,0 0,0l0 0zm6 -20c-2,-1 -4,-1 -7,-1 -2,0 -5,0 -7,2 2,0 4,3 6,14 1,0 1,0 1,0 0,0 0,0 0,0 3,-13 6,-14 7,-15zm-5 19c0,1 -1,1 -1,1 5,9 4,14 3,15 5,-1 9,-5 10,-10 -1,0 -4,1 -12,-6zm-2 18c-9,0 -16,-9 -16,-20 0,-11 7,-19 16,-19 9,0 17,8 17,19 0,11 -8,20 -17,20zm0 -44c-11,0 -20,11 -20,24 0,14 9,25 20,25 11,0 21,-11 21,-25 0,-13 -10,-24 -21,-24zm12 12c0,1 -1,5 -10,11 0,0 0,1 0,1 10,-1 13,2 14,3 0,-1 0,-2 0,-3 0,-5 -2,-9 -4,-12zm-14 12c0,0 0,0 0,-1 -9,-5 -10,-9 -10,-10 -2,3 -3,7 -3,11 0,2 0,4 0,5 1,-1 3,-4 13,-4 0,0 0,-1 0,-1zm1 2c-8,8 -11,8 -12,8 2,5 6,8 11,9 -1,-1 -2,-5 1,-16 0,0 0,0 0,-1zm2 1l0 0c0,0 0,0 0,0l0 0zm6 -20c-2,-1 -4,-1 -7,-1 -2,0 -5,0 -7,2 2,0 4,3 6,14 1,0 1,0 1,0 0,0 0,0 0,0 3,-13 6,-14 7,-15zm-5 19c0,1 -1,1 -1,1 5,9 4,14 3,15 5,-1 9,-5 10,-10 -1,0 -4,1 -12,-6zm10 -14c0,1 -1,5 -10,11 0,0 0,1 0,1 10,-1 13,2 14,3 0,-1 0,-2 0,-3 0,-5 -2,-9 -4,-12zm-10 14c0,1 -1,1 -1,1 5,9 4,14 3,15 5,-1 9,-5 10,-10 -1,0 -4,1 -12,-6zm-2 -20c-2,0 -5,0 -7,2 2,0 4,3 6,14 1,0 1,0 1,0 0,0 0,0 0,0 3,-13 6,-14 7,-15 -2,-1 -4,-1 -7,-1zm1 21l0 0 0 0c0,0 0,0 0,0zm-2 0c0,0 0,0 0,-1 -8,8 -11,8 -12,8 2,5 6,8 11,9 -1,-1 -2,-5 1,-16zm-1 -4c-9,-5 -10,-9 -10,-10 -2,3 -3,7 -3,11 0,2 0,4 0,5 1,-1 3,-4 13,-4 0,0 0,-1 0,-1 0,0 0,0 0,-1zm14 -11c0,1 -1,5 -10,11 0,0 0,1 0,1 10,-1 13,2 14,3 0,-1 0,-2 0,-3 0,-5 -2,-9 -4,-12zm-14 11c-9,-5 -10,-9 -10,-10 -2,3 -3,7 -3,11 0,2 0,4 0,5 1,-1 3,-4 13,-4 0,0 0,-1 0,-1 0,0 0,0 0,-1zm1 4c0,0 0,0 0,-1 -8,8 -11,8 -12,8 2,5 6,8 11,9 -1,-1 -2,-5 1,-16zm2 0l0 0 0 0c0,0 0,0 0,0zm-1 -21c-2,0 -5,0 -7,2 2,0 4,3 6,14 1,0 1,0 1,0 0,0 0,0 0,0 3,-13 6,-14 7,-15 -2,-1 -4,-1 -7,-1zm2 20c0,1 -1,1 -1,1 5,9 4,14 3,15 5,-1 9,-5 10,-10 -1,0 -4,1 -12,-6zm10 -14c0,1 -1,5 -10,11 0,0 0,1 0,1 10,-1 13,2 14,3 0,-1 0,-2 0,-3 0,-5 -2,-9 -4,-12zm-10 14c0,1 -1,1 -1,1 5,9 4,14 3,15 5,-1 9,-5 10,-10 -1,0 -4,1 -12,-6zm-2 -20c-2,0 -5,0 -7,2 2,0 4,3 6,14 1,0 1,0 1,0 0,0 0,0 0,0 3,-13 6,-14 7,-15 -2,-1 -4,-1 -7,-1zm1 21l0 0 0 0c0,0 0,0 0,0zm-2 0c0,0 0,0 0,-1 -8,8 -11,8 -12,8 2,5 6,8 11,9 -1,-1 -2,-5 1,-16zm-1 -4c-9,-5 -10,-9 -10,-10 -2,3 -3,7 -3,11 0,2 0,4 0,5 1,-1 3,-4 13,-4 0,0 0,-1 0,-1 0,0 0,0 0,-1zm14 -11c0,1 -1,5 -10,11 0,0 0,1 0,1 10,-1 13,2 14,3 0,-1 0,-2 0,-3 0,-5 -2,-9 -4,-12zm-14 11c-9,-5 -10,-9 -10,-10 -2,3 -3,7 -3,11 0,2 0,4 0,5 1,-1 3,-4 13,-4 0,0 0,-1 0,-1 0,0 0,0 0,-1zm1 4c0,0 0,0 0,-1 -8,8 -11,8 -12,8 2,5 6,8 11,9 -1,-1 -2,-5 1,-16zm2 0l0 0 0 0c0,0 0,0 0,0zm-1 -21c-2,0 -5,0 -7,2 2,0 4,3 6,14 1,0 1,0 1,0 0,0 0,0 0,0 3,-13 6,-14 7,-15 -2,-1 -4,-1 -7,-1zm2 20c0,1 -1,1 -1,1 5,9 4,14 3,15 5,-1 9,-5 10,-10 -1,0 -4,1 -12,-6zm10 -14c0,1 -1,5 -10,11 0,0 0,1 0,1 10,-1 13,2 14,3 0,-1 0,-2 0,-3 0,-5 -2,-9 -4,-12zm-10 14c0,1 -1,1 -1,1 5,9 4,14 3,15 5,-1 9,-5 10,-10 -1,0 -4,1 -12,-6zm-2 -20c-2,0 -5,0 -7,2 2,0 4,3 6,14 1,0 1,0 1,0 0,0 0,0 0,0 3,-13 6,-14 7,-15 -2,-1 -4,-1 -7,-1zm1 21l0 0 0 0c0,0 0,0 0,0zm-2 0c0,0 0,0 0,-1 -8,8 -11,8 -12,8 2,5 6,8 11,9 -1,-1 -2,-5 1,-16zm-1 -4c-9,-5 -10,-9 -10,-10 -2,3 -3,7 -3,11 0,2 0,4 0,5 1,-1 3,-4 13,-4 0,0 0,-1 0,-1 0,0 0,0 0,-1zm14 -11c0,1 -1,5 -10,11 0,0 0,1 0,1 10,-1 13,2 14,3 0,-1 0,-2 0,-3 0,-5 -2,-9 -4,-12zm-14 11c-9,-5 -10,-9 -10,-10 -2,3 -3,7 -3,11 0,2 0,4 0,5 1,-1 3,-4 13,-4 0,0 0,-1 0,-1 0,0 0,0 0,-1zm1 4c0,0 0,0 0,-1 -8,8 -11,8 -12,8 2,5 6,8 11,9 -1,-1 -2,-5 1,-16zm2 0l0 0 0 0c0,0 0,0 0,0zm-1 -21c-2,0 -5,0 -7,2 2,0 4,3 6,14 1,0 1,0 1,0 0,0 0,0 0,0 3,-13 6,-14 7,-15 -2,-1 -4,-1 -7,-1zm2 20c0,1 -1,1 -1,1 5,9 4,14 3,15 5,-1 9,-5 10,-10 -1,0 -4,1 -12,-6zm10 -14c0,1 -1,5 -10,11 0,0 0,1 0,1 10,-1 13,2 14,3 0,-1 0,-2 0,-3 0,-5 -2,-9 -4,-12zm-10 14c0,1 -1,1 -1,1 5,9 4,14 3,15 5,-1 9,-5 10,-10 -1,0 -4,1 -12,-6zm-2 -20c-2,0 -5,0 -7,2 2,0 4,3 6,14 1,0 1,0 1,0 0,0 0,0 0,0 3,-13 6,-14 7,-15 -2,-1 -4,-1 -7,-1zm1 21l0 0 0 0c0,0 0,0 0,0zm-2 0c0,0 0,0 0,-1 -8,8 -11,8 -12,8 2,5 6,8 11,9 -1,-1 -2,-5 1,-16zm-1 -4c-9,-5 -10,-9 -10,-10 -2,3 -3,7 -3,11 0,2 0,4 0,5 1,-1 3,-4 13,-4 0,0 0,-1 0,-1 0,0 0,0 0,-1zm14 -11c0,1 -1,5 -10,11 0,0 0,1 0,1 10,-1 13,2 14,3 0,-1 0,-2 0,-3 0,-5 -2,-9 -4,-12zm-14 11c-9,-5 -10,-9 -10,-10 -2,3 -3,7 -3,11 0,2 0,4 0,5 1,-1 3,-4 13,-4 0,0 0,-1 0,-1 0,0 0,0 0,-1zm1 4c0,0 0,0 0,-1 -8,8 -11,8 -12,8 2,5 6,8 11,9 -1,-1 -2,-5 1,-16zm2 0l0 0 0 0c0,0 0,0 0,0zm-1 -21c-2,0 -5,0 -7,2 2,0 4,3 6,14 1,0 1,0 1,0 0,0 0,0 0,0 3,-13 6,-14 7,-15 -2,-1 -4,-1 -7,-1zm2 20c0,1 -1,1 -1,1 5,9 4,14 3,15 5,-1 9,-5 10,-10 -1,0 -4,1 -12,-6zm10 -14c0,1 -1,5 -10,11 0,0 0,1 0,1 10,-1 13,2 14,3 0,-1 0,-2 0,-3 0,-5 -2,-9 -4,-12zm-10 14c0,1 -1,1 -1,1 5,9 4,14 3,15 5,-1 9,-5 10,-10 -1,0 -4,1 -12,-6zm-2 -20c-2,0 -5,0 -7,2 2,0 4,3 6,14 1,0 1,0 1,0 0,0 0,0 0,0 3,-13 6,-14 7,-15 -2,-1 -4,-1 -7,-1zm1 21l0 0 0 0c0,0 0,0 0,0zm-2 0c0,0 0,0 0,-1 -8,8 -11,8 -12,8 2,5 6,8 11,9 -1,-1 -2,-5 1,-16zm-1 -4c-9,-5 -10,-9 -10,-10 -2,3 -3,7 -3,11 0,2 0,4 0,5 1,-1 3,-4 13,-4 0,0 0,-1 0,-1 0,0 0,0 0,-1zm14 -11c0,1 -1,5 -10,11 0,0 0,1 0,1 10,-1 13,2 14,3 0,-1 0,-2 0,-3 0,-5 -2,-9 -4,-12zm-14 11c-9,-5 -10,-9 -10,-10 -2,3 -3,7 -3,11 0,2 0,4 0,5 1,-1 3,-4 13,-4 0,0 0,-1 0,-1 0,0 0,0 0,-1zm1 4c0,0 0,0 0,-1 -8,8 -11,8 -12,8 2,5 6,8 11,9 -1,-1 -2,-5 1,-16zm2 0l0 0 0 0c0,0 0,0 0,0zm-1 -21c-2,0 -5,0 -7,2 2,0 4,3 6,14 1,0 1,0 1,0 0,0 0,0 0,0 3,-13 6,-14 7,-15 -2,-1 -4,-1 -7,-1zm2 20c0,1 -1,1 -1,1 5,9 4,14 3,15 5,-1 9,-5 10,-10 -1,0 -4,1 -12,-6zm10 -14c0,1 -1,5 -10,11 0,0 0,1 0,1 10,-1 13,2 14,3 0,-1 0,-2 0,-3 0,-5 -2,-9 -4,-12zm-10 14c0,1 -1,1 -1,1 5,9 4,14 3,15 5,-1 9,-5 10,-10 -1,0 -4,1 -12,-6zm-2 -20c-2,0 -5,0 -7,2 2,0 4,3 6,14 1,0 1,0 1,0 0,0 0,0 0,0 3,-13 6,-14 7,-15 -2,-1 -4,-1 -7,-1zm1 21l0 0 0 0c0,0 0,0 0,0zm-2 0c0,0 0,0 0,-1 -8,8 -11,8 -12,8 2,5 6,8 11,9 -1,-1 -2,-5 1,-16zm-1 -4c-9,-5 -10,-9 -10,-10 -2,3 -3,7 -3,11 0,2 0,4 0,5 1,-1 3,-4 13,-4 0,0 0,-1 0,-1 0,0 0,0 0,-1zm14 -11c0,1 -1,5 -10,11 0,0 0,1 0,1 10,-1 13,2 14,3 0,-1 0,-2 0,-3 0,-5 -2,-9 -4,-12zm-11 15l0 0 0 0c0,0 0,0 0,0zm0 0l0 0 0 0c0,0 0,0 0,0zm0 0l0 0 0 0c0,0 0,0 0,0zm0 0l0 0 0 0c0,0 0,0 0,0zm0 0l0 0 0 0c0,0 0,0 0,0zm0 0l0 0 0 0c0,0 0,0 0,0zm0 0l0 0 0 0c0,0 0,0 0,0zm0 0l0 0 0 0c0,0 0,0 0,0zm0 0l0 0 0 0c0,0 0,0 0,0zm0 0l0 0 0 0c0,0 0,0 0,0z"/>
   <path class="fil0" d="M41 69c0,0 0,1 0,1 -10,0 -12,3 -13,4 0,-1 0,-3 0,-5 0,-4 1,-8 3,-11 0,1 1,5 10,10 0,1 0,1 0,1z"/>
   <path class="fil0" d="M41 88c-5,-1 -9,-4 -11,-9 1,0 4,0 12,-8 0,1 0,1 0,1 -3,11 -2,15 -1,16z"/>
   <path class="fil0" d="M44 72l0 0 0 0c0,0 0,0 0,0z"/>
   <path class="fil0" d="M50 52c-1,1 -4,2 -7,15 0,0 0,0 0,0 0,0 0,0 -1,0 -2,-11 -4,-14 -6,-14 2,-2 5,-2 7,-2 3,0 5,0 7,1z"/>
   <path class="fil0" d="M57 77c-1,5 -5,9 -10,10 1,-1 2,-6 -3,-15 0,0 1,0 1,-1 8,7 11,6 12,6z"/>
   <path class="fil0" d="M59 69c0,1 0,2 0,3 -1,-1 -4,-4 -14,-3 0,0 0,-1 0,-1 9,-6 10,-10 10,-11 2,3 4,7 4,12z"/>
   <path class="fil0" d="M44 72l0 0 0 0c0,0 0,0 0,0zm0 0l0 0 0 0c0,0 0,0 0,0zm0 0l0 0 0 0c0,0 0,0 0,0zm0 0l0 0 0 0c0,0 0,0 0,0zm0 0l0 0 0 0c0,0 0,0 0,0zm0 0l0 0 0 0c0,0 0,0 0,0zm0 0l0 0 0 0c0,0 0,0 0,0zm0 0l0 0 0 0c0,0 0,0 0,0zm0 0l0 0 0 0c0,0 0,0 0,0zm0 0l0 0 0 0c0,0 0,0 0,0zm-3 -4c-9,-5 -10,-9 -10,-10 -2,3 -3,7 -3,11 0,2 0,4 0,5 1,-1 3,-4 13,-4 0,0 0,-1 0,-1 0,0 0,0 0,-1zm1 4c0,0 0,0 0,-1 -8,8 -11,8 -12,8 2,5 6,8 11,9 -1,-1 -2,-5 1,-16zm2 0l0 0 0 0c0,0 0,0 0,0zm-1 -21c-2,0 -5,0 -7,2 2,0 4,3 6,14 1,0 1,0 1,0 0,0 0,0 0,0 3,-13 6,-14 7,-15 -2,-1 -4,-1 -7,-1zm2 20c0,1 -1,1 -1,1 5,9 4,14 3,15 5,-1 9,-5 10,-10 -1,0 -4,1 -12,-6zm10 -14c0,1 -1,5 -10,11 0,0 0,1 0,1 10,-1 13,2 14,3 0,-1 0,-2 0,-3 0,-5 -2,-9 -4,-12zm-11 15l0 0 0 0c0,0 0,0 0,0zm0 0l0 0 0 0c0,0 0,0 0,0zm0 0l0 0 0 0c0,0 0,0 0,0zm0 0l0 0 0 0c0,0 0,0 0,0zm0 0l0 0 0 0c0,0 0,0 0,0zm0 0l0 0 0 0c0,0 0,0 0,0zm0 0l0 0 0 0c0,0 0,0 0,0zm0 0l0 0 0 0c0,0 0,0 0,0zm0 0l0 0 0 0c0,0 0,0 0,0zm0 0l0 0 0 0c0,0 0,0 0,0z"/>
   <path class="fil0" d="M45 69c0,1 0,2 0,2 0,0 0,0 0,0 0,1 -1,1 -1,1 0,0 0,0 0,0l0 0c0,0 -1,0 -1,0 0,0 0,0 -1,0 0,0 0,0 0,0 0,0 0,0 0,-1 0,0 0,0 0,0 -1,0 -1,-1 -1,-1 0,0 0,0 0,0 0,0 0,-1 0,-1 0,0 0,0 0,-1 0,0 0,0 0,0 0,0 1,-1 1,-1 0,0 0,0 0,0 1,0 1,0 1,0 0,0 0,0 0,0 1,0 1,0 1,0 0,0 1,0 1,1 0,0 0,0 0,0 0,0 0,1 0,1 0,0 0,0 0,0l0 0c0,0 0,0 0,0z"/>
   <path class="fil0" d="M44 72l0 0 0 0c0,0 0,0 0,0z"/>
   <path class="fil0" d="M44 72l0 0 0 0c0,0 0,0 0,0z"/>
   <path class="fil0" d="M206 69l0 0 0 0c0,0 0,0 0,0zm0 0l0 0 0 0c0,0 0,0 0,0zm0 0l0 0 0 0c0,0 0,0 0,0zm0 0l0 0 0 0c0,0 0,0 0,0zm0 0l0 0 0 0c0,0 0,0 0,0zm0 0l0 0 0 0c0,0 0,0 0,0zm0 0l0 0 0 0c0,0 0,0 0,0zm0 0l0 0 0 0c0,0 0,0 0,0zm0 0l0 0 0 0c0,0 0,0 0,0zm0 0l0 0 0 0c0,0 0,0 0,0zm-3 -3c-10,-6 -10,-10 -10,-11 -2,3 -3,7 -3,12 0,1 0,3 0,4 1,-1 3,-4 13,-4 0,0 0,0 0,0 0,-1 0,-1 0,-1zm1 3c0,0 0,0 -1,0 -6,8 -10,8 -11,7 2,5 6,8 11,9 -1,-1 -2,-5 1,-16zm2 0l0 0 0 0c0,0 0,0 0,0zm-1 -21c-2,0 -5,1 -7,2 1,1 4,3 6,14 1,0 1,0 1,0 0,0 0,0 1,0 2,-13 5,-14 6,-14 -2,-1 -4,-2 -7,-2zm2 20c0,1 -1,1 -1,1 4,10 4,14 3,16 5,-2 8,-6 10,-11 -1,1 -4,2 -12,-6zm9 -14c0,1 0,6 -9,11 0,1 1,1 1,1 9,-1 12,2 12,3 1,-1 1,-1 1,-2 0,-5 -2,-10 -5,-13zm-9 14c0,1 -1,1 -1,1 4,10 4,14 3,16 5,-2 8,-6 10,-11 -1,1 -4,2 -12,-6zm-2 -20c-2,0 -5,1 -7,2 1,1 4,3 6,14 1,0 1,0 1,0 0,0 0,0 1,0 2,-13 5,-14 6,-14 -2,-1 -4,-2 -7,-2zm1 21l0 0 0 0c0,0 0,0 0,0zm-2 0c0,0 0,0 -1,0 -6,8 -10,8 -11,7 2,5 6,8 11,9 -1,-1 -2,-5 1,-16zm-1 -3c-10,-6 -10,-10 -10,-11 -2,3 -3,7 -3,12 0,1 0,3 0,4 1,-1 3,-4 13,-4 0,0 0,0 0,0 0,-1 0,-1 0,-1zm13 -12c0,1 0,6 -9,11 0,1 1,1 1,1 9,-1 12,2 12,3 1,-1 1,-1 1,-2 0,-5 -2,-10 -5,-13zm-13 12c-10,-6 -10,-10 -10,-11 -2,3 -3,7 -3,12 0,1 0,3 0,4 1,-1 3,-4 13,-4 0,0 0,0 0,0 0,-1 0,-1 0,-1zm1 3c0,0 0,0 -1,0 -6,8 -10,8 -11,7 2,5 6,8 11,9 -1,-1 -2,-5 1,-16zm2 0l0 0 0 0c0,0 0,0 0,0zm-1 -21c-2,0 -5,1 -7,2 1,1 4,3 6,14 1,0 1,0 1,0 0,0 0,0 1,0 2,-13 5,-14 6,-14 -2,-1 -4,-2 -7,-2zm2 20c0,1 -1,1 -1,1 4,10 4,14 3,16 5,-2 8,-6 10,-11 -1,1 -4,2 -12,-6zm9 -14c0,1 0,6 -9,11 0,1 1,1 1,1 9,-1 12,2 12,3 1,-1 1,-1 1,-2 0,-5 -2,-10 -5,-13zm-9 14c0,1 -1,1 -1,1 4,10 4,14 3,16 5,-2 8,-6 10,-11 -1,1 -4,2 -12,-6zm-2 -20c-2,0 -5,1 -7,2 1,1 4,3 6,14 1,0 1,0 1,0 0,0 0,0 1,0 2,-13 5,-14 6,-14 -2,-1 -4,-2 -7,-2zm1 21l0 0 0 0c0,0 0,0 0,0zm-2 0c0,0 0,0 -1,0 -6,8 -10,8 -11,7 2,5 6,8 11,9 -1,-1 -2,-5 1,-16zm-1 -3c-10,-6 -10,-10 -10,-11 -2,3 -3,7 -3,12 0,1 0,3 0,4 1,-1 3,-4 13,-4 0,0 0,0 0,0 0,-1 0,-1 0,-1zm13 -12c0,1 0,6 -9,11 0,1 1,1 1,1 9,-1 12,2 12,3 1,-1 1,-1 1,-2 0,-5 -2,-10 -5,-13zm-13 12c-10,-6 -10,-10 -10,-11 -2,3 -3,7 -3,12 0,1 0,3 0,4 1,-1 3,-4 13,-4 0,0 0,0 0,0 0,-1 0,-1 0,-1zm1 3c0,0 0,0 -1,0 -6,8 -10,8 -11,7 2,5 6,8 11,9 -1,-1 -2,-5 1,-16zm2 0l0 0 0 0c0,0 0,0 0,0zm-1 -21c-2,0 -5,1 -7,2 1,1 4,3 6,14 1,0 1,0 1,0 0,0 0,0 1,0 2,-13 5,-14 6,-14 -2,-1 -4,-2 -7,-2zm2 20c0,1 -1,1 -1,1 4,10 4,14 3,16 5,-2 8,-6 10,-11 -1,1 -4,2 -12,-6zm9 -14c0,1 0,6 -9,11 0,1 1,1 1,1 9,-1 12,2 12,3 1,-1 1,-1 1,-2 0,-5 -2,-10 -5,-13zm-9 14c0,1 -1,1 -1,1 4,10 4,14 3,16 5,-2 8,-6 10,-11 -1,1 -4,2 -12,-6zm-2 -20c-2,0 -5,1 -7,2 1,1 4,3 6,14 1,0 1,0 1,0 0,0 0,0 1,0 2,-13 5,-14 6,-14 -2,-1 -4,-2 -7,-2zm1 21l0 0 0 0c0,0 0,0 0,0zm-2 0c0,0 0,0 -1,0 -6,8 -10,8 -11,7 2,5 6,8 11,9 -1,-1 -2,-5 1,-16zm-1 -3c-10,-6 -10,-10 -10,-11 -2,3 -3,7 -3,12 0,1 0,3 0,4 1,-1 3,-4 13,-4 0,0 0,0 0,0 0,-1 0,-1 0,-1zm13 -12c0,1 0,6 -9,11 0,1 1,1 1,1 9,-1 12,2 12,3 1,-1 1,-1 1,-2 0,-5 -2,-10 -5,-13zm-13 12c-10,-6 -10,-10 -10,-11 -2,3 -3,7 -3,12 0,1 0,3 0,4 1,-1 3,-4 13,-4 0,0 0,0 0,0 0,-1 0,-1 0,-1zm1 3c0,0 0,0 -1,0 -6,8 -10,8 -11,7 2,5 6,8 11,9 -1,-1 -2,-5 1,-16zm2 0l0 0 0 0c0,0 0,0 0,0zm-1 -21c-2,0 -5,1 -7,2 1,1 4,3 6,14 1,0 1,0 1,0 0,0 0,0 1,0 2,-13 5,-14 6,-14 -2,-1 -4,-2 -7,-2zm2 20c0,1 -1,1 -1,1 4,10 4,14 3,16 5,-2 8,-6 10,-11 -1,1 -4,2 -12,-6zm9 -14c0,1 0,6 -9,11 0,1 1,1 1,1 9,-1 12,2 12,3 1,-1 1,-1 1,-2 0,-5 -2,-10 -5,-13zm-9 14c0,1 -1,1 -1,1 4,10 4,14 3,16 5,-2 8,-6 10,-11 -1,1 -4,2 -12,-6zm-2 -20c-2,0 -5,1 -7,2 1,1 4,3 6,14 1,0 1,0 1,0 0,0 0,0 1,0 2,-13 5,-14 6,-14 -2,-1 -4,-2 -7,-2zm1 21l0 0 0 0c0,0 0,0 0,0zm-2 0c0,0 0,0 -1,0 -6,8 -10,8 -11,7 2,5 6,8 11,9 -1,-1 -2,-5 1,-16zm-1 -3c-10,-6 -10,-10 -10,-11 -2,3 -3,7 -3,12 0,1 0,3 0,4 1,-1 3,-4 13,-4 0,0 0,0 0,0 0,-1 0,-1 0,-1zm13 -12c0,1 0,6 -9,11 0,1 1,1 1,1 9,-1 12,2 12,3 1,-1 1,-1 1,-2 0,-5 -2,-10 -5,-13zm-13 12c-10,-6 -10,-10 -10,-11 -2,3 -3,7 -3,12 0,1 0,3 0,4 1,-1 3,-4 13,-4 0,0 0,0 0,0 0,-1 0,-1 0,-1zm1 3c0,0 0,0 -1,0 -6,8 -10,8 -11,7 2,5 6,8 11,9 -1,-1 -2,-5 1,-16zm2 0l0 0 0 0c0,0 0,0 0,0zm-1 -21c-2,0 -5,1 -7,2 1,1 4,3 6,14 1,0 1,0 1,0 0,0 0,0 1,0 2,-13 5,-14 6,-14 -2,-1 -4,-2 -7,-2zm2 20c0,1 -1,1 -1,1 4,10 4,14 3,16 5,-2 8,-6 10,-11 -1,1 -4,2 -12,-6zm9 -14c0,1 0,6 -9,11 0,1 1,1 1,1 9,-1 12,2 12,3 1,-1 1,-1 1,-2 0,-5 -2,-10 -5,-13zm-9 14c0,1 -1,1 -1,1 4,10 4,14 3,16 5,-2 8,-6 10,-11 -1,1 -4,2 -12,-6zm-2 -20c-2,0 -5,1 -7,2 1,1 4,3 6,14 1,0 1,0 1,0 0,0 0,0 1,0 2,-13 5,-14 6,-14 -2,-1 -4,-2 -7,-2zm1 21l0 0 0 0c0,0 0,0 0,0zm-2 0c0,0 0,0 -1,0 -6,8 -10,8 -11,7 2,5 6,8 11,9 -1,-1 -2,-5 1,-16zm-1 -3c-10,-6 -10,-10 -10,-11 -2,3 -3,7 -3,12 0,1 0,3 0,4 1,-1 3,-4 13,-4 0,0 0,0 0,0 0,-1 0,-1 0,-1zm13 -12c0,1 0,6 -9,11 0,1 1,1 1,1 9,-1 12,2 12,3 1,-1 1,-1 1,-2 0,-5 -2,-10 -5,-13zm-13 12c-10,-6 -10,-10 -10,-11 -2,3 -3,7 -3,12 0,1 0,3 0,4 1,-1 3,-4 13,-4 0,0 0,0 0,0 0,-1 0,-1 0,-1zm1 3c0,0 0,0 -1,0 -6,8 -10,8 -11,7 2,5 6,8 11,9 -1,-1 -2,-5 1,-16zm2 0l0 0 0 0c0,0 0,0 0,0zm-1 -21c-2,0 -5,1 -7,2 1,1 4,3 6,14 1,0 1,0 1,0 0,0 0,0 1,0 2,-13 5,-14 6,-14 -2,-1 -4,-2 -7,-2zm2 20c0,1 -1,1 -1,1 4,10 4,14 3,16 5,-2 8,-6 10,-11 -1,1 -4,2 -12,-6zm9 -14c0,1 0,6 -9,11 0,1 1,1 1,1 9,-1 12,2 12,3 1,-1 1,-1 1,-2 0,-5 -2,-10 -5,-13zm-9 14c0,1 -1,1 -1,1 4,10 4,14 3,16 5,-2 8,-6 10,-11 -1,1 -4,2 -12,-6zm-2 -20c-2,0 -5,1 -7,2 1,1 4,3 6,14 1,0 1,0 1,0 0,0 0,0 1,0 2,-13 5,-14 6,-14 -2,-1 -4,-2 -7,-2zm1 21l0 0 0 0c0,0 0,0 0,0zm-2 0c0,0 0,0 -1,0 -6,8 -10,8 -11,7 2,5 6,8 11,9 -1,-1 -2,-5 1,-16zm-1 -3c-10,-6 -10,-10 -10,-11 -2,3 -3,7 -3,12 0,1 0,3 0,4 1,-1 3,-4 13,-4 0,0 0,0 0,0 0,-1 0,-1 0,-1zm13 -12c0,1 0,6 -9,11 0,1 1,1 1,1 9,-1 12,2 12,3 1,-1 1,-1 1,-2 0,-5 -2,-10 -5,-13zm-13 13c0,-1 0,-1 0,-1 -10,-6 -10,-10 -10,-11 -2,3 -3,7 -3,12 0,1 0,3 0,4 1,-1 3,-4 13,-4 0,0 0,0 0,0zm0 2c-6,8 -10,8 -11,7 2,5 6,8 11,9 -1,-1 -2,-5 1,-16 0,0 0,0 -1,0zm3 0l0 0c0,0 0,0 0,0l0 0zm6 -19c-2,-1 -4,-2 -7,-2 -2,0 -5,1 -7,2 1,1 4,3 6,14 1,0 1,0 1,0 0,0 0,0 1,0 2,-13 5,-14 6,-14zm-5 18c0,1 -1,1 -1,1 4,10 4,14 3,16 5,-2 8,-6 10,-11 -1,1 -4,2 -12,-6zm-2 19c-9,0 -16,-9 -16,-20 0,-11 7,-20 16,-20 9,0 17,9 17,20 0,11 -8,20 -17,20zm0 -45c-11,0 -20,11 -20,25 0,13 9,24 20,24 11,0 20,-11 20,-24 0,-14 -9,-25 -20,-25zm11 12c0,1 0,6 -9,11 0,1 1,1 1,1 9,-1 12,2 12,3 1,-1 1,-1 1,-2 0,-5 -2,-10 -5,-13zm-13 13c0,-1 0,-1 0,-1 -10,-6 -10,-10 -10,-11 -2,3 -3,7 -3,12 0,1 0,3 0,4 1,-1 3,-4 13,-4 0,0 0,0 0,0zm0 2c-6,8 -10,8 -11,7 2,5 6,8 11,9 -1,-1 -2,-5 1,-16 0,0 0,0 -1,0zm3 0l0 0c0,0 0,0 0,0l0 0zm6 -19c-2,-1 -4,-2 -7,-2 -2,0 -5,1 -7,2 1,1 4,3 6,14 1,0 1,0 1,0 0,0 0,0 1,0 2,-13 5,-14 6,-14zm-5 18c0,1 -1,1 -1,1 4,10 4,14 3,16 5,-2 8,-6 10,-11 -1,1 -4,2 -12,-6zm9 -14c0,1 0,6 -9,11 0,1 1,1 1,1 9,-1 12,2 12,3 1,-1 1,-1 1,-2 0,-5 -2,-10 -5,-13zm-9 14c0,1 -1,1 -1,1 4,10 4,14 3,16 5,-2 8,-6 10,-11 -1,1 -4,2 -12,-6zm-2 -20c-2,0 -5,1 -7,2 1,1 4,3 6,14 1,0 1,0 1,0 0,0 0,0 1,0 2,-13 5,-14 6,-14 -2,-1 -4,-2 -7,-2zm1 21l0 0 0 0c0,0 0,0 0,0zm-2 0c0,0 0,0 -1,0 -6,8 -10,8 -11,7 2,5 6,8 11,9 -1,-1 -2,-5 1,-16zm-1 -3c-10,-6 -10,-10 -10,-11 -2,3 -3,7 -3,12 0,1 0,3 0,4 1,-1 3,-4 13,-4 0,0 0,0 0,0 0,-1 0,-1 0,-1zm13 -12c0,1 0,6 -9,11 0,1 1,1 1,1 9,-1 12,2 12,3 1,-1 1,-1 1,-2 0,-5 -2,-10 -5,-13zm-13 12c-10,-6 -10,-10 -10,-11 -2,3 -3,7 -3,12 0,1 0,3 0,4 1,-1 3,-4 13,-4 0,0 0,0 0,0 0,-1 0,-1 0,-1zm1 3c0,0 0,0 -1,0 -6,8 -10,8 -11,7 2,5 6,8 11,9 -1,-1 -2,-5 1,-16zm2 0l0 0 0 0c0,0 0,0 0,0zm-1 -21c-2,0 -5,1 -7,2 1,1 4,3 6,14 1,0 1,0 1,0 0,0 0,0 1,0 2,-13 5,-14 6,-14 -2,-1 -4,-2 -7,-2zm2 20c0,1 -1,1 -1,1 4,10 4,14 3,16 5,-2 8,-6 10,-11 -1,1 -4,2 -12,-6zm9 -14c0,1 0,6 -9,11 0,1 1,1 1,1 9,-1 12,2 12,3 1,-1 1,-1 1,-2 0,-5 -2,-10 -5,-13zm-9 14c0,1 -1,1 -1,1 4,10 4,14 3,16 5,-2 8,-6 10,-11 -1,1 -4,2 -12,-6zm-2 -20c-2,0 -5,1 -7,2 1,1 4,3 6,14 1,0 1,0 1,0 0,0 0,0 1,0 2,-13 5,-14 6,-14 -2,-1 -4,-2 -7,-2zm1 21l0 0 0 0c0,0 0,0 0,0zm-2 0c0,0 0,0 -1,0 -6,8 -10,8 -11,7 2,5 6,8 11,9 -1,-1 -2,-5 1,-16zm-1 -3c-10,-6 -10,-10 -10,-11 -2,3 -3,7 -3,12 0,1 0,3 0,4 1,-1 3,-4 13,-4 0,0 0,0 0,0 0,-1 0,-1 0,-1zm13 -12c0,1 0,6 -9,11 0,1 1,1 1,1 9,-1 12,2 12,3 1,-1 1,-1 1,-2 0,-5 -2,-10 -5,-13zm-13 12c-10,-6 -10,-10 -10,-11 -2,3 -3,7 -3,12 0,1 0,3 0,4 1,-1 3,-4 13,-4 0,0 0,0 0,0 0,-1 0,-1 0,-1zm1 3c0,0 0,0 -1,0 -6,8 -10,8 -11,7 2,5 6,8 11,9 -1,-1 -2,-5 1,-16zm2 0l0 0 0 0c0,0 0,0 0,0zm-1 -21c-2,0 -5,1 -7,2 1,1 4,3 6,14 1,0 1,0 1,0 0,0 0,0 1,0 2,-13 5,-14 6,-14 -2,-1 -4,-2 -7,-2zm2 20c0,1 -1,1 -1,1 4,10 4,14 3,16 5,-2 8,-6 10,-11 -1,1 -4,2 -12,-6zm9 -14c0,1 0,6 -9,11 0,1 1,1 1,1 9,-1 12,2 12,3 1,-1 1,-1 1,-2 0,-5 -2,-10 -5,-13zm-9 14c0,1 -1,1 -1,1 4,10 4,14 3,16 5,-2 8,-6 10,-11 -1,1 -4,2 -12,-6zm-2 -20c-2,0 -5,1 -7,2 1,1 4,3 6,14 1,0 1,0 1,0 0,0 0,0 1,0 2,-13 5,-14 6,-14 -2,-1 -4,-2 -7,-2zm1 21l0 0 0 0c0,0 0,0 0,0zm-2 0c0,0 0,0 -1,0 -6,8 -10,8 -11,7 2,5 6,8 11,9 -1,-1 -2,-5 1,-16zm-1 -3c-10,-6 -10,-10 -10,-11 -2,3 -3,7 -3,12 0,1 0,3 0,4 1,-1 3,-4 13,-4 0,0 0,0 0,0 0,-1 0,-1 0,-1zm13 -12c0,1 0,6 -9,11 0,1 1,1 1,1 9,-1 12,2 12,3 1,-1 1,-1 1,-2 0,-5 -2,-10 -5,-13zm-13 12c-10,-6 -10,-10 -10,-11 -2,3 -3,7 -3,12 0,1 0,3 0,4 1,-1 3,-4 13,-4 0,0 0,0 0,0 0,-1 0,-1 0,-1zm1 3c0,0 0,0 -1,0 -6,8 -10,8 -11,7 2,5 6,8 11,9 -1,-1 -2,-5 1,-16zm2 0l0 0 0 0c0,0 0,0 0,0zm-1 -21c-2,0 -5,1 -7,2 1,1 4,3 6,14 1,0 1,0 1,0 0,0 0,0 1,0 2,-13 5,-14 6,-14 -2,-1 -4,-2 -7,-2zm2 20c0,1 -1,1 -1,1 4,10 4,14 3,16 5,-2 8,-6 10,-11 -1,1 -4,2 -12,-6zm9 -14c0,1 0,6 -9,11 0,1 1,1 1,1 9,-1 12,2 12,3 1,-1 1,-1 1,-2 0,-5 -2,-10 -5,-13zm-9 14c0,1 -1,1 -1,1 4,10 4,14 3,16 5,-2 8,-6 10,-11 -1,1 -4,2 -12,-6zm-2 -20c-2,0 -5,1 -7,2 1,1 4,3 6,14 1,0 1,0 1,0 0,0 0,0 1,0 2,-13 5,-14 6,-14 -2,-1 -4,-2 -7,-2zm1 21l0 0 0 0c0,0 0,0 0,0zm-2 0c0,0 0,0 -1,0 -6,8 -10,8 -11,7 2,5 6,8 11,9 -1,-1 -2,-5 1,-16zm-1 -3c-10,-6 -10,-10 -10,-11 -2,3 -3,7 -3,12 0,1 0,3 0,4 1,-1 3,-4 13,-4 0,0 0,0 0,0 0,-1 0,-1 0,-1zm13 -12c0,1 0,6 -9,11 0,1 1,1 1,1 9,-1 12,2 12,3 1,-1 1,-1 1,-2 0,-5 -2,-10 -5,-13zm-13 12c-10,-6 -10,-10 -10,-11 -2,3 -3,7 -3,12 0,1 0,3 0,4 1,-1 3,-4 13,-4 0,0 0,0 0,0 0,-1 0,-1 0,-1zm1 3c0,0 0,0 -1,0 -6,8 -10,8 -11,7 2,5 6,8 11,9 -1,-1 -2,-5 1,-16zm2 0l0 0 0 0c0,0 0,0 0,0zm-1 -21c-2,0 -5,1 -7,2 1,1 4,3 6,14 1,0 1,0 1,0 0,0 0,0 1,0 2,-13 5,-14 6,-14 -2,-1 -4,-2 -7,-2zm2 20c0,1 -1,1 -1,1 4,10 4,14 3,16 5,-2 8,-6 10,-11 -1,1 -4,2 -12,-6zm9 -14c0,1 0,6 -9,11 0,1 1,1 1,1 9,-1 12,2 12,3 1,-1 1,-1 1,-2 0,-5 -2,-10 -5,-13zm-9 14c0,1 -1,1 -1,1 4,10 4,14 3,16 5,-2 8,-6 10,-11 -1,1 -4,2 -12,-6zm-2 -20c-2,0 -5,1 -7,2 1,1 4,3 6,14 1,0 1,0 1,0 0,0 0,0 1,0 2,-13 5,-14 6,-14 -2,-1 -4,-2 -7,-2zm1 21l0 0 0 0c0,0 0,0 0,0zm-2 0c0,0 0,0 -1,0 -6,8 -10,8 -11,7 2,5 6,8 11,9 -1,-1 -2,-5 1,-16zm-1 -3c-10,-6 -10,-10 -10,-11 -2,3 -3,7 -3,12 0,1 0,3 0,4 1,-1 3,-4 13,-4 0,0 0,0 0,0 0,-1 0,-1 0,-1zm13 -12c0,1 0,6 -9,11 0,1 1,1 1,1 9,-1 12,2 12,3 1,-1 1,-1 1,-2 0,-5 -2,-10 -5,-13zm-13 12c-10,-6 -10,-10 -10,-11 -2,3 -3,7 -3,12 0,1 0,3 0,4 1,-1 3,-4 13,-4 0,0 0,0 0,0 0,-1 0,-1 0,-1zm1 3c0,0 0,0 -1,0 -6,8 -10,8 -11,7 2,5 6,8 11,9 -1,-1 -2,-5 1,-16zm2 0l0 0 0 0c0,0 0,0 0,0zm-1 -21c-2,0 -5,1 -7,2 1,1 4,3 6,14 1,0 1,0 1,0 0,0 0,0 1,0 2,-13 5,-14 6,-14 -2,-1 -4,-2 -7,-2zm2 20c0,1 -1,1 -1,1 4,10 4,14 3,16 5,-2 8,-6 10,-11 -1,1 -4,2 -12,-6zm9 -14c0,1 0,6 -9,11 0,1 1,1 1,1 9,-1 12,2 12,3 1,-1 1,-1 1,-2 0,-5 -2,-10 -5,-13zm-9 14c0,1 -1,1 -1,1 4,10 4,14 3,16 5,-2 8,-6 10,-11 -1,1 -4,2 -12,-6zm-2 -20c-2,0 -5,1 -7,2 1,1 4,3 6,14 1,0 1,0 1,0 0,0 0,0 1,0 2,-13 5,-14 6,-14 -2,-1 -4,-2 -7,-2zm1 21l0 0 0 0c0,0 0,0 0,0zm-2 0c0,0 0,0 -1,0 -6,8 -10,8 -11,7 2,5 6,8 11,9 -1,-1 -2,-5 1,-16zm-1 -3c-10,-6 -10,-10 -10,-11 -2,3 -3,7 -3,12 0,1 0,3 0,4 1,-1 3,-4 13,-4 0,0 0,0 0,0 0,-1 0,-1 0,-1zm13 -12c0,1 0,6 -9,11 0,1 1,1 1,1 9,-1 12,2 12,3 1,-1 1,-1 1,-2 0,-5 -2,-10 -5,-13zm-10 15l0 0 0 0c0,0 0,0 0,0zm0 0l0 0 0 0c0,0 0,0 0,0zm0 0l0 0 0 0c0,0 0,0 0,0zm0 0l0 0 0 0c0,0 0,0 0,0zm0 0l0 0 0 0c0,0 0,0 0,0zm0 0l0 0 0 0c0,0 0,0 0,0zm0 0l0 0 0 0c0,0 0,0 0,0zm0 0l0 0 0 0c0,0 0,0 0,0zm0 0l0 0 0 0c0,0 0,0 0,0zm0 0l0 0 0 0c0,0 0,0 0,0z"/>
   <path class="fil0" d="M203 67c0,0 0,0 0,0 -10,0 -12,3 -13,4 0,-1 0,-3 0,-4 0,-5 1,-9 3,-12 0,1 0,5 10,11 0,0 0,0 0,1z"/>
   <path class="fil0" d="M203 85c-5,-1 -9,-4 -11,-9 1,1 5,1 11,-7 1,0 1,0 1,0 -3,11 -2,15 -1,16z"/>
   <path class="fil0" d="M206 69l0 0 0 0c0,0 0,0 0,0z"/>
   <path class="fil0" d="M212 50c-1,0 -4,1 -6,14 -1,0 -1,0 -1,0 0,0 0,0 -1,0 -2,-11 -5,-13 -6,-14 2,-1 5,-2 7,-2 3,0 5,1 7,2z"/>
   <path class="fil0" d="M219 74c-2,5 -5,9 -10,11 1,-2 1,-6 -3,-16 0,0 1,0 1,-1 8,8 11,7 12,6z"/>
   <path class="fil0" d="M221 67c0,1 0,1 -1,2 0,-1 -3,-4 -12,-3 0,0 -1,0 -1,-1 9,-5 9,-10 9,-11 3,3 5,8 5,13z"/>
   <path class="fil0" d="M206 69l0 0 0 0c0,0 0,0 0,0zm0 0l0 0 0 0c0,0 0,0 0,0zm0 0l0 0 0 0c0,0 0,0 0,0zm0 0l0 0 0 0c0,0 0,0 0,0zm0 0l0 0 0 0c0,0 0,0 0,0zm0 0l0 0 0 0c0,0 0,0 0,0zm0 0l0 0 0 0c0,0 0,0 0,0zm0 0l0 0 0 0c0,0 0,0 0,0zm0 0l0 0 0 0c0,0 0,0 0,0zm0 0l0 0 0 0c0,0 0,0 0,0zm-3 -3c-10,-6 -10,-10 -10,-11 -2,3 -3,7 -3,12 0,1 0,3 0,4 1,-1 3,-4 13,-4 0,0 0,0 0,0 0,-1 0,-1 0,-1zm1 3c0,0 0,0 -1,0 -6,8 -10,8 -11,7 2,5 6,8 11,9 -1,-1 -2,-5 1,-16zm2 0l0 0 0 0c0,0 0,0 0,0zm-1 -21c-2,0 -5,1 -7,2 1,1 4,3 6,14 1,0 1,0 1,0 0,0 0,0 1,0 2,-13 5,-14 6,-14 -2,-1 -4,-2 -7,-2zm2 20c0,1 -1,1 -1,1 4,10 4,14 3,16 5,-2 8,-6 10,-11 -1,1 -4,2 -12,-6zm9 -14c0,1 0,6 -9,11 0,1 1,1 1,1 9,-1 12,2 12,3 1,-1 1,-1 1,-2 0,-5 -2,-10 -5,-13zm-10 15l0 0 0 0c0,0 0,0 0,0zm0 0l0 0 0 0c0,0 0,0 0,0zm0 0l0 0 0 0c0,0 0,0 0,0zm0 0l0 0 0 0c0,0 0,0 0,0zm0 0l0 0 0 0c0,0 0,0 0,0zm0 0l0 0 0 0c0,0 0,0 0,0zm0 0l0 0 0 0c0,0 0,0 0,0zm0 0l0 0 0 0c0,0 0,0 0,0zm0 0l0 0 0 0c0,0 0,0 0,0zm0 0l0 0 0 0c0,0 0,0 0,0z"/>
   <path class="fil0" d="M208 67c0,0 -1,1 -1,1 0,0 0,0 0,0 0,1 -1,1 -1,1 0,0 0,0 0,0l0 0c0,0 -1,0 -1,0 0,0 0,0 -1,0 0,0 0,0 0,0 0,0 0,0 -1,0 0,0 0,0 0,0 0,-1 0,-1 0,-2 0,0 0,0 0,0 0,0 0,0 0,0 0,-1 0,-1 0,-1 0,0 0,0 0,0 0,-1 1,-2 1,-2 0,0 0,0 0,0 1,0 1,0 1,0 0,0 0,0 1,0 0,0 0,0 0,0 0,0 1,0 1,1 0,0 0,0 0,0 0,1 1,1 1,1 0,0 0,1 0,1l0 0c0,0 0,0 0,0z"/>
   <path class="fil0" d="M206 69l0 0 0 0c0,0 0,0 0,0z"/>
   <path class="fil0" d="M206 69l0 0 0 0c0,0 0,0 0,0z"/>
  </g>
 </g>
</svg>
