<?xml version="1.0" encoding="UTF-8"?>
<!DOCTYPE svg PUBLIC "-//W3C//DTD SVG 1.1//EN" "http://www.w3.org/Graphics/SVG/1.1/DTD/svg11.dtd">
<!-- Creator: CorelDRAW X7 -->
<svg xmlns="http://www.w3.org/2000/svg" xml:space="preserve" width="4.967in" height="1.279in" version="1.1" style="shape-rendering:geometricPrecision; text-rendering:geometricPrecision; image-rendering:optimizeQuality; fill-rule:evenodd; clip-rule:evenodd"
viewBox="0 0 4967 1279"
 xmlns:xlink="http://www.w3.org/1999/xlink">
 <defs>
  <style type="text/css">
   <![CDATA[
    .fil0 {fill:#373435}
   ]]>
  </style>
 </defs>
 <g id="Layer_x0020_1">
  <metadata id="CorelCorpID_0Corel-Layer"/>
  <path class="fil0" d="M3184 446c3,-131 60,-251 107,-344 111,-6 240,44 303,99 -43,124 -298,237 -410,245zm-1160 -87c49,-71 373,-188 495,-219 155,-40 477,-85 643,-58 -7,69 -67,201 -97,263 -59,123 -66,120 -218,135 -181,18 -492,39 -671,5l5 -118c-59,-22 -96,-9 -157,-8zm-1561 751c31,-127 -83,-242 86,-490 67,-98 220,-207 411,-194 192,13 309,117 381,228 134,208 20,434 57,510 46,19 2052,28 2186,5 61,-93 -41,-307 76,-501 66,-110 190,-223 375,-235 215,-13 329,79 419,181 225,252 -89,657 376,460 277,-117 50,-319 36,-400 -21,-116 63,-131 91,-218 -50,-82 -200,-110 -299,-141 -890,-279 -1687,-491 -2575,-105 -503,219 -271,192 -673,161 -393,-31 -788,-11 -1140,158 -86,41 -219,130 -256,191 -82,137 220,467 449,390z"/>
  <path class="fil0" d="M3983 549c-214,75 -317,258 -256,463 134,458 851,260 716,-211 -45,-157 -234,-331 -460,-252z"/>
  <path class="fil0" d="M847 547c-492,130 -276,835 172,719 495,-128 290,-842 -172,-719z"/>
 </g>
</svg>
