<?xml version="1.0" encoding="UTF-8"?>
<!DOCTYPE svg PUBLIC "-//W3C//DTD SVG 1.1//EN" "http://www.w3.org/Graphics/SVG/1.1/DTD/svg11.dtd">
<!-- Creator: CorelDRAW X7 -->
<svg xmlns="http://www.w3.org/2000/svg" xml:space="preserve" width="0.251in" height="0.094in" version="1.1" style="shape-rendering:geometricPrecision; text-rendering:geometricPrecision; image-rendering:optimizeQuality; fill-rule:evenodd; clip-rule:evenodd"
viewBox="0 0 251 94"
 xmlns:xlink="http://www.w3.org/1999/xlink">
 <defs>
  <style type="text/css">
   <![CDATA[
    .fil0 {fill:#2E3031}
   ]]>
  </style>
 </defs>
 <g id="Layer_x0020_1">
  <metadata id="CorelCorpID_0Corel-Layer"/>
  <g id="_2369573842928">
   <path class="fil0" d="M191 22c0,0 -4,-6 -10,-9l-1 13 11 0c0,0 3,-2 0,-4zm0 0c0,0 -4,-6 -10,-9l-1 13 11 0c0,0 3,-2 0,-4zm0 0c0,0 -4,-6 -10,-9l-1 13 11 0c0,0 3,-2 0,-4zm0 0c0,0 -4,-6 -10,-9l-1 13 11 0c0,0 3,-2 0,-4zm0 0c0,0 -4,-6 -10,-9l-1 13 11 0c0,0 3,-2 0,-4zm0 0c0,0 -4,-6 -10,-9l-1 13 11 0c0,0 3,-2 0,-4zm0 0c0,0 -4,-6 -10,-9l-1 13 11 0c0,0 3,-2 0,-4zm0 0c0,0 -4,-6 -10,-9l-1 13 11 0c0,0 3,-2 0,-4zm0 0c0,0 -4,-6 -10,-9l-1 13 11 0c0,0 3,-2 0,-4zm0 0c0,0 -4,-6 -10,-9l-1 13 11 0c0,0 3,-2 0,-4zm0 0c0,0 -4,-6 -10,-9l-1 13 11 0c0,0 3,-2 0,-4zm0 0c0,0 -4,-6 -10,-9l-1 13 11 0c0,0 3,-2 0,-4zm0 0c0,0 -4,-6 -10,-9l-1 13 11 0c0,0 3,-2 0,-4zm0 0c0,0 -4,-6 -10,-9l-1 13 11 0c0,0 3,-2 0,-4zm0 0c0,0 -4,-6 -10,-9l-1 13 11 0c0,0 3,-2 0,-4zm0 0c0,0 -4,-6 -10,-9l-1 13 11 0c0,0 3,-2 0,-4zm-10 -9l-1 13 11 0c0,0 3,-2 0,-4 0,0 -4,-6 -10,-9zm68 51c-8,3 -23,2 -23,2 10,0 23,-3 23,-3 2,0 0,1 0,1zm-3 5c0,0 -20,5 -23,5 0,0 0,-3 -1,-5 0,0 21,0 27,-3l-3 3zm-26 -7c-5,-15 -23,-16 -23,-16 18,-1 24,11 24,11 3,1 4,0 4,0 2,-4 8,-4 15,-3 7,0 9,-2 9,-2 0,3 -9,4 -16,4 -6,0 -8,6 -8,6 -3,1 -5,0 -5,0zm-25 -34l-62 3 -63 2c24,-25 45,-29 78,-29 33,0 44,13 47,16 4,4 0,8 0,8zm-1 2c0,0 0,1 0,1 -1,0 -1,1 -1,1 0,1 0,1 -1,1 0,1 0,1 0,2 0,0 0,0 -1,1 0,0 0,0 0,1 0,0 -1,1 -1,2 0,0 0,0 0,1 -1,0 -1,0 -1,1 -1,3 -3,6 -5,9 0,1 0,2 0,2 0,0 0,0 0,0 -1,1 -1,1 -1,1 0,1 0,1 -1,2 0,0 0,1 0,1 -1,1 -1,2 -1,3 -1,1 -1,1 -1,2 0,0 -1,1 -1,1 0,1 0,1 -1,2 0,1 -1,2 -1,3 0,0 0,1 -1,1 0,0 0,0 0,1 0,0 0,0 0,0 0,0 0,0 0,0 0,1 0,1 -1,1 0,1 0,1 0,1 -2,5 -7,5 -7,5l-101 0c0,0 98,-2 101,-2 3,0 5,-2 5,-2l21 -42c0,0 0,0 0,0zm-19 9c0,-1 0,-1 1,-1l10 0c0,0 1,0 1,1 0,0 -1,1 -1,1l-10 0c-1,0 -1,-1 -1,-1zm-44 25c0,0 -4,-18 1,-30 0,0 -2,21 -1,30zm-15 -23c0,-1 1,-2 1,-2l11 0c0,0 1,1 1,2 0,0 -1,0 -1,0l-11 0c0,0 -1,0 -1,0zm49 25c0,0 10,2 8,4 -2,2 -104,2 -104,2 0,0 3,-3 7,-3 5,0 89,-3 89,-3zm-95 -31c-1,1 -4,10 -1,32 0,-1 -6,-19 1,-32zm-6 10l-1 0c-1,0 -1,-1 -1,-1 0,-1 0,-1 1,-1l1 0c0,0 1,0 1,1 0,0 -1,1 -1,1zm-23 2c-17,0 -22,19 -22,19 0,0 -19,1 -18,-2l17 1c0,0 4,-20 23,-20 19,1 22,15 22,15 0,0 -4,-13 -22,-13zm-31 5l6 -6c-1,-2 -8,-1 -8,-1 6,-2 12,-1 12,-1 0,0 -9,12 -11,10 -2,-2 -5,-1 -5,-1 1,-1 6,-1 6,-1zm39 -14c8,-1 10,-7 10,-7 0,0 -2,7 -10,8 -8,0 -21,2 -24,2 3,0 16,-3 24,-3zm140 -33l39 17 -2 1 -38 -16 1 -2zm62 57l0 -12c0,0 -2,-1 -3,-3 -1,-2 -1,-7 -1,-9 -3,1 -7,1 -7,1l-4 -6c2,-1 9,-6 10,-6 0,0 0,0 0,0l-1 -3 -16 -3c0,0 -31,-16 -49,-19 -19,-2 -66,-4 -81,5 -14,9 -40,22 -40,22 0,0 -42,5 -54,16 0,0 -4,5 -3,8 0,0 -2,2 -2,3 0,1 0,10 1,10 1,0 5,1 6,2 1,2 8,8 5,9 -3,0 -11,-2 -11,-2 0,0 1,2 2,2 1,0 10,2 19,3 0,0 -2,-26 18,-28 21,-3 25,24 24,28l114 -2c0,0 0,-25 20,-27 20,-3 24,19 23,24 0,0 21,-2 26,-5l4 -5c0,0 0,-2 0,-3zm-60 -40c0,0 -4,-6 -10,-9l-1 13 11 0c0,0 3,-2 0,-4zm0 0c0,0 -4,-6 -10,-9l-1 13 11 0c0,0 3,-2 0,-4zm0 0c0,0 -4,-6 -10,-9l-1 13 11 0c0,0 3,-2 0,-4zm0 0c0,0 -4,-6 -10,-9l-1 13 11 0c0,0 3,-2 0,-4zm0 0c0,0 -4,-6 -10,-9l-1 13 11 0c0,0 3,-2 0,-4zm0 0c0,0 -4,-6 -10,-9l-1 13 11 0c0,0 3,-2 0,-4zm0 0c0,0 -4,-6 -10,-9l-1 13 11 0c0,0 3,-2 0,-4zm0 0c0,0 -4,-6 -10,-9l-1 13 11 0c0,0 3,-2 0,-4zm0 0c0,0 -4,-6 -10,-9l-1 13 11 0c0,0 3,-2 0,-4zm0 0c0,0 -4,-6 -10,-9l-1 13 11 0c0,0 3,-2 0,-4zm0 0c0,0 -4,-6 -10,-9l-1 13 11 0c0,0 3,-2 0,-4zm0 0c0,0 -4,-6 -10,-9l-1 13 11 0c0,0 3,-2 0,-4zm0 0c0,0 -4,-6 -10,-9l-1 13 11 0c0,0 3,-2 0,-4zm0 0c0,0 -4,-6 -10,-9l-1 13 11 0c0,0 3,-2 0,-4zm0 0c0,0 -4,-6 -10,-9l-1 13 11 0c0,0 3,-2 0,-4zm0 0c0,0 -4,-6 -10,-9l-1 13 11 0c0,0 3,-2 0,-4zm0 0c0,0 -4,-6 -10,-9l-1 13 11 0c0,0 3,-2 0,-4zm0 0c0,0 -4,-6 -10,-9l-1 13 11 0c0,0 3,-2 0,-4z"/>
   <path class="fil0" d="M247 37l-1 -3c0,2 1,2 1,3z"/>
   <path class="fil0" d="M246 36c1,0 1,0 1,1l-1 -1zm0 -9c0,0 0,0 0,0 -1,0 -1,1 -1,1 0,0 -5,5 -6,5l2 5 6 0c0,0 0,0 0,0 0,0 0,0 0,0 0,0 0,0 0,0l-1 -11z"/>
   <path class="fil0" d="M1 68c0,0 0,3 2,6 0,0 6,2 7,1 0,0 -3,-4 -4,-5 -1,-1 -2,-2 -5,-2z"/>
   <path class="fil0" d="M191 22c0,0 -4,-6 -10,-9l-1 13 11 0c0,0 3,-2 0,-4zm0 0c0,0 -4,-6 -10,-9l-1 13 11 0c0,0 3,-2 0,-4zm0 0c0,0 -4,-6 -10,-9l-1 13 11 0c0,0 3,-2 0,-4z"/>
   <path class="fil0" d="M191 22c0,0 -4,-6 -10,-9l-1 13 11 0c0,0 3,-2 0,-4z"/>
   <path class="fil0" d="M191 26l-11 0 1 -13c6,3 10,9 10,9 3,2 0,4 0,4zm-13 0l-40 1 2 -20c16,-2 39,5 39,5l-1 14zm-50 1l-44 2c0,0 6,-11 21,-17 14,-5 27,-5 27,-5l-4 20zm66 -6c-3,-4 -19,-17 -57,-16 -38,2 -50,15 -63,26l118 -4c0,0 4,-1 2,-6z"/>
   <path class="fil0" d="M191 26l-11 0 1 -13c6,3 10,9 10,9 3,2 0,4 0,4z"/>
   <path class="fil0" d="M44 76l0 0 0 0c0,0 0,0 0,0zm0 0l0 0 0 0c0,0 0,0 0,0zm0 0l0 0 0 0c0,0 0,0 0,0zm0 0l0 0 0 0c0,0 0,0 0,0zm0 0l0 0 0 0c0,0 0,0 0,0zm0 0l0 0 0 0c0,0 0,0 0,0zm0 0l0 0 0 0c0,0 0,0 0,0zm0 0l0 0 0 0c0,0 0,0 0,0zm0 0l0 0 0 0c0,0 0,0 0,0zm0 0l0 0 0 0c0,0 0,0 0,0zm-3 -3c-9,-4 -9,-7 -9,-8 -2,2 -3,6 -3,9 0,1 0,3 0,4 1,-1 3,-3 12,-4 0,0 0,0 0,0 0,0 0,0 0,-1zm1 3c0,0 0,0 -1,0 -6,6 -9,6 -10,6 2,4 5,6 10,7 -1,-1 -2,-4 1,-13zm2 0l0 0 0 0c0,0 0,0 0,0zm-1 -17c-2,0 -4,1 -6,2 1,0 3,2 5,11 0,0 1,0 1,0 0,0 0,0 0,0 2,-10 5,-11 6,-11 -2,-1 -4,-2 -6,-2zm2 17c-1,0 -1,0 -1,0 4,8 3,12 3,13 4,-1 7,-5 9,-9 -1,1 -4,1 -11,-4zm8 -12c0,1 -1,5 -8,9 0,0 0,1 0,1 9,-1 11,1 12,3 0,-1 0,-2 0,-3 0,-4 -1,-7 -4,-10zm-8 12c-1,0 -1,0 -1,0 4,8 3,12 3,13 4,-1 7,-5 9,-9 -1,1 -4,1 -11,-4zm-2 -17c-2,0 -4,1 -6,2 1,0 3,2 5,11 0,0 1,0 1,0 0,0 0,0 0,0 2,-10 5,-11 6,-11 -2,-1 -4,-2 -6,-2zm1 17l0 0 0 0c0,0 0,0 0,0zm-2 0c0,0 0,0 -1,0 -6,6 -9,6 -10,6 2,4 5,6 10,7 -1,-1 -2,-4 1,-13zm-1 -3c-9,-4 -9,-7 -9,-8 -2,2 -3,6 -3,9 0,1 0,3 0,4 1,-1 3,-3 12,-4 0,0 0,0 0,0 0,0 0,0 0,-1zm12 -9c0,1 -1,5 -8,9 0,0 0,1 0,1 9,-1 11,1 12,3 0,-1 0,-2 0,-3 0,-4 -1,-7 -4,-10zm-12 9c-9,-4 -9,-7 -9,-8 -2,2 -3,6 -3,9 0,1 0,3 0,4 1,-1 3,-3 12,-4 0,0 0,0 0,0 0,0 0,0 0,-1zm1 3c0,0 0,0 -1,0 -6,6 -9,6 -10,6 2,4 5,6 10,7 -1,-1 -2,-4 1,-13zm2 0l0 0 0 0c0,0 0,0 0,0zm-1 -17c-2,0 -4,1 -6,2 1,0 3,2 5,11 0,0 1,0 1,0 0,0 0,0 0,0 2,-10 5,-11 6,-11 -2,-1 -4,-2 -6,-2zm2 17c-1,0 -1,0 -1,0 4,8 3,12 3,13 4,-1 7,-5 9,-9 -1,1 -4,1 -11,-4zm8 -12c0,1 -1,5 -8,9 0,0 0,1 0,1 9,-1 11,1 12,3 0,-1 0,-2 0,-3 0,-4 -1,-7 -4,-10zm-8 12c-1,0 -1,0 -1,0 4,8 3,12 3,13 4,-1 7,-5 9,-9 -1,1 -4,1 -11,-4zm-2 -17c-2,0 -4,1 -6,2 1,0 3,2 5,11 0,0 1,0 1,0 0,0 0,0 0,0 2,-10 5,-11 6,-11 -2,-1 -4,-2 -6,-2zm1 17l0 0 0 0c0,0 0,0 0,0zm-2 0c0,0 0,0 -1,0 -6,6 -9,6 -10,6 2,4 5,6 10,7 -1,-1 -2,-4 1,-13zm-1 -3c-9,-4 -9,-7 -9,-8 -2,2 -3,6 -3,9 0,1 0,3 0,4 1,-1 3,-3 12,-4 0,0 0,0 0,0 0,0 0,0 0,-1zm12 -9c0,1 -1,5 -8,9 0,0 0,1 0,1 9,-1 11,1 12,3 0,-1 0,-2 0,-3 0,-4 -1,-7 -4,-10zm-12 9c-9,-4 -9,-7 -9,-8 -2,2 -3,6 -3,9 0,1 0,3 0,4 1,-1 3,-3 12,-4 0,0 0,0 0,0 0,0 0,0 0,-1zm1 3c0,0 0,0 -1,0 -6,6 -9,6 -10,6 2,4 5,6 10,7 -1,-1 -2,-4 1,-13zm2 0l0 0 0 0c0,0 0,0 0,0zm-1 -17c-2,0 -4,1 -6,2 1,0 3,2 5,11 0,0 1,0 1,0 0,0 0,0 0,0 2,-10 5,-11 6,-11 -2,-1 -4,-2 -6,-2zm2 17c-1,0 -1,0 -1,0 4,8 3,12 3,13 4,-1 7,-5 9,-9 -1,1 -4,1 -11,-4zm8 -12c0,1 -1,5 -8,9 0,0 0,1 0,1 9,-1 11,1 12,3 0,-1 0,-2 0,-3 0,-4 -1,-7 -4,-10zm-8 12c-1,0 -1,0 -1,0 4,8 3,12 3,13 4,-1 7,-5 9,-9 -1,1 -4,1 -11,-4zm-2 -17c-2,0 -4,1 -6,2 1,0 3,2 5,11 0,0 1,0 1,0 0,0 0,0 0,0 2,-10 5,-11 6,-11 -2,-1 -4,-2 -6,-2zm1 17l0 0 0 0c0,0 0,0 0,0zm-2 0c0,0 0,0 -1,0 -6,6 -9,6 -10,6 2,4 5,6 10,7 -1,-1 -2,-4 1,-13zm-1 -3c-9,-4 -9,-7 -9,-8 -2,2 -3,6 -3,9 0,1 0,3 0,4 1,-1 3,-3 12,-4 0,0 0,0 0,0 0,0 0,0 0,-1zm12 -9c0,1 -1,5 -8,9 0,0 0,1 0,1 9,-1 11,1 12,3 0,-1 0,-2 0,-3 0,-4 -1,-7 -4,-10zm-12 9c-9,-4 -9,-7 -9,-8 -2,2 -3,6 -3,9 0,1 0,3 0,4 1,-1 3,-3 12,-4 0,0 0,0 0,0 0,0 0,0 0,-1zm1 3c0,0 0,0 -1,0 -6,6 -9,6 -10,6 2,4 5,6 10,7 -1,-1 -2,-4 1,-13zm2 0l0 0 0 0c0,0 0,0 0,0zm-1 -17c-2,0 -4,1 -6,2 1,0 3,2 5,11 0,0 1,0 1,0 0,0 0,0 0,0 2,-10 5,-11 6,-11 -2,-1 -4,-2 -6,-2zm2 17c-1,0 -1,0 -1,0 4,8 3,12 3,13 4,-1 7,-5 9,-9 -1,1 -4,1 -11,-4zm8 -12c0,1 -1,5 -8,9 0,0 0,1 0,1 9,-1 11,1 12,3 0,-1 0,-2 0,-3 0,-4 -1,-7 -4,-10zm-8 12c-1,0 -1,0 -1,0 4,8 3,12 3,13 4,-1 7,-5 9,-9 -1,1 -4,1 -11,-4zm-2 -17c-2,0 -4,1 -6,2 1,0 3,2 5,11 0,0 1,0 1,0 0,0 0,0 0,0 2,-10 5,-11 6,-11 -2,-1 -4,-2 -6,-2zm1 17l0 0 0 0c0,0 0,0 0,0zm-2 0c0,0 0,0 -1,0 -6,6 -9,6 -10,6 2,4 5,6 10,7 -1,-1 -2,-4 1,-13zm-1 -3c-9,-4 -9,-7 -9,-8 -2,2 -3,6 -3,9 0,1 0,3 0,4 1,-1 3,-3 12,-4 0,0 0,0 0,0 0,0 0,0 0,-1zm12 -9c0,1 -1,5 -8,9 0,0 0,1 0,1 9,-1 11,1 12,3 0,-1 0,-2 0,-3 0,-4 -1,-7 -4,-10zm-12 9c-9,-4 -9,-7 -9,-8 -2,2 -3,6 -3,9 0,1 0,3 0,4 1,-1 3,-3 12,-4 0,0 0,0 0,0 0,0 0,0 0,-1zm1 3c0,0 0,0 -1,0 -6,6 -9,6 -10,6 2,4 5,6 10,7 -1,-1 -2,-4 1,-13zm2 0l0 0 0 0c0,0 0,0 0,0zm-1 -17c-2,0 -4,1 -6,2 1,0 3,2 5,11 0,0 1,0 1,0 0,0 0,0 0,0 2,-10 5,-11 6,-11 -2,-1 -4,-2 -6,-2zm2 17c-1,0 -1,0 -1,0 4,8 3,12 3,13 4,-1 7,-5 9,-9 -1,1 -4,1 -11,-4zm8 -12c0,1 -1,5 -8,9 0,0 0,1 0,1 9,-1 11,1 12,3 0,-1 0,-2 0,-3 0,-4 -1,-7 -4,-10zm-8 12c-1,0 -1,0 -1,0 4,8 3,12 3,13 4,-1 7,-5 9,-9 -1,1 -4,1 -11,-4zm-2 -17c-2,0 -4,1 -6,2 1,0 3,2 5,11 0,0 1,0 1,0 0,0 0,0 0,0 2,-10 5,-11 6,-11 -2,-1 -4,-2 -6,-2zm1 17l0 0 0 0c0,0 0,0 0,0zm-2 0c0,0 0,0 -1,0 -6,6 -9,6 -10,6 2,4 5,6 10,7 -1,-1 -2,-4 1,-13zm-1 -3c-9,-4 -9,-7 -9,-8 -2,2 -3,6 -3,9 0,1 0,3 0,4 1,-1 3,-3 12,-4 0,0 0,0 0,0 0,0 0,0 0,-1zm12 -9c0,1 -1,5 -8,9 0,0 0,1 0,1 9,-1 11,1 12,3 0,-1 0,-2 0,-3 0,-4 -1,-7 -4,-10zm-12 9c-9,-4 -9,-7 -9,-8 -2,2 -3,6 -3,9 0,1 0,3 0,4 1,-1 3,-3 12,-4 0,0 0,0 0,0 0,0 0,0 0,-1zm1 3c0,0 0,0 -1,0 -6,6 -9,6 -10,6 2,4 5,6 10,7 -1,-1 -2,-4 1,-13zm2 0l0 0 0 0c0,0 0,0 0,0zm-1 -17c-2,0 -4,1 -6,2 1,0 3,2 5,11 0,0 1,0 1,0 0,0 0,0 0,0 2,-10 5,-11 6,-11 -2,-1 -4,-2 -6,-2zm2 17c-1,0 -1,0 -1,0 4,8 3,12 3,13 4,-1 7,-5 9,-9 -1,1 -4,1 -11,-4zm8 -12c0,1 -1,5 -8,9 0,0 0,1 0,1 9,-1 11,1 12,3 0,-1 0,-2 0,-3 0,-4 -1,-7 -4,-10zm-8 12c-1,0 -1,0 -1,0 4,8 3,12 3,13 4,-1 7,-5 9,-9 -1,1 -4,1 -11,-4zm-2 -17c-2,0 -4,1 -6,2 1,0 3,2 5,11 0,0 1,0 1,0 0,0 0,0 0,0 2,-10 5,-11 6,-11 -2,-1 -4,-2 -6,-2zm1 17l0 0 0 0c0,0 0,0 0,0zm-2 0c0,0 0,0 -1,0 -6,6 -9,6 -10,6 2,4 5,6 10,7 -1,-1 -2,-4 1,-13zm-1 -3c-9,-4 -9,-7 -9,-8 -2,2 -3,6 -3,9 0,1 0,3 0,4 1,-1 3,-3 12,-4 0,0 0,0 0,0 0,0 0,0 0,-1zm12 -9c0,1 -1,5 -8,9 0,0 0,1 0,1 9,-1 11,1 12,3 0,-1 0,-2 0,-3 0,-4 -1,-7 -4,-10zm-12 10c0,0 0,0 0,-1 -9,-4 -9,-7 -9,-8 -2,2 -3,6 -3,9 0,1 0,3 0,4 1,-1 3,-3 12,-4 0,0 0,0 0,0zm0 2c-6,6 -9,6 -10,6 2,4 5,6 10,7 -1,-1 -2,-4 1,-13 0,0 0,0 -1,0zm3 0l0 0c0,0 0,0 0,0l0 0zm5 -15c-2,-1 -4,-2 -6,-2 -2,0 -4,1 -6,2 1,0 3,2 5,11 0,0 1,0 1,0 0,0 0,0 0,0 2,-10 5,-11 6,-11zm-4 15c-1,0 -1,0 -1,0 4,8 3,12 3,13 4,-1 7,-5 9,-9 -1,1 -4,1 -11,-4zm-2 14c-8,0 -15,-7 -15,-16 0,-9 7,-16 15,-16 8,0 15,7 15,16 0,9 -7,16 -15,16zm0 -36c-10,0 -18,9 -18,20 0,11 8,20 18,20 10,0 18,-9 18,-20 0,-11 -8,-20 -18,-20zm10 10c0,1 -1,5 -8,9 0,0 0,1 0,1 9,-1 11,1 12,3 0,-1 0,-2 0,-3 0,-4 -1,-7 -4,-10zm-12 10c0,0 0,0 0,-1 -9,-4 -9,-7 -9,-8 -2,2 -3,6 -3,9 0,1 0,3 0,4 1,-1 3,-3 12,-4 0,0 0,0 0,0zm0 2c-6,6 -9,6 -10,6 2,4 5,6 10,7 -1,-1 -2,-4 1,-13 0,0 0,0 -1,0zm3 0l0 0c0,0 0,0 0,0l0 0zm5 -15c-2,-1 -4,-2 -6,-2 -2,0 -4,1 -6,2 1,0 3,2 5,11 0,0 1,0 1,0 0,0 0,0 0,0 2,-10 5,-11 6,-11zm-4 15c-1,0 -1,0 -1,0 4,8 3,12 3,13 4,-1 7,-5 9,-9 -1,1 -4,1 -11,-4zm8 -12c0,1 -1,5 -8,9 0,0 0,1 0,1 9,-1 11,1 12,3 0,-1 0,-2 0,-3 0,-4 -1,-7 -4,-10zm-8 12c-1,0 -1,0 -1,0 4,8 3,12 3,13 4,-1 7,-5 9,-9 -1,1 -4,1 -11,-4zm-2 -17c-2,0 -4,1 -6,2 1,0 3,2 5,11 0,0 1,0 1,0 0,0 0,0 0,0 2,-10 5,-11 6,-11 -2,-1 -4,-2 -6,-2zm1 17l0 0 0 0c0,0 0,0 0,0zm-2 0c0,0 0,0 -1,0 -6,6 -9,6 -10,6 2,4 5,6 10,7 -1,-1 -2,-4 1,-13zm-1 -3c-9,-4 -9,-7 -9,-8 -2,2 -3,6 -3,9 0,1 0,3 0,4 1,-1 3,-3 12,-4 0,0 0,0 0,0 0,0 0,0 0,-1zm12 -9c0,1 -1,5 -8,9 0,0 0,1 0,1 9,-1 11,1 12,3 0,-1 0,-2 0,-3 0,-4 -1,-7 -4,-10zm-12 9c-9,-4 -9,-7 -9,-8 -2,2 -3,6 -3,9 0,1 0,3 0,4 1,-1 3,-3 12,-4 0,0 0,0 0,0 0,0 0,0 0,-1zm1 3c0,0 0,0 -1,0 -6,6 -9,6 -10,6 2,4 5,6 10,7 -1,-1 -2,-4 1,-13zm2 0l0 0 0 0c0,0 0,0 0,0zm-1 -17c-2,0 -4,1 -6,2 1,0 3,2 5,11 0,0 1,0 1,0 0,0 0,0 0,0 2,-10 5,-11 6,-11 -2,-1 -4,-2 -6,-2zm2 17c-1,0 -1,0 -1,0 4,8 3,12 3,13 4,-1 7,-5 9,-9 -1,1 -4,1 -11,-4zm8 -12c0,1 -1,5 -8,9 0,0 0,1 0,1 9,-1 11,1 12,3 0,-1 0,-2 0,-3 0,-4 -1,-7 -4,-10zm-8 12c-1,0 -1,0 -1,0 4,8 3,12 3,13 4,-1 7,-5 9,-9 -1,1 -4,1 -11,-4zm-2 -17c-2,0 -4,1 -6,2 1,0 3,2 5,11 0,0 1,0 1,0 0,0 0,0 0,0 2,-10 5,-11 6,-11 -2,-1 -4,-2 -6,-2zm1 17l0 0 0 0c0,0 0,0 0,0zm-2 0c0,0 0,0 -1,0 -6,6 -9,6 -10,6 2,4 5,6 10,7 -1,-1 -2,-4 1,-13zm-1 -3c-9,-4 -9,-7 -9,-8 -2,2 -3,6 -3,9 0,1 0,3 0,4 1,-1 3,-3 12,-4 0,0 0,0 0,0 0,0 0,0 0,-1zm12 -9c0,1 -1,5 -8,9 0,0 0,1 0,1 9,-1 11,1 12,3 0,-1 0,-2 0,-3 0,-4 -1,-7 -4,-10zm-12 9c-9,-4 -9,-7 -9,-8 -2,2 -3,6 -3,9 0,1 0,3 0,4 1,-1 3,-3 12,-4 0,0 0,0 0,0 0,0 0,0 0,-1zm1 3c0,0 0,0 -1,0 -6,6 -9,6 -10,6 2,4 5,6 10,7 -1,-1 -2,-4 1,-13zm2 0l0 0 0 0c0,0 0,0 0,0zm-1 -17c-2,0 -4,1 -6,2 1,0 3,2 5,11 0,0 1,0 1,0 0,0 0,0 0,0 2,-10 5,-11 6,-11 -2,-1 -4,-2 -6,-2zm2 17c-1,0 -1,0 -1,0 4,8 3,12 3,13 4,-1 7,-5 9,-9 -1,1 -4,1 -11,-4zm8 -12c0,1 -1,5 -8,9 0,0 0,1 0,1 9,-1 11,1 12,3 0,-1 0,-2 0,-3 0,-4 -1,-7 -4,-10zm-8 12c-1,0 -1,0 -1,0 4,8 3,12 3,13 4,-1 7,-5 9,-9 -1,1 -4,1 -11,-4zm-2 -17c-2,0 -4,1 -6,2 1,0 3,2 5,11 0,0 1,0 1,0 0,0 0,0 0,0 2,-10 5,-11 6,-11 -2,-1 -4,-2 -6,-2zm1 17l0 0 0 0c0,0 0,0 0,0zm-2 0c0,0 0,0 -1,0 -6,6 -9,6 -10,6 2,4 5,6 10,7 -1,-1 -2,-4 1,-13zm-1 -3c-9,-4 -9,-7 -9,-8 -2,2 -3,6 -3,9 0,1 0,3 0,4 1,-1 3,-3 12,-4 0,0 0,0 0,0 0,0 0,0 0,-1zm12 -9c0,1 -1,5 -8,9 0,0 0,1 0,1 9,-1 11,1 12,3 0,-1 0,-2 0,-3 0,-4 -1,-7 -4,-10zm-12 9c-9,-4 -9,-7 -9,-8 -2,2 -3,6 -3,9 0,1 0,3 0,4 1,-1 3,-3 12,-4 0,0 0,0 0,0 0,0 0,0 0,-1zm1 3c0,0 0,0 -1,0 -6,6 -9,6 -10,6 2,4 5,6 10,7 -1,-1 -2,-4 1,-13zm2 0l0 0 0 0c0,0 0,0 0,0zm-1 -17c-2,0 -4,1 -6,2 1,0 3,2 5,11 0,0 1,0 1,0 0,0 0,0 0,0 2,-10 5,-11 6,-11 -2,-1 -4,-2 -6,-2zm2 17c-1,0 -1,0 -1,0 4,8 3,12 3,13 4,-1 7,-5 9,-9 -1,1 -4,1 -11,-4zm8 -12c0,1 -1,5 -8,9 0,0 0,1 0,1 9,-1 11,1 12,3 0,-1 0,-2 0,-3 0,-4 -1,-7 -4,-10zm-8 12c-1,0 -1,0 -1,0 4,8 3,12 3,13 4,-1 7,-5 9,-9 -1,1 -4,1 -11,-4zm-2 -17c-2,0 -4,1 -6,2 1,0 3,2 5,11 0,0 1,0 1,0 0,0 0,0 0,0 2,-10 5,-11 6,-11 -2,-1 -4,-2 -6,-2zm1 17l0 0 0 0c0,0 0,0 0,0zm-2 0c0,0 0,0 -1,0 -6,6 -9,6 -10,6 2,4 5,6 10,7 -1,-1 -2,-4 1,-13zm-1 -3c-9,-4 -9,-7 -9,-8 -2,2 -3,6 -3,9 0,1 0,3 0,4 1,-1 3,-3 12,-4 0,0 0,0 0,0 0,0 0,0 0,-1zm12 -9c0,1 -1,5 -8,9 0,0 0,1 0,1 9,-1 11,1 12,3 0,-1 0,-2 0,-3 0,-4 -1,-7 -4,-10zm-12 9c-9,-4 -9,-7 -9,-8 -2,2 -3,6 -3,9 0,1 0,3 0,4 1,-1 3,-3 12,-4 0,0 0,0 0,0 0,0 0,0 0,-1zm1 3c0,0 0,0 -1,0 -6,6 -9,6 -10,6 2,4 5,6 10,7 -1,-1 -2,-4 1,-13zm2 0l0 0 0 0c0,0 0,0 0,0zm-1 -17c-2,0 -4,1 -6,2 1,0 3,2 5,11 0,0 1,0 1,0 0,0 0,0 0,0 2,-10 5,-11 6,-11 -2,-1 -4,-2 -6,-2zm2 17c-1,0 -1,0 -1,0 4,8 3,12 3,13 4,-1 7,-5 9,-9 -1,1 -4,1 -11,-4zm8 -12c0,1 -1,5 -8,9 0,0 0,1 0,1 9,-1 11,1 12,3 0,-1 0,-2 0,-3 0,-4 -1,-7 -4,-10zm-8 12c-1,0 -1,0 -1,0 4,8 3,12 3,13 4,-1 7,-5 9,-9 -1,1 -4,1 -11,-4zm-2 -17c-2,0 -4,1 -6,2 1,0 3,2 5,11 0,0 1,0 1,0 0,0 0,0 0,0 2,-10 5,-11 6,-11 -2,-1 -4,-2 -6,-2zm1 17l0 0 0 0c0,0 0,0 0,0zm-2 0c0,0 0,0 -1,0 -6,6 -9,6 -10,6 2,4 5,6 10,7 -1,-1 -2,-4 1,-13zm-1 -3c-9,-4 -9,-7 -9,-8 -2,2 -3,6 -3,9 0,1 0,3 0,4 1,-1 3,-3 12,-4 0,0 0,0 0,0 0,0 0,0 0,-1zm12 -9c0,1 -1,5 -8,9 0,0 0,1 0,1 9,-1 11,1 12,3 0,-1 0,-2 0,-3 0,-4 -1,-7 -4,-10zm-12 9c-9,-4 -9,-7 -9,-8 -2,2 -3,6 -3,9 0,1 0,3 0,4 1,-1 3,-3 12,-4 0,0 0,0 0,0 0,0 0,0 0,-1zm1 3c0,0 0,0 -1,0 -6,6 -9,6 -10,6 2,4 5,6 10,7 -1,-1 -2,-4 1,-13zm2 0l0 0 0 0c0,0 0,0 0,0zm-1 -17c-2,0 -4,1 -6,2 1,0 3,2 5,11 0,0 1,0 1,0 0,0 0,0 0,0 2,-10 5,-11 6,-11 -2,-1 -4,-2 -6,-2zm2 17c-1,0 -1,0 -1,0 4,8 3,12 3,13 4,-1 7,-5 9,-9 -1,1 -4,1 -11,-4zm8 -12c0,1 -1,5 -8,9 0,0 0,1 0,1 9,-1 11,1 12,3 0,-1 0,-2 0,-3 0,-4 -1,-7 -4,-10zm-8 12c-1,0 -1,0 -1,0 4,8 3,12 3,13 4,-1 7,-5 9,-9 -1,1 -4,1 -11,-4zm-2 -17c-2,0 -4,1 -6,2 1,0 3,2 5,11 0,0 1,0 1,0 0,0 0,0 0,0 2,-10 5,-11 6,-11 -2,-1 -4,-2 -6,-2zm1 17l0 0 0 0c0,0 0,0 0,0zm-2 0c0,0 0,0 -1,0 -6,6 -9,6 -10,6 2,4 5,6 10,7 -1,-1 -2,-4 1,-13zm-1 -3c-9,-4 -9,-7 -9,-8 -2,2 -3,6 -3,9 0,1 0,3 0,4 1,-1 3,-3 12,-4 0,0 0,0 0,0 0,0 0,0 0,-1zm12 -9c0,1 -1,5 -8,9 0,0 0,1 0,1 9,-1 11,1 12,3 0,-1 0,-2 0,-3 0,-4 -1,-7 -4,-10zm-9 12l0 0 0 0c0,0 0,0 0,0zm0 0l0 0 0 0c0,0 0,0 0,0zm0 0l0 0 0 0c0,0 0,0 0,0zm0 0l0 0 0 0c0,0 0,0 0,0zm0 0l0 0 0 0c0,0 0,0 0,0zm0 0l0 0 0 0c0,0 0,0 0,0zm0 0l0 0 0 0c0,0 0,0 0,0zm0 0l0 0 0 0c0,0 0,0 0,0zm0 0l0 0 0 0c0,0 0,0 0,0zm0 0l0 0 0 0c0,0 0,0 0,0z"/>
   <path class="fil0" d="M41 74c0,0 0,0 0,0 -9,1 -11,3 -12,4 0,-1 0,-3 0,-4 0,-3 1,-7 3,-9 0,1 0,4 9,8 0,1 0,1 0,1z"/>
   <path class="fil0" d="M41 89c-5,-1 -8,-3 -10,-7 1,0 4,0 10,-6 1,0 1,0 1,0 -3,9 -2,12 -1,13z"/>
   <path class="fil0" d="M44 76l0 0 0 0c0,0 0,0 0,0z"/>
   <path class="fil0" d="M49 61c-1,0 -4,1 -6,11 0,0 0,0 0,0 0,0 -1,0 -1,0 -2,-9 -4,-11 -5,-11 2,-1 4,-2 6,-2 2,0 4,1 6,2z"/>
   <path class="fil0" d="M56 80c-2,4 -5,8 -9,9 0,-1 1,-5 -3,-13 0,0 0,0 1,0 7,5 10,5 11,4z"/>
   <path class="fil0" d="M57 74c0,1 0,2 0,3 -1,-2 -3,-4 -12,-3 0,0 0,-1 0,-1 7,-4 8,-8 8,-9 3,3 4,6 4,10z"/>
   <path class="fil0" d="M44 76l0 0 0 0c0,0 0,0 0,0zm0 0l0 0 0 0c0,0 0,0 0,0zm0 0l0 0 0 0c0,0 0,0 0,0zm0 0l0 0 0 0c0,0 0,0 0,0zm0 0l0 0 0 0c0,0 0,0 0,0zm0 0l0 0 0 0c0,0 0,0 0,0zm0 0l0 0 0 0c0,0 0,0 0,0zm0 0l0 0 0 0c0,0 0,0 0,0zm0 0l0 0 0 0c0,0 0,0 0,0zm0 0l0 0 0 0c0,0 0,0 0,0zm-3 -3c-9,-4 -9,-7 -9,-8 -2,2 -3,6 -3,9 0,1 0,3 0,4 1,-1 3,-3 12,-4 0,0 0,0 0,0 0,0 0,0 0,-1zm1 3c0,0 0,0 -1,0 -6,6 -9,6 -10,6 2,4 5,6 10,7 -1,-1 -2,-4 1,-13zm2 0l0 0 0 0c0,0 0,0 0,0zm-1 -17c-2,0 -4,1 -6,2 1,0 3,2 5,11 0,0 1,0 1,0 0,0 0,0 0,0 2,-10 5,-11 6,-11 -2,-1 -4,-2 -6,-2zm2 17c-1,0 -1,0 -1,0 4,8 3,12 3,13 4,-1 7,-5 9,-9 -1,1 -4,1 -11,-4zm8 -12c0,1 -1,5 -8,9 0,0 0,1 0,1 9,-1 11,1 12,3 0,-1 0,-2 0,-3 0,-4 -1,-7 -4,-10zm-9 12l0 0 0 0c0,0 0,0 0,0zm0 0l0 0 0 0c0,0 0,0 0,0zm0 0l0 0 0 0c0,0 0,0 0,0zm0 0l0 0 0 0c0,0 0,0 0,0zm0 0l0 0 0 0c0,0 0,0 0,0zm0 0l0 0 0 0c0,0 0,0 0,0zm0 0l0 0 0 0c0,0 0,0 0,0zm0 0l0 0 0 0c0,0 0,0 0,0zm0 0l0 0 0 0c0,0 0,0 0,0zm0 0l0 0 0 0c0,0 0,0 0,0z"/>
   <path class="fil0" d="M45 74c0,1 0,1 0,2 0,0 0,0 0,0 -1,0 -1,0 -1,0 0,0 0,0 0,0l0 0c-1,1 -1,1 -1,1 0,0 -1,0 -1,-1 0,0 0,0 0,0 0,0 0,0 -1,0 0,0 0,0 0,0 0,-1 0,-1 0,-1 0,0 0,0 0,-1 0,0 0,0 0,0 0,0 0,0 0,-1 0,0 0,0 0,0 0,0 1,-1 1,-1 0,0 0,0 0,0 0,0 1,0 1,0 0,0 0,0 0,0 0,0 0,0 0,0 1,0 1,0 2,1 0,0 0,0 0,0 0,0 0,1 0,1 0,0 0,0 0,0l0 0c0,0 0,0 0,0z"/>
   <path class="fil0" d="M44 76l0 0 0 0c0,0 0,0 0,0z"/>
   <path class="fil0" d="M44 76l0 0 0 0c0,0 0,0 0,0z"/>
   <path class="fil0" d="M201 76l0 0 0 0c0,0 0,0 0,0zm0 0l0 0 0 0c0,0 0,0 0,0zm0 0l0 0 0 0c0,0 0,0 0,0zm0 0l0 0 0 0c0,0 0,0 0,0zm0 0l0 0 0 0c0,0 0,0 0,0zm0 0l0 0 0 0c0,0 0,0 0,0zm0 0l0 0 0 0c0,0 0,0 0,0zm0 0l0 0 0 0c0,0 0,0 0,0zm0 0l0 0 0 0c0,0 0,0 0,0zm0 0l0 0 0 0c0,0 0,0 0,0zm-3 -3c-9,-4 -9,-7 -9,-8 -2,2 -3,6 -3,9 0,1 0,3 0,4 1,-1 3,-4 12,-4 0,0 0,0 0,0 0,0 0,0 0,-1zm1 3c0,0 -1,0 -1,0 -6,6 -9,6 -10,6 2,4 5,6 10,7 -1,-1 -2,-4 1,-13zm2 0l0 0 0 0c0,0 0,0 0,0zm-1 -17c-3,0 -5,1 -7,2 2,0 4,2 6,11 0,0 1,0 1,0 0,0 0,0 0,0 2,-10 5,-11 6,-11 -2,-1 -4,-2 -6,-2zm1 17c0,0 0,0 0,0 4,8 3,11 2,13 5,-1 8,-5 10,-9 -1,1 -4,1 -12,-4zm9 -12c0,1 -1,4 -8,9 0,0 0,1 0,1 8,-1 11,1 12,2 0,0 0,-1 0,-2 0,-4 -2,-7 -4,-10zm-9 12c0,0 0,0 0,0 4,8 3,11 2,13 5,-1 8,-5 10,-9 -1,1 -4,1 -12,-4zm-1 -17c-3,0 -5,1 -7,2 2,0 4,2 6,11 0,0 1,0 1,0 0,0 0,0 0,0 2,-10 5,-11 6,-11 -2,-1 -4,-2 -6,-2zm1 17l0 0 0 0c0,0 0,0 0,0zm-2 0c0,0 -1,0 -1,0 -6,6 -9,6 -10,6 2,4 5,6 10,7 -1,-1 -2,-4 1,-13zm-1 -3c-9,-4 -9,-7 -9,-8 -2,2 -3,6 -3,9 0,1 0,3 0,4 1,-1 3,-4 12,-4 0,0 0,0 0,0 0,0 0,0 0,-1zm12 -9c0,1 -1,4 -8,9 0,0 0,1 0,1 8,-1 11,1 12,2 0,0 0,-1 0,-2 0,-4 -2,-7 -4,-10zm-12 9c-9,-4 -9,-7 -9,-8 -2,2 -3,6 -3,9 0,1 0,3 0,4 1,-1 3,-4 12,-4 0,0 0,0 0,0 0,0 0,0 0,-1zm1 3c0,0 -1,0 -1,0 -6,6 -9,6 -10,6 2,4 5,6 10,7 -1,-1 -2,-4 1,-13zm2 0l0 0 0 0c0,0 0,0 0,0zm-1 -17c-3,0 -5,1 -7,2 2,0 4,2 6,11 0,0 1,0 1,0 0,0 0,0 0,0 2,-10 5,-11 6,-11 -2,-1 -4,-2 -6,-2zm1 17c0,0 0,0 0,0 4,8 3,11 2,13 5,-1 8,-5 10,-9 -1,1 -4,1 -12,-4zm9 -12c0,1 -1,4 -8,9 0,0 0,1 0,1 8,-1 11,1 12,2 0,0 0,-1 0,-2 0,-4 -2,-7 -4,-10zm-9 12c0,0 0,0 0,0 4,8 3,11 2,13 5,-1 8,-5 10,-9 -1,1 -4,1 -12,-4zm-1 -17c-3,0 -5,1 -7,2 2,0 4,2 6,11 0,0 1,0 1,0 0,0 0,0 0,0 2,-10 5,-11 6,-11 -2,-1 -4,-2 -6,-2zm1 17l0 0 0 0c0,0 0,0 0,0zm-2 0c0,0 -1,0 -1,0 -6,6 -9,6 -10,6 2,4 5,6 10,7 -1,-1 -2,-4 1,-13zm-1 -3c-9,-4 -9,-7 -9,-8 -2,2 -3,6 -3,9 0,1 0,3 0,4 1,-1 3,-4 12,-4 0,0 0,0 0,0 0,0 0,0 0,-1zm12 -9c0,1 -1,4 -8,9 0,0 0,1 0,1 8,-1 11,1 12,2 0,0 0,-1 0,-2 0,-4 -2,-7 -4,-10zm-12 9c-9,-4 -9,-7 -9,-8 -2,2 -3,6 -3,9 0,1 0,3 0,4 1,-1 3,-4 12,-4 0,0 0,0 0,0 0,0 0,0 0,-1zm1 3c0,0 -1,0 -1,0 -6,6 -9,6 -10,6 2,4 5,6 10,7 -1,-1 -2,-4 1,-13zm2 0l0 0 0 0c0,0 0,0 0,0zm-1 -17c-3,0 -5,1 -7,2 2,0 4,2 6,11 0,0 1,0 1,0 0,0 0,0 0,0 2,-10 5,-11 6,-11 -2,-1 -4,-2 -6,-2zm1 17c0,0 0,0 0,0 4,8 3,11 2,13 5,-1 8,-5 10,-9 -1,1 -4,1 -12,-4zm9 -12c0,1 -1,4 -8,9 0,0 0,1 0,1 8,-1 11,1 12,2 0,0 0,-1 0,-2 0,-4 -2,-7 -4,-10zm-9 12c0,0 0,0 0,0 4,8 3,11 2,13 5,-1 8,-5 10,-9 -1,1 -4,1 -12,-4zm-1 -17c-3,0 -5,1 -7,2 2,0 4,2 6,11 0,0 1,0 1,0 0,0 0,0 0,0 2,-10 5,-11 6,-11 -2,-1 -4,-2 -6,-2zm1 17l0 0 0 0c0,0 0,0 0,0zm-2 0c0,0 -1,0 -1,0 -6,6 -9,6 -10,6 2,4 5,6 10,7 -1,-1 -2,-4 1,-13zm-1 -3c-9,-4 -9,-7 -9,-8 -2,2 -3,6 -3,9 0,1 0,3 0,4 1,-1 3,-4 12,-4 0,0 0,0 0,0 0,0 0,0 0,-1zm12 -9c0,1 -1,4 -8,9 0,0 0,1 0,1 8,-1 11,1 12,2 0,0 0,-1 0,-2 0,-4 -2,-7 -4,-10zm-12 9c-9,-4 -9,-7 -9,-8 -2,2 -3,6 -3,9 0,1 0,3 0,4 1,-1 3,-4 12,-4 0,0 0,0 0,0 0,0 0,0 0,-1zm1 3c0,0 -1,0 -1,0 -6,6 -9,6 -10,6 2,4 5,6 10,7 -1,-1 -2,-4 1,-13zm2 0l0 0 0 0c0,0 0,0 0,0zm-1 -17c-3,0 -5,1 -7,2 2,0 4,2 6,11 0,0 1,0 1,0 0,0 0,0 0,0 2,-10 5,-11 6,-11 -2,-1 -4,-2 -6,-2zm1 17c0,0 0,0 0,0 4,8 3,11 2,13 5,-1 8,-5 10,-9 -1,1 -4,1 -12,-4zm9 -12c0,1 -1,4 -8,9 0,0 0,1 0,1 8,-1 11,1 12,2 0,0 0,-1 0,-2 0,-4 -2,-7 -4,-10zm-9 12c0,0 0,0 0,0 4,8 3,11 2,13 5,-1 8,-5 10,-9 -1,1 -4,1 -12,-4zm-1 -17c-3,0 -5,1 -7,2 2,0 4,2 6,11 0,0 1,0 1,0 0,0 0,0 0,0 2,-10 5,-11 6,-11 -2,-1 -4,-2 -6,-2zm1 17l0 0 0 0c0,0 0,0 0,0zm-2 0c0,0 -1,0 -1,0 -6,6 -9,6 -10,6 2,4 5,6 10,7 -1,-1 -2,-4 1,-13zm-1 -3c-9,-4 -9,-7 -9,-8 -2,2 -3,6 -3,9 0,1 0,3 0,4 1,-1 3,-4 12,-4 0,0 0,0 0,0 0,0 0,0 0,-1zm12 -9c0,1 -1,4 -8,9 0,0 0,1 0,1 8,-1 11,1 12,2 0,0 0,-1 0,-2 0,-4 -2,-7 -4,-10zm-12 9c-9,-4 -9,-7 -9,-8 -2,2 -3,6 -3,9 0,1 0,3 0,4 1,-1 3,-4 12,-4 0,0 0,0 0,0 0,0 0,0 0,-1zm1 3c0,0 -1,0 -1,0 -6,6 -9,6 -10,6 2,4 5,6 10,7 -1,-1 -2,-4 1,-13zm2 0l0 0 0 0c0,0 0,0 0,0zm-1 -17c-3,0 -5,1 -7,2 2,0 4,2 6,11 0,0 1,0 1,0 0,0 0,0 0,0 2,-10 5,-11 6,-11 -2,-1 -4,-2 -6,-2zm1 17c0,0 0,0 0,0 4,8 3,11 2,13 5,-1 8,-5 10,-9 -1,1 -4,1 -12,-4zm9 -12c0,1 -1,4 -8,9 0,0 0,1 0,1 8,-1 11,1 12,2 0,0 0,-1 0,-2 0,-4 -2,-7 -4,-10zm-9 12c0,0 0,0 0,0 4,8 3,11 2,13 5,-1 8,-5 10,-9 -1,1 -4,1 -12,-4zm-1 -17c-3,0 -5,1 -7,2 2,0 4,2 6,11 0,0 1,0 1,0 0,0 0,0 0,0 2,-10 5,-11 6,-11 -2,-1 -4,-2 -6,-2zm1 17l0 0 0 0c0,0 0,0 0,0zm-2 0c0,0 -1,0 -1,0 -6,6 -9,6 -10,6 2,4 5,6 10,7 -1,-1 -2,-4 1,-13zm-1 -3c-9,-4 -9,-7 -9,-8 -2,2 -3,6 -3,9 0,1 0,3 0,4 1,-1 3,-4 12,-4 0,0 0,0 0,0 0,0 0,0 0,-1zm12 -9c0,1 -1,4 -8,9 0,0 0,1 0,1 8,-1 11,1 12,2 0,0 0,-1 0,-2 0,-4 -2,-7 -4,-10zm-12 9c-9,-4 -9,-7 -9,-8 -2,2 -3,6 -3,9 0,1 0,3 0,4 1,-1 3,-4 12,-4 0,0 0,0 0,0 0,0 0,0 0,-1zm1 3c0,0 -1,0 -1,0 -6,6 -9,6 -10,6 2,4 5,6 10,7 -1,-1 -2,-4 1,-13zm2 0l0 0 0 0c0,0 0,0 0,0zm-1 -17c-3,0 -5,1 -7,2 2,0 4,2 6,11 0,0 1,0 1,0 0,0 0,0 0,0 2,-10 5,-11 6,-11 -2,-1 -4,-2 -6,-2zm1 17c0,0 0,0 0,0 4,8 3,11 2,13 5,-1 8,-5 10,-9 -1,1 -4,1 -12,-4zm9 -12c0,1 -1,4 -8,9 0,0 0,1 0,1 8,-1 11,1 12,2 0,0 0,-1 0,-2 0,-4 -2,-7 -4,-10zm-9 12c0,0 0,0 0,0 4,8 3,11 2,13 5,-1 8,-5 10,-9 -1,1 -4,1 -12,-4zm-1 -17c-3,0 -5,1 -7,2 2,0 4,2 6,11 0,0 1,0 1,0 0,0 0,0 0,0 2,-10 5,-11 6,-11 -2,-1 -4,-2 -6,-2zm1 17l0 0 0 0c0,0 0,0 0,0zm-2 0c0,0 -1,0 -1,0 -6,6 -9,6 -10,6 2,4 5,6 10,7 -1,-1 -2,-4 1,-13zm-1 -3c-9,-4 -9,-7 -9,-8 -2,2 -3,6 -3,9 0,1 0,3 0,4 1,-1 3,-4 12,-4 0,0 0,0 0,0 0,0 0,0 0,-1zm12 -9c0,1 -1,4 -8,9 0,0 0,1 0,1 8,-1 11,1 12,2 0,0 0,-1 0,-2 0,-4 -2,-7 -4,-10zm-12 10c0,0 0,0 0,-1 -9,-4 -9,-7 -9,-8 -2,2 -3,6 -3,9 0,1 0,3 0,4 1,-1 3,-4 12,-4 0,0 0,0 0,0zm0 2c-6,6 -9,6 -10,6 2,4 5,6 10,7 -1,-1 -2,-4 1,-13 0,0 -1,0 -1,0zm3 0l0 0c0,0 0,0 0,0l0 0zm5 -15c-2,-1 -4,-2 -6,-2 -3,0 -5,1 -7,2 2,0 4,2 6,11 0,0 1,0 1,0 0,0 0,0 0,0 2,-10 5,-11 6,-11zm-5 15c0,0 0,0 0,0 4,8 3,11 2,13 5,-1 8,-5 10,-9 -1,1 -4,1 -12,-4zm-1 14c-8,0 -15,-7 -15,-16 0,-9 7,-16 15,-16 8,0 15,7 15,16 0,9 -7,16 -15,16zm0 -36c-10,0 -19,9 -19,20 0,11 9,20 19,20 10,0 18,-9 18,-20 0,-11 -8,-20 -18,-20zm10 10c0,1 -1,4 -8,9 0,0 0,1 0,1 8,-1 11,1 12,2 0,0 0,-1 0,-2 0,-4 -2,-7 -4,-10zm-12 10c0,0 0,0 0,-1 -9,-4 -9,-7 -9,-8 -2,2 -3,6 -3,9 0,1 0,3 0,4 1,-1 3,-4 12,-4 0,0 0,0 0,0zm0 2c-6,6 -9,6 -10,6 2,4 5,6 10,7 -1,-1 -2,-4 1,-13 0,0 -1,0 -1,0zm3 0l0 0c0,0 0,0 0,0l0 0zm5 -15c-2,-1 -4,-2 -6,-2 -3,0 -5,1 -7,2 2,0 4,2 6,11 0,0 1,0 1,0 0,0 0,0 0,0 2,-10 5,-11 6,-11zm-5 15c0,0 0,0 0,0 4,8 3,11 2,13 5,-1 8,-5 10,-9 -1,1 -4,1 -12,-4zm9 -12c0,1 -1,4 -8,9 0,0 0,1 0,1 8,-1 11,1 12,2 0,0 0,-1 0,-2 0,-4 -2,-7 -4,-10zm-9 12c0,0 0,0 0,0 4,8 3,11 2,13 5,-1 8,-5 10,-9 -1,1 -4,1 -12,-4zm-1 -17c-3,0 -5,1 -7,2 2,0 4,2 6,11 0,0 1,0 1,0 0,0 0,0 0,0 2,-10 5,-11 6,-11 -2,-1 -4,-2 -6,-2zm1 17l0 0 0 0c0,0 0,0 0,0zm-2 0c0,0 -1,0 -1,0 -6,6 -9,6 -10,6 2,4 5,6 10,7 -1,-1 -2,-4 1,-13zm-1 -3c-9,-4 -9,-7 -9,-8 -2,2 -3,6 -3,9 0,1 0,3 0,4 1,-1 3,-4 12,-4 0,0 0,0 0,0 0,0 0,0 0,-1zm12 -9c0,1 -1,4 -8,9 0,0 0,1 0,1 8,-1 11,1 12,2 0,0 0,-1 0,-2 0,-4 -2,-7 -4,-10zm-12 9c-9,-4 -9,-7 -9,-8 -2,2 -3,6 -3,9 0,1 0,3 0,4 1,-1 3,-4 12,-4 0,0 0,0 0,0 0,0 0,0 0,-1zm1 3c0,0 -1,0 -1,0 -6,6 -9,6 -10,6 2,4 5,6 10,7 -1,-1 -2,-4 1,-13zm2 0l0 0 0 0c0,0 0,0 0,0zm-1 -17c-3,0 -5,1 -7,2 2,0 4,2 6,11 0,0 1,0 1,0 0,0 0,0 0,0 2,-10 5,-11 6,-11 -2,-1 -4,-2 -6,-2zm1 17c0,0 0,0 0,0 4,8 3,11 2,13 5,-1 8,-5 10,-9 -1,1 -4,1 -12,-4zm9 -12c0,1 -1,4 -8,9 0,0 0,1 0,1 8,-1 11,1 12,2 0,0 0,-1 0,-2 0,-4 -2,-7 -4,-10zm-9 12c0,0 0,0 0,0 4,8 3,11 2,13 5,-1 8,-5 10,-9 -1,1 -4,1 -12,-4zm-1 -17c-3,0 -5,1 -7,2 2,0 4,2 6,11 0,0 1,0 1,0 0,0 0,0 0,0 2,-10 5,-11 6,-11 -2,-1 -4,-2 -6,-2zm1 17l0 0 0 0c0,0 0,0 0,0zm-2 0c0,0 -1,0 -1,0 -6,6 -9,6 -10,6 2,4 5,6 10,7 -1,-1 -2,-4 1,-13zm-1 -3c-9,-4 -9,-7 -9,-8 -2,2 -3,6 -3,9 0,1 0,3 0,4 1,-1 3,-4 12,-4 0,0 0,0 0,0 0,0 0,0 0,-1zm12 -9c0,1 -1,4 -8,9 0,0 0,1 0,1 8,-1 11,1 12,2 0,0 0,-1 0,-2 0,-4 -2,-7 -4,-10zm-12 9c-9,-4 -9,-7 -9,-8 -2,2 -3,6 -3,9 0,1 0,3 0,4 1,-1 3,-4 12,-4 0,0 0,0 0,0 0,0 0,0 0,-1zm1 3c0,0 -1,0 -1,0 -6,6 -9,6 -10,6 2,4 5,6 10,7 -1,-1 -2,-4 1,-13zm2 0l0 0 0 0c0,0 0,0 0,0zm-1 -17c-3,0 -5,1 -7,2 2,0 4,2 6,11 0,0 1,0 1,0 0,0 0,0 0,0 2,-10 5,-11 6,-11 -2,-1 -4,-2 -6,-2zm1 17c0,0 0,0 0,0 4,8 3,11 2,13 5,-1 8,-5 10,-9 -1,1 -4,1 -12,-4zm9 -12c0,1 -1,4 -8,9 0,0 0,1 0,1 8,-1 11,1 12,2 0,0 0,-1 0,-2 0,-4 -2,-7 -4,-10zm-9 12c0,0 0,0 0,0 4,8 3,11 2,13 5,-1 8,-5 10,-9 -1,1 -4,1 -12,-4zm-1 -17c-3,0 -5,1 -7,2 2,0 4,2 6,11 0,0 1,0 1,0 0,0 0,0 0,0 2,-10 5,-11 6,-11 -2,-1 -4,-2 -6,-2zm1 17l0 0 0 0c0,0 0,0 0,0zm-2 0c0,0 -1,0 -1,0 -6,6 -9,6 -10,6 2,4 5,6 10,7 -1,-1 -2,-4 1,-13zm-1 -3c-9,-4 -9,-7 -9,-8 -2,2 -3,6 -3,9 0,1 0,3 0,4 1,-1 3,-4 12,-4 0,0 0,0 0,0 0,0 0,0 0,-1zm12 -9c0,1 -1,4 -8,9 0,0 0,1 0,1 8,-1 11,1 12,2 0,0 0,-1 0,-2 0,-4 -2,-7 -4,-10zm-12 9c-9,-4 -9,-7 -9,-8 -2,2 -3,6 -3,9 0,1 0,3 0,4 1,-1 3,-4 12,-4 0,0 0,0 0,0 0,0 0,0 0,-1zm1 3c0,0 -1,0 -1,0 -6,6 -9,6 -10,6 2,4 5,6 10,7 -1,-1 -2,-4 1,-13zm2 0l0 0 0 0c0,0 0,0 0,0zm-1 -17c-3,0 -5,1 -7,2 2,0 4,2 6,11 0,0 1,0 1,0 0,0 0,0 0,0 2,-10 5,-11 6,-11 -2,-1 -4,-2 -6,-2zm1 17c0,0 0,0 0,0 4,8 3,11 2,13 5,-1 8,-5 10,-9 -1,1 -4,1 -12,-4zm9 -12c0,1 -1,4 -8,9 0,0 0,1 0,1 8,-1 11,1 12,2 0,0 0,-1 0,-2 0,-4 -2,-7 -4,-10zm-9 12c0,0 0,0 0,0 4,8 3,11 2,13 5,-1 8,-5 10,-9 -1,1 -4,1 -12,-4zm-1 -17c-3,0 -5,1 -7,2 2,0 4,2 6,11 0,0 1,0 1,0 0,0 0,0 0,0 2,-10 5,-11 6,-11 -2,-1 -4,-2 -6,-2zm1 17l0 0 0 0c0,0 0,0 0,0zm-2 0c0,0 -1,0 -1,0 -6,6 -9,6 -10,6 2,4 5,6 10,7 -1,-1 -2,-4 1,-13zm-1 -3c-9,-4 -9,-7 -9,-8 -2,2 -3,6 -3,9 0,1 0,3 0,4 1,-1 3,-4 12,-4 0,0 0,0 0,0 0,0 0,0 0,-1zm12 -9c0,1 -1,4 -8,9 0,0 0,1 0,1 8,-1 11,1 12,2 0,0 0,-1 0,-2 0,-4 -2,-7 -4,-10zm-12 9c-9,-4 -9,-7 -9,-8 -2,2 -3,6 -3,9 0,1 0,3 0,4 1,-1 3,-4 12,-4 0,0 0,0 0,0 0,0 0,0 0,-1zm1 3c0,0 -1,0 -1,0 -6,6 -9,6 -10,6 2,4 5,6 10,7 -1,-1 -2,-4 1,-13zm2 0l0 0 0 0c0,0 0,0 0,0zm-1 -17c-3,0 -5,1 -7,2 2,0 4,2 6,11 0,0 1,0 1,0 0,0 0,0 0,0 2,-10 5,-11 6,-11 -2,-1 -4,-2 -6,-2zm1 17c0,0 0,0 0,0 4,8 3,11 2,13 5,-1 8,-5 10,-9 -1,1 -4,1 -12,-4zm9 -12c0,1 -1,4 -8,9 0,0 0,1 0,1 8,-1 11,1 12,2 0,0 0,-1 0,-2 0,-4 -2,-7 -4,-10zm-9 12c0,0 0,0 0,0 4,8 3,11 2,13 5,-1 8,-5 10,-9 -1,1 -4,1 -12,-4zm-1 -17c-3,0 -5,1 -7,2 2,0 4,2 6,11 0,0 1,0 1,0 0,0 0,0 0,0 2,-10 5,-11 6,-11 -2,-1 -4,-2 -6,-2zm1 17l0 0 0 0c0,0 0,0 0,0zm-2 0c0,0 -1,0 -1,0 -6,6 -9,6 -10,6 2,4 5,6 10,7 -1,-1 -2,-4 1,-13zm-1 -3c-9,-4 -9,-7 -9,-8 -2,2 -3,6 -3,9 0,1 0,3 0,4 1,-1 3,-4 12,-4 0,0 0,0 0,0 0,0 0,0 0,-1zm12 -9c0,1 -1,4 -8,9 0,0 0,1 0,1 8,-1 11,1 12,2 0,0 0,-1 0,-2 0,-4 -2,-7 -4,-10zm-12 9c-9,-4 -9,-7 -9,-8 -2,2 -3,6 -3,9 0,1 0,3 0,4 1,-1 3,-4 12,-4 0,0 0,0 0,0 0,0 0,0 0,-1zm1 3c0,0 -1,0 -1,0 -6,6 -9,6 -10,6 2,4 5,6 10,7 -1,-1 -2,-4 1,-13zm2 0l0 0 0 0c0,0 0,0 0,0zm-1 -17c-3,0 -5,1 -7,2 2,0 4,2 6,11 0,0 1,0 1,0 0,0 0,0 0,0 2,-10 5,-11 6,-11 -2,-1 -4,-2 -6,-2zm1 17c0,0 0,0 0,0 4,8 3,11 2,13 5,-1 8,-5 10,-9 -1,1 -4,1 -12,-4zm9 -12c0,1 -1,4 -8,9 0,0 0,1 0,1 8,-1 11,1 12,2 0,0 0,-1 0,-2 0,-4 -2,-7 -4,-10zm-9 12c0,0 0,0 0,0 4,8 3,11 2,13 5,-1 8,-5 10,-9 -1,1 -4,1 -12,-4zm-1 -17c-3,0 -5,1 -7,2 2,0 4,2 6,11 0,0 1,0 1,0 0,0 0,0 0,0 2,-10 5,-11 6,-11 -2,-1 -4,-2 -6,-2zm1 17l0 0 0 0c0,0 0,0 0,0zm-2 0c0,0 -1,0 -1,0 -6,6 -9,6 -10,6 2,4 5,6 10,7 -1,-1 -2,-4 1,-13zm-1 -3c-9,-4 -9,-7 -9,-8 -2,2 -3,6 -3,9 0,1 0,3 0,4 1,-1 3,-4 12,-4 0,0 0,0 0,0 0,0 0,0 0,-1zm12 -9c0,1 -1,4 -8,9 0,0 0,1 0,1 8,-1 11,1 12,2 0,0 0,-1 0,-2 0,-4 -2,-7 -4,-10zm-9 12l0 0 0 0c0,0 0,0 0,0zm0 0l0 0 0 0c0,0 0,0 0,0zm0 0l0 0 0 0c0,0 0,0 0,0zm0 0l0 0 0 0c0,0 0,0 0,0zm0 0l0 0 0 0c0,0 0,0 0,0zm0 0l0 0 0 0c0,0 0,0 0,0zm0 0l0 0 0 0c0,0 0,0 0,0zm0 0l0 0 0 0c0,0 0,0 0,0zm0 0l0 0 0 0c0,0 0,0 0,0zm0 0l0 0 0 0c0,0 0,0 0,0z"/>
   <path class="fil0" d="M198 74c0,0 0,0 0,0 -9,0 -11,3 -12,4 0,-1 0,-3 0,-4 0,-3 1,-7 3,-9 0,1 0,4 9,8 0,1 0,1 0,1z"/>
   <path class="fil0" d="M198 89c-5,-1 -8,-3 -10,-7 1,0 4,0 10,-6 0,0 1,0 1,0 -3,9 -2,12 -1,13z"/>
   <path class="fil0" d="M201 76l0 0 0 0c0,0 0,0 0,0z"/>
   <path class="fil0" d="M206 61c-1,0 -4,1 -6,11 0,0 0,0 0,0 0,0 -1,0 -1,0 -2,-9 -4,-11 -6,-11 2,-1 4,-2 7,-2 2,0 4,1 6,2z"/>
   <path class="fil0" d="M213 80c-2,4 -5,8 -10,9 1,-2 2,-5 -2,-13 0,0 0,0 0,0 8,5 11,5 12,4z"/>
   <path class="fil0" d="M214 74c0,1 0,2 0,2 -1,-1 -4,-3 -12,-2 0,0 0,-1 0,-1 7,-5 8,-8 8,-9 2,3 4,6 4,10z"/>
   <path class="fil0" d="M201 76l0 0 0 0c0,0 0,0 0,0zm0 0l0 0 0 0c0,0 0,0 0,0zm0 0l0 0 0 0c0,0 0,0 0,0zm0 0l0 0 0 0c0,0 0,0 0,0zm0 0l0 0 0 0c0,0 0,0 0,0zm0 0l0 0 0 0c0,0 0,0 0,0zm0 0l0 0 0 0c0,0 0,0 0,0zm0 0l0 0 0 0c0,0 0,0 0,0zm0 0l0 0 0 0c0,0 0,0 0,0zm0 0l0 0 0 0c0,0 0,0 0,0zm-3 -3c-9,-4 -9,-7 -9,-8 -2,2 -3,6 -3,9 0,1 0,3 0,4 1,-1 3,-4 12,-4 0,0 0,0 0,0 0,0 0,0 0,-1zm1 3c0,0 -1,0 -1,0 -6,6 -9,6 -10,6 2,4 5,6 10,7 -1,-1 -2,-4 1,-13zm2 0l0 0 0 0c0,0 0,0 0,0zm-1 -17c-3,0 -5,1 -7,2 2,0 4,2 6,11 0,0 1,0 1,0 0,0 0,0 0,0 2,-10 5,-11 6,-11 -2,-1 -4,-2 -6,-2zm1 17c0,0 0,0 0,0 4,8 3,11 2,13 5,-1 8,-5 10,-9 -1,1 -4,1 -12,-4zm9 -12c0,1 -1,4 -8,9 0,0 0,1 0,1 8,-1 11,1 12,2 0,0 0,-1 0,-2 0,-4 -2,-7 -4,-10zm-9 12l0 0 0 0c0,0 0,0 0,0zm0 0l0 0 0 0c0,0 0,0 0,0zm0 0l0 0 0 0c0,0 0,0 0,0zm0 0l0 0 0 0c0,0 0,0 0,0zm0 0l0 0 0 0c0,0 0,0 0,0zm0 0l0 0 0 0c0,0 0,0 0,0zm0 0l0 0 0 0c0,0 0,0 0,0zm0 0l0 0 0 0c0,0 0,0 0,0zm0 0l0 0 0 0c0,0 0,0 0,0zm0 0l0 0 0 0c0,0 0,0 0,0z"/>
   <path class="fil0" d="M202 74c0,1 0,1 -1,2 0,0 0,0 0,0 0,0 0,0 0,0 0,0 0,0 0,0l0 0c-1,0 -1,0 -1,0 0,0 -1,0 -1,0 0,0 0,0 0,0 0,0 -1,0 -1,0 0,0 0,0 0,0 0,-1 0,-1 0,-2 0,0 0,0 0,0 0,0 0,0 0,0 0,0 0,0 0,-1 0,0 0,0 0,0 0,0 0,-1 1,-1 0,0 0,0 0,0 0,0 1,0 1,0 0,0 0,0 0,0 0,0 0,0 0,0 1,0 1,0 2,1 0,0 0,0 0,0 0,0 0,1 0,1 0,0 0,0 0,0l0 0c0,0 0,0 0,0z"/>
   <path class="fil0" d="M201 76l0 0 0 0c0,0 0,0 0,0z"/>
   <path class="fil0" d="M201 76l0 0 0 0c0,0 0,0 0,0z"/>
  </g>
 </g>
</svg>
