<?xml version="1.0" encoding="UTF-8"?>
<!DOCTYPE svg PUBLIC "-//W3C//DTD SVG 1.1//EN" "http://www.w3.org/Graphics/SVG/1.1/DTD/svg11.dtd">
<!-- Creator: CorelDRAW X7 -->
<svg xmlns="http://www.w3.org/2000/svg" xml:space="preserve" width="4.6in" height="1.792in" version="1.1" style="shape-rendering:geometricPrecision; text-rendering:geometricPrecision; image-rendering:optimizeQuality; fill-rule:evenodd; clip-rule:evenodd"
viewBox="0 0 4600 1792"
 xmlns:xlink="http://www.w3.org/1999/xlink">
 <defs>
  <style type="text/css">
   <![CDATA[
    .fil0 {fill:#373435}
   ]]>
  </style>
 </defs>
 <g id="Layer_x0020_1">
  <metadata id="CorelCorpID_0Corel-Layer"/>
  <path class="fil0" d="M2578 558c-3,-90 26,-293 43,-385 10,-55 -1,-48 48,-56l317 -8c69,0 144,-3 213,-1 97,2 90,26 115,102 29,88 102,253 63,349 -171,9 -682,30 -799,-1zm-1075 -124c20,-46 116,-145 153,-179 61,-57 94,-103 214,-116 195,-21 435,-27 633,-23 0,58 -21,166 -31,225 -7,38 -12,73 -18,113 -4,27 -12,79 -34,97 -65,34 -664,40 -761,22 32,-144 -7,-130 -156,-139zm2005 -316c83,-12 556,-27 610,-6 70,26 197,402 180,431 -18,32 -547,40 -601,1 -40,-29 -188,-356 -189,-426zm-3455 872c-24,8 -23,5 -43,18 -8,213 -49,440 115,447 59,2 140,7 191,-6 2,-2 4,-8 5,-7 0,2 3,-6 4,-7 34,-87 -14,-192 133,-364 67,-79 203,-165 361,-167 242,-4 457,183 487,419 4,29 3,107 20,123 42,17 2035,19 2085,-1 33,-90 5,-237 140,-378 323,-336 810,-104 846,261 10,96 -25,161 171,110 28,-87 25,-163 27,-264 2,-132 34,-172 -90,-198 -13,-209 -53,-342 -115,-524 -43,-126 -141,-354 -203,-442 -32,-20 -1138,-3 -1272,-3 -236,1 -1059,-22 -1209,76 -284,185 -307,414 -521,433 -268,23 -585,57 -841,111 -273,57 -273,65 -291,363z"/>
  <path class="fil0" d="M3853 1008c-573,124 -317,880 141,774 512,-119 328,-875 -141,-774z"/>
  <path class="fil0" d="M766 1008c-197,40 -367,194 -328,444 34,220 261,364 448,328 199,-38 357,-203 323,-453 -26,-191 -220,-365 -443,-319z"/>
 </g>
</svg>
