<?xml version="1.0" encoding="UTF-8"?>
<!DOCTYPE svg PUBLIC "-//W3C//DTD SVG 1.1//EN" "http://www.w3.org/Graphics/SVG/1.1/DTD/svg11.dtd">
<!-- Creator: CorelDRAW X7 -->
<svg xmlns="http://www.w3.org/2000/svg" xml:space="preserve" width="2.18666in" height="0.243331in" version="1.1" style="shape-rendering:geometricPrecision; text-rendering:geometricPrecision; image-rendering:optimizeQuality; fill-rule:evenodd; clip-rule:evenodd"
viewBox="0 0 2187 243"
 xmlns:xlink="http://www.w3.org/1999/xlink">
 <defs>
  <style type="text/css">
   <![CDATA[
    .fil1 {fill:#D53439;fill-rule:nonzero}
    .fil0 {fill:white;fill-rule:nonzero}
   ]]>
  </style>
 </defs>
 <g id="Layer_x0020_1">
  <metadata id="CorelCorpID_0Corel-Layer"/>
  <g id="_2707864084000">
   <path class="fil0" d="M-1 238l138 -239 87 239 -38 0 -20 -55 -94 0 -31 55 -41 0 -1 0zm87 -85l70 0 -18 -57c-1,-2 -2,-6 -3,-11 -1,-4 -2,-10 -4,-17 -2,5 -4,10 -7,15 -2,5 -4,10 -7,14l-31 56 0 0z"/>
   <path id="_1" class="fil0" d="M303 8l-18 133c-1,5 -1,10 -2,14 0,4 0,7 0,10 0,15 4,26 13,34 9,8 21,12 37,12 12,0 23,-2 31,-6 9,-4 16,-10 23,-18 7,-10 13,-29 17,-55 0,-3 0,-6 1,-7l16 -117 37 0 -18 129c-3,22 -6,38 -10,48 -3,10 -8,18 -15,26 -9,11 -21,19 -36,25 -14,5 -31,8 -50,8 -27,0 -48,-6 -62,-19 -14,-13 -21,-32 -21,-57 0,-5 0,-13 1,-22 1,-10 2,-21 4,-33l15 -105 37 0 0 0z"/>
   <polygon id="_2" class="fil0" points="515,238 542,41 478,41 482,8 645,8 641,41 580,41 553,238 "/>
   <path id="_3" class="fil0" d="M854 115c0,-24 -7,-43 -23,-58 -15,-15 -35,-22 -60,-22 -12,0 -24,2 -36,7 -11,4 -21,11 -29,19 -9,9 -17,20 -22,32 -5,12 -7,25 -7,38 0,24 7,43 22,58 16,15 35,22 59,22 27,0 50,-9 69,-27 18,-18 27,-41 27,-69l0 0zm-81 -112c36,0 65,10 86,30 22,21 33,48 33,82 0,18 -4,35 -11,51 -7,17 -17,31 -30,43 -12,11 -27,19 -43,25 -16,6 -34,9 -52,9 -35,0 -63,-10 -84,-30 -21,-21 -32,-48 -32,-81 0,-19 3,-36 10,-52 7,-16 17,-30 30,-42 12,-11 26,-20 42,-26 16,-6 33,-9 51,-9z"/>
   <path class="fil1" d="M1090 240l0 -144c0,-13 1,-30 2,-50l-1 0c-3,16 -6,26 -8,31l-63 163 -44 0 -64 -162c-2,-4 -4,-14 -8,-32l-2 0c2,20 3,40 3,60l0 134 -50 0 0 -237 80 0 55 143c5,12 8,23 9,34l2 0c3,-13 7,-25 10,-34l56 -143 77 0 0 237 -54 0 0 0z"/>
   <path id="_1_0" class="fil1" d="M1188 125c0,-37 12,-68 35,-91 24,-23 55,-35 93,-35 37,0 66,12 89,34 22,23 33,52 33,87 0,37 -11,67 -35,90 -23,23 -53,34 -91,34 -37,0 -67,-11 -90,-33 -23,-23 -34,-51 -34,-86zm57 -3c0,23 6,42 18,56 12,15 29,22 50,22 21,0 38,-7 50,-21 12,-14 18,-32 18,-56 0,-25 -6,-44 -17,-59 -12,-14 -28,-21 -49,-21 -22,0 -39,7 -51,22 -12,15 -19,34 -19,57z"/>
   <polygon id="_2_1" class="fil1" points="1644,45 1571,45 1571,240 1516,240 1516,45 1443,45 1443,3 1644,3 "/>
   <polygon id="_3_2" class="fil1" points="1733,3 1733,240 1679,240 1679,3 "/>
   <path id="_4" class="fil1" d="M2004 3l-89 237 -62 0 -88 -237 59 0 55 168c3,8 5,16 6,23l1 0c0,-8 2,-16 5,-24l56 -167 57 0 0 0z"/>
   <polygon id="_5" class="fil1" points="2187,240 2035,240 2035,3 2181,3 2181,45 2090,45 2090,100 2175,100 2175,141 2090,141 2090,199 2187,199 "/>
  </g>
 </g>
</svg>
