<?xml version="1.0" encoding="UTF-8"?>
<!DOCTYPE svg PUBLIC "-//W3C//DTD SVG 1.1//EN" "http://www.w3.org/Graphics/SVG/1.1/DTD/svg11.dtd">
<!-- Creator: CorelDRAW X7 -->
<svg xmlns="http://www.w3.org/2000/svg" xml:space="preserve" width="0.513331in" height="0.236661in" version="1.1" style="shape-rendering:geometricPrecision; text-rendering:geometricPrecision; image-rendering:optimizeQuality; fill-rule:evenodd; clip-rule:evenodd"
viewBox="0 0 513 237"
 xmlns:xlink="http://www.w3.org/1999/xlink">
 <defs>
  <style type="text/css">
   <![CDATA[
    .fil1 {fill:#373435;fill-rule:nonzero}
    .fil0 {fill:#D53439;fill-rule:nonzero}
   ]]>
  </style>
 </defs>
 <g id="Layer_x0020_1">
  <metadata id="CorelCorpID_0Corel-Layer"/>
  <g id="_2707858786912">
   <path class="fil0" d="M516 237l-62 0 -30 -103c-2,-7 -4,-15 -7,-24 -2,-9 -4,-18 -6,-29 0,10 -1,23 -3,38 -1,3 -1,5 -2,7l-15 111 -44 0 -50 -111c-1,-2 -2,-4 -4,-7 -7,-15 -12,-28 -15,-38 1,9 2,18 2,27 1,9 1,18 1,26l2 103 -61 0 0 -238 65 0 56 123c0,1 1,2 2,4 5,11 9,21 11,28 0,-4 0,-8 0,-14 1,-5 1,-11 2,-18l18 -123 66 0 74 238z"/>
   <path class="fil1" d="M-3 237l225 -238 0 238 -38 0 0 -54 -95 0 -51 54 -41 0zm118 -84l70 0 2 -57c0,-3 0,-6 1,-11 1,-4 2,-10 3,-17 -4,5 -9,10 -13,15 -4,5 -8,10 -12,14l-51 56z"/>
  </g>
 </g>
</svg>
